<ttFont>
    <TTGlyph name="A" xMin="3" yMin="-23" xMax="579" yMax="730">
      <contour>
        <pt x="290" y="573" on="1"/>
        <pt x="211" y="474" on="0"/>
        <pt x="176" y="375" on="1"/>
        <pt x="177" y="375" on="1"/>
        <pt x="316" y="375" on="0"/>
        <pt x="357" y="374" on="0"/>
        <pt x="361" y="378" on="0"/>
        <pt x="362" y="381" on="1"/>
        <pt x="345" y="504" on="0"/>
        <pt x="325" y="593" on="0"/>
        <pt x="305" y="593" on="0"/>
      </contour>
      <contour>
        <pt x="201" y="102" on="1"/>
        <pt x="223" y="106" on="1"/>
        <pt x="233" y="106" on="0"/>
        <pt x="233" y="95" on="1"/>
        <pt x="233" y="60" on="0"/>
        <pt x="205" y="12" on="0"/>
        <pt x="184" y="2" on="1"/>
        <pt x="150" y="-15" on="0"/>
        <pt x="126" y="-15" on="1"/>
        <pt x="80" y="-15" on="0"/>
        <pt x="34" y="54" on="0"/>
        <pt x="34" y="193" on="0"/>
        <pt x="72" y="304" on="1"/>
        <pt x="14" y="304" on="1"/>
        <pt x="3" y="304" on="0"/>
        <pt x="3" y="326" on="0"/>
        <pt x="37" y="375" on="0"/>
        <pt x="56" y="375" on="1"/>
        <pt x="101" y="375" on="1"/>
        <pt x="172" y="533" on="0"/>
        <pt x="268" y="648" on="1"/>
        <pt x="293" y="678" on="0"/>
        <pt x="366" y="730" on="0"/>
        <pt x="406" y="730" on="0"/>
        <pt x="416" y="712" on="1"/>
        <pt x="442" y="670" on="0"/>
        <pt x="477" y="405" on="1"/>
        <pt x="489" y="291" on="0"/>
        <pt x="548" y="48" on="0"/>
        <pt x="573" y="28" on="1"/>
        <pt x="579" y="24" on="0"/>
        <pt x="579" y="18" on="1"/>
        <pt x="579" y="3" on="0"/>
        <pt x="494" y="-23" on="0"/>
        <pt x="449" y="-23" on="0"/>
        <pt x="425" y="-12" on="0"/>
        <pt x="422" y="-6" on="1"/>
        <pt x="404" y="33" on="0"/>
        <pt x="386" y="180" on="1"/>
        <pt x="380" y="227" on="1"/>
        <pt x="376" y="274" on="0"/>
        <pt x="372" y="298" on="1"/>
        <pt x="365" y="303" on="1"/>
        <pt x="156" y="304" on="1"/>
        <pt x="144" y="253" on="0"/>
        <pt x="144" y="177" on="0"/>
        <pt x="149" y="142" on="0"/>
        <pt x="177" y="102" on="0"/>
      </contour>
    </TTGlyph>
    <TTGlyph name="AE" xMin="51" yMin="-23" xMax="844" yMax="730">
      <contour>
        <pt x="338" y="573" on="1"/>
        <pt x="259" y="474" on="0"/>
        <pt x="224" y="375" on="1"/>
        <pt x="225" y="375" on="1"/>
        <pt x="364" y="375" on="0"/>
        <pt x="405" y="374" on="0"/>
        <pt x="409" y="378" on="0"/>
        <pt x="410" y="381" on="1"/>
        <pt x="393" y="504" on="0"/>
        <pt x="373" y="593" on="0"/>
        <pt x="353" y="593" on="0"/>
      </contour>
      <contour>
        <pt x="249" y="102" on="1"/>
        <pt x="271" y="106" on="1"/>
        <pt x="281" y="106" on="0"/>
        <pt x="281" y="95" on="1"/>
        <pt x="281" y="60" on="0"/>
        <pt x="253" y="12" on="0"/>
        <pt x="232" y="2" on="1"/>
        <pt x="198" y="-15" on="0"/>
        <pt x="174" y="-15" on="1"/>
        <pt x="128" y="-15" on="0"/>
        <pt x="82" y="54" on="0"/>
        <pt x="82" y="193" on="0"/>
        <pt x="120" y="304" on="1"/>
        <pt x="62" y="304" on="1"/>
        <pt x="51" y="304" on="0"/>
        <pt x="51" y="326" on="0"/>
        <pt x="85" y="375" on="0"/>
        <pt x="104" y="375" on="1"/>
        <pt x="149" y="375" on="1"/>
        <pt x="220" y="533" on="0"/>
        <pt x="316" y="648" on="1"/>
        <pt x="341" y="678" on="0"/>
        <pt x="414" y="730" on="0"/>
        <pt x="439" y="730" on="1"/>
        <pt x="449" y="730" on="0"/>
        <pt x="456" y="722" on="1"/>
        <pt x="477" y="702" on="0"/>
        <pt x="495" y="599" on="1"/>
        <pt x="496" y="594" on="0"/>
        <pt x="502" y="594" on="0"/>
        <pt x="506" y="598" on="1"/>
        <pt x="555" y="665" on="0"/>
        <pt x="681" y="718" on="0"/>
        <pt x="811" y="718" on="0"/>
        <pt x="828" y="696" on="1"/>
        <pt x="836" y="685" on="0"/>
        <pt x="836" y="626" on="0"/>
        <pt x="829" y="626" on="1"/>
        <pt x="828" y="626" on="0"/>
        <pt x="820" y="630" on="1"/>
        <pt x="794" y="642" on="0"/>
        <pt x="755" y="642" on="1"/>
        <pt x="670" y="642" on="0"/>
        <pt x="575" y="522" on="0"/>
        <pt x="559" y="428" on="1"/>
        <pt x="616" y="429" on="0"/>
        <pt x="765" y="429" on="1"/>
        <pt x="775" y="429" on="0"/>
        <pt x="775" y="422" on="1"/>
        <pt x="775" y="406" on="0"/>
        <pt x="743" y="357" on="0"/>
        <pt x="723" y="357" on="1"/>
        <pt x="551" y="357" on="1"/>
        <pt x="550" y="345" on="0"/>
        <pt x="550" y="264" on="0"/>
        <pt x="579" y="175" on="0"/>
        <pt x="658" y="113" on="0"/>
        <pt x="784" y="113" on="0"/>
        <pt x="827" y="141" on="1"/>
        <pt x="832" y="145" on="0"/>
        <pt x="836" y="145" on="1"/>
        <pt x="844" y="145" on="0"/>
        <pt x="844" y="124" on="1"/>
        <pt x="844" y="54" on="0"/>
        <pt x="755" y="-14" on="0"/>
        <pt x="675" y="-14" on="1"/>
        <pt x="637" y="-14" on="0"/>
        <pt x="599" y="-4" on="1"/>
        <pt x="552" y="-23" on="0"/>
        <pt x="524" y="-23" on="1"/>
        <pt x="478" y="-23" on="0"/>
        <pt x="470" y="-6" on="1"/>
        <pt x="452" y="33" on="0"/>
        <pt x="434" y="180" on="1"/>
        <pt x="428" y="227" on="1"/>
        <pt x="424" y="274" on="0"/>
        <pt x="420" y="298" on="1"/>
        <pt x="413" y="303" on="1"/>
        <pt x="204" y="304" on="1"/>
        <pt x="192" y="253" on="0"/>
        <pt x="192" y="177" on="0"/>
        <pt x="197" y="142" on="0"/>
        <pt x="225" y="102" on="0"/>
      </contour>
    </TTGlyph>
    <TTGlyph name="Aacute" xMin="3" yMin="-23" xMax="579" yMax="874">
      <contour>
        <pt x="308" y="748" on="1"/>
        <pt x="303" y="744" on="0"/>
        <pt x="298" y="744" on="1"/>
        <pt x="290" y="744" on="0"/>
        <pt x="290" y="753" on="1"/>
        <pt x="292" y="761" on="1"/>
        <pt x="319" y="815" on="0"/>
        <pt x="364" y="869" on="1"/>
        <pt x="368" y="874" on="0"/>
        <pt x="385" y="874" on="0"/>
        <pt x="425" y="845" on="0"/>
        <pt x="425" y="824" on="0"/>
        <pt x="416" y="818" on="1"/>
        <pt x="374" y="784" on="0"/>
      </contour>
      <contour>
        <pt x="290" y="573" on="1"/>
        <pt x="211" y="474" on="0"/>
        <pt x="176" y="375" on="1"/>
        <pt x="177" y="375" on="1"/>
        <pt x="316" y="375" on="0"/>
        <pt x="357" y="374" on="0"/>
        <pt x="361" y="378" on="0"/>
        <pt x="362" y="381" on="1"/>
        <pt x="345" y="504" on="0"/>
        <pt x="325" y="593" on="0"/>
        <pt x="305" y="593" on="0"/>
      </contour>
      <contour>
        <pt x="201" y="102" on="1"/>
        <pt x="223" y="106" on="1"/>
        <pt x="233" y="106" on="0"/>
        <pt x="233" y="95" on="1"/>
        <pt x="233" y="60" on="0"/>
        <pt x="205" y="12" on="0"/>
        <pt x="184" y="2" on="1"/>
        <pt x="150" y="-15" on="0"/>
        <pt x="126" y="-15" on="1"/>
        <pt x="80" y="-15" on="0"/>
        <pt x="34" y="54" on="0"/>
        <pt x="34" y="193" on="0"/>
        <pt x="72" y="304" on="1"/>
        <pt x="14" y="304" on="1"/>
        <pt x="3" y="304" on="0"/>
        <pt x="3" y="326" on="0"/>
        <pt x="37" y="375" on="0"/>
        <pt x="56" y="375" on="1"/>
        <pt x="101" y="375" on="1"/>
        <pt x="172" y="533" on="0"/>
        <pt x="268" y="648" on="1"/>
        <pt x="293" y="678" on="0"/>
        <pt x="366" y="730" on="0"/>
        <pt x="406" y="730" on="0"/>
        <pt x="416" y="712" on="1"/>
        <pt x="442" y="670" on="0"/>
        <pt x="477" y="405" on="1"/>
        <pt x="489" y="291" on="0"/>
        <pt x="548" y="48" on="0"/>
        <pt x="573" y="28" on="1"/>
        <pt x="579" y="24" on="0"/>
        <pt x="579" y="18" on="1"/>
        <pt x="579" y="3" on="0"/>
        <pt x="494" y="-23" on="0"/>
        <pt x="449" y="-23" on="0"/>
        <pt x="425" y="-12" on="0"/>
        <pt x="422" y="-6" on="1"/>
        <pt x="404" y="33" on="0"/>
        <pt x="386" y="180" on="1"/>
        <pt x="380" y="227" on="1"/>
        <pt x="376" y="274" on="0"/>
        <pt x="372" y="298" on="1"/>
        <pt x="365" y="303" on="1"/>
        <pt x="156" y="304" on="1"/>
        <pt x="144" y="253" on="0"/>
        <pt x="144" y="177" on="0"/>
        <pt x="149" y="142" on="0"/>
        <pt x="177" y="102" on="0"/>
      </contour>
    </TTGlyph>
    <TTGlyph name="Acircumflex" xMin="3" yMin="-23" xMax="579" yMax="872">
      <contour>
        <pt x="462" y="758" on="1"/>
        <pt x="462" y="749" on="0"/>
        <pt x="446" y="749" on="0"/>
        <pt x="352" y="812" on="1"/>
        <pt x="259" y="749" on="0"/>
        <pt x="241" y="749" on="0"/>
        <pt x="241" y="757" on="1"/>
        <pt x="243" y="765" on="1"/>
        <pt x="276" y="828" on="0"/>
        <pt x="312" y="867" on="1"/>
        <pt x="316" y="872" on="0"/>
        <pt x="334" y="872" on="0"/>
        <pt x="352" y="858" on="1"/>
        <pt x="370" y="872" on="0"/>
        <pt x="380" y="872" on="1"/>
        <pt x="392" y="867" on="1"/>
        <pt x="422" y="837" on="0"/>
        <pt x="451" y="784" on="1"/>
        <pt x="461" y="765" on="1"/>
        <pt x="462" y="762" on="0"/>
      </contour>
      <contour>
        <pt x="290" y="573" on="1"/>
        <pt x="211" y="474" on="0"/>
        <pt x="176" y="375" on="1"/>
        <pt x="177" y="375" on="1"/>
        <pt x="316" y="375" on="0"/>
        <pt x="357" y="374" on="0"/>
        <pt x="361" y="378" on="0"/>
        <pt x="362" y="381" on="1"/>
        <pt x="345" y="504" on="0"/>
        <pt x="325" y="593" on="0"/>
        <pt x="305" y="593" on="0"/>
      </contour>
      <contour>
        <pt x="201" y="102" on="1"/>
        <pt x="223" y="106" on="1"/>
        <pt x="233" y="106" on="0"/>
        <pt x="233" y="95" on="1"/>
        <pt x="233" y="60" on="0"/>
        <pt x="205" y="12" on="0"/>
        <pt x="184" y="2" on="1"/>
        <pt x="150" y="-15" on="0"/>
        <pt x="126" y="-15" on="1"/>
        <pt x="80" y="-15" on="0"/>
        <pt x="34" y="54" on="0"/>
        <pt x="34" y="193" on="0"/>
        <pt x="72" y="304" on="1"/>
        <pt x="14" y="304" on="1"/>
        <pt x="3" y="304" on="0"/>
        <pt x="3" y="326" on="0"/>
        <pt x="37" y="375" on="0"/>
        <pt x="56" y="375" on="1"/>
        <pt x="101" y="375" on="1"/>
        <pt x="172" y="533" on="0"/>
        <pt x="268" y="648" on="1"/>
        <pt x="293" y="678" on="0"/>
        <pt x="366" y="730" on="0"/>
        <pt x="406" y="730" on="0"/>
        <pt x="416" y="712" on="1"/>
        <pt x="442" y="670" on="0"/>
        <pt x="477" y="405" on="1"/>
        <pt x="489" y="291" on="0"/>
        <pt x="548" y="48" on="0"/>
        <pt x="573" y="28" on="1"/>
        <pt x="579" y="24" on="0"/>
        <pt x="579" y="18" on="1"/>
        <pt x="579" y="3" on="0"/>
        <pt x="494" y="-23" on="0"/>
        <pt x="449" y="-23" on="0"/>
        <pt x="425" y="-12" on="0"/>
        <pt x="422" y="-6" on="1"/>
        <pt x="404" y="33" on="0"/>
        <pt x="386" y="180" on="1"/>
        <pt x="380" y="227" on="1"/>
        <pt x="376" y="274" on="0"/>
        <pt x="372" y="298" on="1"/>
        <pt x="365" y="303" on="1"/>
        <pt x="156" y="304" on="1"/>
        <pt x="144" y="253" on="0"/>
        <pt x="144" y="177" on="0"/>
        <pt x="149" y="142" on="0"/>
        <pt x="177" y="102" on="0"/>
      </contour>
    </TTGlyph>
    <TTGlyph name="Adieresis" xMin="3" yMin="-23" xMax="579" yMax="897">
      <contour>
        <pt x="462" y="817" on="1"/>
        <pt x="441" y="816" on="1"/>
        <pt x="422" y="816" on="0"/>
        <pt x="408" y="833" on="0"/>
        <pt x="408" y="879" on="0"/>
        <pt x="428" y="897" on="0"/>
        <pt x="482" y="897" on="0"/>
        <pt x="503" y="876" on="0"/>
        <pt x="503" y="856" on="1"/>
        <pt x="503" y="804" on="0"/>
        <pt x="493" y="804" on="1"/>
        <pt x="489" y="807" on="1"/>
        <pt x="483" y="817" on="0"/>
      </contour>
      <contour>
        <pt x="287" y="817" on="1"/>
        <pt x="266" y="816" on="1"/>
        <pt x="247" y="816" on="0"/>
        <pt x="233" y="833" on="0"/>
        <pt x="233" y="879" on="0"/>
        <pt x="253" y="897" on="0"/>
        <pt x="307" y="897" on="0"/>
        <pt x="328" y="876" on="0"/>
        <pt x="328" y="856" on="1"/>
        <pt x="328" y="821" on="0"/>
        <pt x="320" y="804" on="0"/>
        <pt x="318" y="804" on="1"/>
        <pt x="314" y="807" on="1"/>
        <pt x="308" y="817" on="0"/>
      </contour>
      <contour>
        <pt x="290" y="573" on="1"/>
        <pt x="211" y="474" on="0"/>
        <pt x="176" y="375" on="1"/>
        <pt x="177" y="375" on="1"/>
        <pt x="316" y="375" on="0"/>
        <pt x="357" y="374" on="0"/>
        <pt x="361" y="378" on="0"/>
        <pt x="362" y="381" on="1"/>
        <pt x="345" y="504" on="0"/>
        <pt x="325" y="593" on="0"/>
        <pt x="305" y="593" on="0"/>
      </contour>
      <contour>
        <pt x="201" y="102" on="1"/>
        <pt x="223" y="106" on="1"/>
        <pt x="233" y="106" on="0"/>
        <pt x="233" y="95" on="1"/>
        <pt x="233" y="60" on="0"/>
        <pt x="205" y="12" on="0"/>
        <pt x="184" y="2" on="1"/>
        <pt x="150" y="-15" on="0"/>
        <pt x="126" y="-15" on="1"/>
        <pt x="80" y="-15" on="0"/>
        <pt x="34" y="54" on="0"/>
        <pt x="34" y="193" on="0"/>
        <pt x="72" y="304" on="1"/>
        <pt x="14" y="304" on="1"/>
        <pt x="3" y="304" on="0"/>
        <pt x="3" y="326" on="0"/>
        <pt x="37" y="375" on="0"/>
        <pt x="56" y="375" on="1"/>
        <pt x="101" y="375" on="1"/>
        <pt x="172" y="533" on="0"/>
        <pt x="268" y="648" on="1"/>
        <pt x="293" y="678" on="0"/>
        <pt x="366" y="730" on="0"/>
        <pt x="406" y="730" on="0"/>
        <pt x="416" y="712" on="1"/>
        <pt x="442" y="670" on="0"/>
        <pt x="477" y="405" on="1"/>
        <pt x="489" y="291" on="0"/>
        <pt x="548" y="48" on="0"/>
        <pt x="573" y="28" on="1"/>
        <pt x="579" y="24" on="0"/>
        <pt x="579" y="18" on="1"/>
        <pt x="579" y="3" on="0"/>
        <pt x="494" y="-23" on="0"/>
        <pt x="449" y="-23" on="0"/>
        <pt x="425" y="-12" on="0"/>
        <pt x="422" y="-6" on="1"/>
        <pt x="404" y="33" on="0"/>
        <pt x="386" y="180" on="1"/>
        <pt x="380" y="227" on="1"/>
        <pt x="376" y="274" on="0"/>
        <pt x="372" y="298" on="1"/>
        <pt x="365" y="303" on="1"/>
        <pt x="156" y="304" on="1"/>
        <pt x="144" y="253" on="0"/>
        <pt x="144" y="177" on="0"/>
        <pt x="149" y="142" on="0"/>
        <pt x="177" y="102" on="0"/>
      </contour>
    </TTGlyph>
    <TTGlyph name="Agrave" xMin="3" yMin="-23" xMax="579" yMax="905">
      <contour>
        <pt x="414" y="782" on="0"/>
        <pt x="409" y="775" on="0"/>
        <pt x="400" y="775" on="0"/>
        <pt x="308" y="834" on="0"/>
        <pt x="280" y="855" on="0"/>
        <pt x="280" y="876" on="0"/>
        <pt x="319" y="905" on="0"/>
        <pt x="328" y="905" on="1"/>
        <pt x="340" y="900" on="1"/>
        <pt x="355" y="885" on="0"/>
        <pt x="414" y="794" on="0"/>
      </contour>
      <contour>
        <pt x="290" y="573" on="1"/>
        <pt x="211" y="474" on="0"/>
        <pt x="176" y="375" on="1"/>
        <pt x="177" y="375" on="1"/>
        <pt x="316" y="375" on="0"/>
        <pt x="357" y="374" on="0"/>
        <pt x="361" y="378" on="0"/>
        <pt x="362" y="381" on="1"/>
        <pt x="345" y="504" on="0"/>
        <pt x="325" y="593" on="0"/>
        <pt x="305" y="593" on="0"/>
      </contour>
      <contour>
        <pt x="201" y="102" on="1"/>
        <pt x="223" y="106" on="1"/>
        <pt x="233" y="106" on="0"/>
        <pt x="233" y="95" on="1"/>
        <pt x="233" y="60" on="0"/>
        <pt x="205" y="12" on="0"/>
        <pt x="184" y="2" on="1"/>
        <pt x="150" y="-15" on="0"/>
        <pt x="126" y="-15" on="1"/>
        <pt x="80" y="-15" on="0"/>
        <pt x="34" y="54" on="0"/>
        <pt x="34" y="193" on="0"/>
        <pt x="72" y="304" on="1"/>
        <pt x="14" y="304" on="1"/>
        <pt x="3" y="304" on="0"/>
        <pt x="3" y="326" on="0"/>
        <pt x="37" y="375" on="0"/>
        <pt x="56" y="375" on="1"/>
        <pt x="101" y="375" on="1"/>
        <pt x="172" y="533" on="0"/>
        <pt x="268" y="648" on="1"/>
        <pt x="293" y="678" on="0"/>
        <pt x="366" y="730" on="0"/>
        <pt x="406" y="730" on="0"/>
        <pt x="416" y="712" on="1"/>
        <pt x="442" y="670" on="0"/>
        <pt x="477" y="405" on="1"/>
        <pt x="489" y="291" on="0"/>
        <pt x="548" y="48" on="0"/>
        <pt x="573" y="28" on="1"/>
        <pt x="579" y="24" on="0"/>
        <pt x="579" y="18" on="1"/>
        <pt x="579" y="3" on="0"/>
        <pt x="494" y="-23" on="0"/>
        <pt x="449" y="-23" on="0"/>
        <pt x="425" y="-12" on="0"/>
        <pt x="422" y="-6" on="1"/>
        <pt x="404" y="33" on="0"/>
        <pt x="386" y="180" on="1"/>
        <pt x="380" y="227" on="1"/>
        <pt x="376" y="274" on="0"/>
        <pt x="372" y="298" on="1"/>
        <pt x="365" y="303" on="1"/>
        <pt x="156" y="304" on="1"/>
        <pt x="144" y="253" on="0"/>
        <pt x="144" y="177" on="0"/>
        <pt x="149" y="142" on="0"/>
        <pt x="177" y="102" on="0"/>
      </contour>
    </TTGlyph>
    <TTGlyph name="Aring" xMin="3" yMin="-23" xMax="579" yMax="902">
      <contour>
        <pt x="369" y="817" on="1"/>
        <pt x="384" y="817" on="0"/>
        <pt x="402" y="811" on="1"/>
        <pt x="407" y="811" on="0"/>
        <pt x="407" y="827" on="1"/>
        <pt x="407" y="874" on="0"/>
        <pt x="378" y="874" on="1"/>
        <pt x="364" y="874" on="0"/>
        <pt x="348" y="858" on="0"/>
        <pt x="348" y="846" on="1"/>
        <pt x="348" y="817" on="0"/>
      </contour>
      <contour>
        <pt x="317" y="843" on="1"/>
        <pt x="317" y="872" on="0"/>
        <pt x="350" y="902" on="0"/>
        <pt x="407" y="902" on="0"/>
        <pt x="437" y="860" on="0"/>
        <pt x="437" y="774" on="0"/>
        <pt x="424" y="774" on="1"/>
        <pt x="421" y="774" on="0"/>
        <pt x="418" y="776" on="1"/>
        <pt x="402" y="790" on="0"/>
        <pt x="364" y="790" on="1"/>
        <pt x="317" y="790" on="0"/>
      </contour>
      <contour>
        <pt x="290" y="573" on="1"/>
        <pt x="211" y="474" on="0"/>
        <pt x="176" y="375" on="1"/>
        <pt x="177" y="375" on="1"/>
        <pt x="316" y="375" on="0"/>
        <pt x="357" y="374" on="0"/>
        <pt x="361" y="378" on="0"/>
        <pt x="362" y="381" on="1"/>
        <pt x="345" y="504" on="0"/>
        <pt x="325" y="593" on="0"/>
        <pt x="305" y="593" on="0"/>
      </contour>
      <contour>
        <pt x="201" y="102" on="1"/>
        <pt x="223" y="106" on="1"/>
        <pt x="233" y="106" on="0"/>
        <pt x="233" y="95" on="1"/>
        <pt x="233" y="60" on="0"/>
        <pt x="205" y="12" on="0"/>
        <pt x="184" y="2" on="1"/>
        <pt x="150" y="-15" on="0"/>
        <pt x="126" y="-15" on="1"/>
        <pt x="80" y="-15" on="0"/>
        <pt x="34" y="54" on="0"/>
        <pt x="34" y="193" on="0"/>
        <pt x="72" y="304" on="1"/>
        <pt x="14" y="304" on="1"/>
        <pt x="3" y="304" on="0"/>
        <pt x="3" y="326" on="0"/>
        <pt x="37" y="375" on="0"/>
        <pt x="56" y="375" on="1"/>
        <pt x="101" y="375" on="1"/>
        <pt x="172" y="533" on="0"/>
        <pt x="268" y="648" on="1"/>
        <pt x="293" y="678" on="0"/>
        <pt x="366" y="730" on="0"/>
        <pt x="406" y="730" on="0"/>
        <pt x="416" y="712" on="1"/>
        <pt x="442" y="670" on="0"/>
        <pt x="477" y="405" on="1"/>
        <pt x="489" y="291" on="0"/>
        <pt x="548" y="48" on="0"/>
        <pt x="573" y="28" on="1"/>
        <pt x="579" y="24" on="0"/>
        <pt x="579" y="18" on="1"/>
        <pt x="579" y="3" on="0"/>
        <pt x="494" y="-23" on="0"/>
        <pt x="449" y="-23" on="0"/>
        <pt x="425" y="-12" on="0"/>
        <pt x="422" y="-6" on="1"/>
        <pt x="404" y="33" on="0"/>
        <pt x="386" y="180" on="1"/>
        <pt x="380" y="227" on="1"/>
        <pt x="376" y="274" on="0"/>
        <pt x="372" y="298" on="1"/>
        <pt x="365" y="303" on="1"/>
        <pt x="156" y="304" on="1"/>
        <pt x="144" y="253" on="0"/>
        <pt x="144" y="177" on="0"/>
        <pt x="149" y="142" on="0"/>
        <pt x="177" y="102" on="0"/>
      </contour>
    </TTGlyph>
    <TTGlyph name="Atilde" xMin="3" yMin="-23" xMax="579" yMax="830">
      <contour>
        <pt x="307" y="830" on="1"/>
        <pt x="408" y="822" on="1"/>
        <pt x="428" y="822" on="0"/>
        <pt x="446" y="828" on="0"/>
        <pt x="447" y="828" on="1"/>
        <pt x="453" y="828" on="0"/>
        <pt x="453" y="823" on="1"/>
        <pt x="453" y="808" on="0"/>
        <pt x="414" y="772" on="0"/>
        <pt x="377" y="772" on="0"/>
        <pt x="320" y="786" on="0"/>
        <pt x="282" y="786" on="0"/>
        <pt x="255" y="780" on="0"/>
        <pt x="239" y="774" on="0"/>
        <pt x="233" y="774" on="0"/>
        <pt x="233" y="790" on="0"/>
        <pt x="278" y="830" on="0"/>
      </contour>
      <contour>
        <pt x="290" y="573" on="1"/>
        <pt x="211" y="474" on="0"/>
        <pt x="176" y="375" on="1"/>
        <pt x="177" y="375" on="1"/>
        <pt x="316" y="375" on="0"/>
        <pt x="357" y="374" on="0"/>
        <pt x="361" y="378" on="0"/>
        <pt x="362" y="381" on="1"/>
        <pt x="345" y="504" on="0"/>
        <pt x="325" y="593" on="0"/>
        <pt x="305" y="593" on="0"/>
      </contour>
      <contour>
        <pt x="201" y="102" on="1"/>
        <pt x="223" y="106" on="1"/>
        <pt x="233" y="106" on="0"/>
        <pt x="233" y="95" on="1"/>
        <pt x="233" y="60" on="0"/>
        <pt x="205" y="12" on="0"/>
        <pt x="184" y="2" on="1"/>
        <pt x="150" y="-15" on="0"/>
        <pt x="126" y="-15" on="1"/>
        <pt x="80" y="-15" on="0"/>
        <pt x="34" y="54" on="0"/>
        <pt x="34" y="193" on="0"/>
        <pt x="72" y="304" on="1"/>
        <pt x="14" y="304" on="1"/>
        <pt x="3" y="304" on="0"/>
        <pt x="3" y="326" on="0"/>
        <pt x="37" y="375" on="0"/>
        <pt x="56" y="375" on="1"/>
        <pt x="101" y="375" on="1"/>
        <pt x="172" y="533" on="0"/>
        <pt x="268" y="648" on="1"/>
        <pt x="293" y="678" on="0"/>
        <pt x="366" y="730" on="0"/>
        <pt x="406" y="730" on="0"/>
        <pt x="416" y="712" on="1"/>
        <pt x="442" y="670" on="0"/>
        <pt x="477" y="405" on="1"/>
        <pt x="489" y="291" on="0"/>
        <pt x="548" y="48" on="0"/>
        <pt x="573" y="28" on="1"/>
        <pt x="579" y="24" on="0"/>
        <pt x="579" y="18" on="1"/>
        <pt x="579" y="3" on="0"/>
        <pt x="494" y="-23" on="0"/>
        <pt x="449" y="-23" on="0"/>
        <pt x="425" y="-12" on="0"/>
        <pt x="422" y="-6" on="1"/>
        <pt x="404" y="33" on="0"/>
        <pt x="386" y="180" on="1"/>
        <pt x="380" y="227" on="1"/>
        <pt x="376" y="274" on="0"/>
        <pt x="372" y="298" on="1"/>
        <pt x="365" y="303" on="1"/>
        <pt x="156" y="304" on="1"/>
        <pt x="144" y="253" on="0"/>
        <pt x="144" y="177" on="0"/>
        <pt x="149" y="142" on="0"/>
        <pt x="177" y="102" on="0"/>
      </contour>
    </TTGlyph>
    <TTGlyph name="B" xMin="23" yMin="-23" xMax="512" yMax="716">
      <contour>
        <pt x="177" y="450" on="1"/>
        <pt x="178" y="325" on="1"/>
        <pt x="174" y="152" on="1"/>
        <pt x="175" y="148" on="0"/>
        <pt x="179" y="148" on="0"/>
        <pt x="180" y="150" on="1"/>
        <pt x="200" y="178" on="0"/>
        <pt x="259" y="178" on="0"/>
        <pt x="259" y="166" on="1"/>
        <pt x="259" y="128" on="0"/>
        <pt x="288" y="87" on="0"/>
        <pt x="341" y="87" on="0"/>
        <pt x="390" y="159" on="0"/>
        <pt x="390" y="219" on="1"/>
        <pt x="390" y="239" on="0"/>
        <pt x="382" y="267" on="1"/>
        <pt x="366" y="323" on="0"/>
        <pt x="322" y="342" on="1"/>
        <pt x="290" y="355" on="0"/>
        <pt x="218" y="355" on="1"/>
        <pt x="210" y="355" on="0"/>
        <pt x="210" y="366" on="1"/>
        <pt x="210" y="422" on="0"/>
        <pt x="230" y="424" on="1"/>
        <pt x="257" y="424" on="0"/>
        <pt x="287" y="438" on="1"/>
        <pt x="347" y="466" on="0"/>
        <pt x="347" y="553" on="1"/>
        <pt x="347" y="647" on="0"/>
        <pt x="239" y="647" on="1"/>
        <pt x="208" y="645" on="1"/>
        <pt x="190" y="641" on="0"/>
        <pt x="188" y="630" on="1"/>
        <pt x="188" y="627" on="1"/>
        <pt x="177" y="587" on="0"/>
      </contour>
      <contour>
        <pt x="30" y="-14" on="1"/>
        <pt x="32" y="-3" on="1"/>
        <pt x="42" y="15" on="0"/>
        <pt x="56" y="272" on="0"/>
        <pt x="56" y="495" on="0"/>
        <pt x="47" y="630" on="0"/>
        <pt x="27" y="660" on="1"/>
        <pt x="23" y="665" on="0"/>
        <pt x="23" y="679" on="0"/>
        <pt x="35" y="684" on="1"/>
        <pt x="117" y="716" on="0"/>
        <pt x="258" y="716" on="1"/>
        <pt x="293" y="716" on="0"/>
        <pt x="375" y="697" on="0"/>
        <pt x="428" y="669" on="0"/>
        <pt x="471" y="611" on="0"/>
        <pt x="474" y="571" on="1"/>
        <pt x="474" y="426" on="0"/>
        <pt x="354" y="404" on="1"/>
        <pt x="348" y="402" on="0"/>
        <pt x="348" y="397" on="0"/>
        <pt x="353" y="394" on="1"/>
        <pt x="415" y="384" on="0"/>
        <pt x="457" y="344" on="1"/>
        <pt x="478" y="325" on="0"/>
        <pt x="512" y="245" on="0"/>
        <pt x="512" y="193" on="1"/>
        <pt x="512" y="126" on="0"/>
        <pt x="473" y="66" on="1"/>
        <pt x="441" y="17" on="0"/>
        <pt x="380" y="-4" on="1"/>
        <pt x="346" y="-16" on="0"/>
        <pt x="304" y="-16" on="1"/>
        <pt x="199" y="-16" on="0"/>
        <pt x="171" y="51" on="1"/>
        <pt x="170" y="54" on="0"/>
        <pt x="168" y="54" on="1"/>
        <pt x="164" y="50" on="1"/>
        <pt x="143" y="-20" on="0"/>
        <pt x="44" y="-23" on="1"/>
        <pt x="30" y="-23" on="0"/>
      </contour>
    </TTGlyph>
    <TTGlyph name="C" xMin="27" yMin="2" xMax="487" yMax="715">
      <contour>
        <pt x="462" y="229" on="1"/>
        <pt x="481" y="229" on="0"/>
        <pt x="481" y="133" on="0"/>
        <pt x="445" y="57" on="0"/>
        <pt x="394" y="15" on="0"/>
        <pt x="362" y="2" on="1"/>
        <pt x="255" y="-45" on="0"/>
        <pt x="162" y="4" on="1"/>
        <pt x="115" y="29" on="0"/>
        <pt x="65" y="98" on="0"/>
        <pt x="50" y="146" on="1"/>
        <pt x="27" y="218" on="0"/>
        <pt x="27" y="376" on="0"/>
        <pt x="57" y="514" on="0"/>
        <pt x="119" y="639" on="0"/>
        <pt x="233" y="715" on="0"/>
        <pt x="308" y="715" on="1"/>
        <pt x="340" y="715" on="0"/>
        <pt x="409" y="694" on="0"/>
        <pt x="453" y="663" on="0"/>
        <pt x="487" y="599" on="0"/>
        <pt x="487" y="556" on="1"/>
        <pt x="487" y="510" on="0"/>
        <pt x="465" y="473" on="1"/>
        <pt x="455" y="456" on="0"/>
        <pt x="411" y="429" on="0"/>
        <pt x="381" y="429" on="1"/>
        <pt x="335" y="429" on="0"/>
        <pt x="316" y="470" on="1"/>
        <pt x="308" y="486" on="0"/>
        <pt x="308" y="524" on="0"/>
        <pt x="321" y="527" on="1"/>
        <pt x="335" y="531" on="0"/>
        <pt x="359" y="567" on="0"/>
        <pt x="359" y="591" on="1"/>
        <pt x="359" y="610" on="0"/>
        <pt x="349" y="624" on="1"/>
        <pt x="330" y="649" on="0"/>
        <pt x="258" y="649" on="0"/>
        <pt x="199" y="583" on="0"/>
        <pt x="184" y="533" on="1"/>
        <pt x="154" y="433" on="0"/>
        <pt x="154" y="349" on="1"/>
        <pt x="154" y="265" on="0"/>
        <pt x="177" y="214" on="1"/>
        <pt x="205" y="151" on="0"/>
        <pt x="248" y="130" on="1"/>
        <pt x="275" y="117" on="0"/>
        <pt x="310" y="117" on="1"/>
        <pt x="369" y="117" on="0"/>
        <pt x="416" y="170" on="1"/>
        <pt x="436" y="191" on="0"/>
        <pt x="449" y="220" on="1"/>
        <pt x="454" y="229" on="0"/>
      </contour>
    </TTGlyph>
    <TTGlyph name="Ccedilla" xMin="27" yMin="-140" xMax="487" yMax="715">
      <contour>
        <pt x="196" y="-118" on="1"/>
        <pt x="196" y="-111" on="0"/>
        <pt x="200" y="-111" on="1"/>
        <pt x="201" y="-111" on="1"/>
        <pt x="213" y="-114" on="0"/>
        <pt x="240" y="-114" on="0"/>
        <pt x="255" y="-98" on="0"/>
        <pt x="255" y="-76" on="0"/>
        <pt x="218" y="-56" on="0"/>
        <pt x="218" y="-39" on="0"/>
        <pt x="232" y="-29" on="1"/>
        <pt x="245" y="-19" on="1"/>
        <pt x="189" y="-14" on="0"/>
        <pt x="106" y="39" on="0"/>
        <pt x="61" y="107" on="0"/>
        <pt x="48" y="152" on="1"/>
        <pt x="27" y="222" on="0"/>
        <pt x="27" y="376" on="0"/>
        <pt x="57" y="514" on="0"/>
        <pt x="119" y="639" on="0"/>
        <pt x="233" y="715" on="0"/>
        <pt x="308" y="715" on="1"/>
        <pt x="340" y="715" on="0"/>
        <pt x="409" y="694" on="0"/>
        <pt x="453" y="663" on="0"/>
        <pt x="487" y="599" on="0"/>
        <pt x="487" y="556" on="1"/>
        <pt x="487" y="510" on="0"/>
        <pt x="465" y="473" on="1"/>
        <pt x="455" y="456" on="0"/>
        <pt x="411" y="429" on="0"/>
        <pt x="381" y="429" on="1"/>
        <pt x="335" y="429" on="0"/>
        <pt x="316" y="470" on="1"/>
        <pt x="308" y="486" on="0"/>
        <pt x="308" y="524" on="0"/>
        <pt x="321" y="527" on="1"/>
        <pt x="335" y="531" on="0"/>
        <pt x="359" y="567" on="0"/>
        <pt x="359" y="591" on="1"/>
        <pt x="359" y="610" on="0"/>
        <pt x="349" y="624" on="1"/>
        <pt x="330" y="649" on="0"/>
        <pt x="258" y="649" on="0"/>
        <pt x="199" y="583" on="0"/>
        <pt x="184" y="533" on="1"/>
        <pt x="154" y="433" on="0"/>
        <pt x="154" y="349" on="1"/>
        <pt x="154" y="265" on="0"/>
        <pt x="177" y="214" on="1"/>
        <pt x="205" y="151" on="0"/>
        <pt x="248" y="130" on="1"/>
        <pt x="275" y="117" on="0"/>
        <pt x="310" y="117" on="1"/>
        <pt x="369" y="117" on="0"/>
        <pt x="416" y="170" on="1"/>
        <pt x="436" y="191" on="0"/>
        <pt x="449" y="220" on="1"/>
        <pt x="454" y="229" on="0"/>
        <pt x="462" y="229" on="1"/>
        <pt x="481" y="229" on="0"/>
        <pt x="481" y="138" on="0"/>
        <pt x="451" y="66" on="0"/>
        <pt x="407" y="24" on="0"/>
        <pt x="378" y="10" on="1"/>
        <pt x="332" y="-14" on="0"/>
        <pt x="285" y="-19" on="1"/>
        <pt x="280" y="-19" on="0"/>
        <pt x="265" y="-38" on="0"/>
        <pt x="265" y="-48" on="0"/>
        <pt x="277" y="-53" on="1"/>
        <pt x="313" y="-68" on="0"/>
        <pt x="313" y="-115" on="0"/>
        <pt x="268" y="-140" on="0"/>
        <pt x="248" y="-140" on="1"/>
        <pt x="196" y="-140" on="0"/>
      </contour>
    </TTGlyph>
    <TTGlyph name="D" xMin="31" yMin="-12" xMax="515" yMax="715">
      <contour>
        <pt x="240" y="648" on="1"/>
        <pt x="222" y="648" on="0"/>
        <pt x="196" y="636" on="0"/>
        <pt x="196" y="627" on="1"/>
        <pt x="184" y="585" on="0"/>
        <pt x="184" y="168" on="0"/>
        <pt x="183" y="143" on="1"/>
        <pt x="202" y="113" on="0"/>
        <pt x="242" y="113" on="1"/>
        <pt x="313" y="113" on="0"/>
        <pt x="385" y="270" on="0"/>
        <pt x="385" y="507" on="0"/>
        <pt x="315" y="648" on="0"/>
      </contour>
      <contour>
        <pt x="49" y="-11" on="1"/>
        <pt x="34" y="-9" on="0"/>
        <pt x="34" y="-2" on="1"/>
        <pt x="37" y="10" on="1"/>
        <pt x="62" y="64" on="0"/>
        <pt x="62" y="399" on="1"/>
        <pt x="62" y="559" on="0"/>
        <pt x="45" y="639" on="0"/>
        <pt x="40" y="650" on="1"/>
        <pt x="35" y="660" on="1"/>
        <pt x="31" y="664" on="0"/>
        <pt x="31" y="679" on="0"/>
        <pt x="43" y="684" on="1"/>
        <pt x="121" y="715" on="0"/>
        <pt x="248" y="715" on="1"/>
        <pt x="515" y="715" on="0"/>
        <pt x="515" y="375" on="1"/>
        <pt x="515" y="242" on="0"/>
        <pt x="468" y="132" on="1"/>
        <pt x="449" y="90" on="0"/>
        <pt x="399" y="29" on="0"/>
        <pt x="318" y="-12" on="0"/>
        <pt x="269" y="-12" on="1"/>
        <pt x="259" y="-11" on="0"/>
        <pt x="228" y="-7" on="0"/>
        <pt x="167" y="19" on="0"/>
        <pt x="156" y="40" on="1"/>
        <pt x="119" y="-11" on="0"/>
      </contour>
    </TTGlyph>
    <TTGlyph name="E" xMin="-16" yMin="-14" xMax="464" yMax="718">
      <contour>
        <pt x="464" y="124" on="1"/>
        <pt x="464" y="54" on="0"/>
        <pt x="375" y="-14" on="0"/>
        <pt x="295" y="-14" on="1"/>
        <pt x="167" y="-14" on="0"/>
        <pt x="46" y="156" on="0"/>
        <pt x="46" y="293" on="1"/>
        <pt x="46" y="315" on="0"/>
        <pt x="48" y="357" on="1"/>
        <pt x="-8" y="357" on="1"/>
        <pt x="-16" y="357" on="0"/>
        <pt x="-16" y="363" on="1"/>
        <pt x="-16" y="380" on="0"/>
        <pt x="18" y="428" on="0"/>
        <pt x="38" y="428" on="1"/>
        <pt x="57" y="428" on="1"/>
        <pt x="70" y="500" on="0"/>
        <pt x="129" y="610" on="0"/>
        <pt x="194" y="670" on="0"/>
        <pt x="233" y="688" on="1"/>
        <pt x="295" y="718" on="0"/>
        <pt x="431" y="718" on="0"/>
        <pt x="448" y="696" on="1"/>
        <pt x="456" y="685" on="0"/>
        <pt x="456" y="626" on="0"/>
        <pt x="449" y="626" on="1"/>
        <pt x="448" y="626" on="0"/>
        <pt x="440" y="630" on="1"/>
        <pt x="414" y="642" on="0"/>
        <pt x="375" y="642" on="1"/>
        <pt x="290" y="642" on="0"/>
        <pt x="195" y="522" on="0"/>
        <pt x="179" y="428" on="1"/>
        <pt x="255" y="429" on="0"/>
        <pt x="385" y="429" on="1"/>
        <pt x="395" y="429" on="0"/>
        <pt x="395" y="422" on="1"/>
        <pt x="395" y="406" on="0"/>
        <pt x="363" y="357" on="0"/>
        <pt x="343" y="357" on="1"/>
        <pt x="171" y="357" on="1"/>
        <pt x="170" y="345" on="0"/>
        <pt x="170" y="264" on="0"/>
        <pt x="199" y="175" on="0"/>
        <pt x="278" y="113" on="0"/>
        <pt x="404" y="113" on="0"/>
        <pt x="447" y="141" on="1"/>
        <pt x="452" y="145" on="0"/>
        <pt x="456" y="145" on="1"/>
        <pt x="464" y="145" on="0"/>
      </contour>
    </TTGlyph>
    <TTGlyph name="Eacute" xMin="-16" yMin="-14" xMax="464" yMax="877">
      <contour>
        <pt x="299" y="751" on="1"/>
        <pt x="294" y="747" on="0"/>
        <pt x="289" y="747" on="1"/>
        <pt x="281" y="747" on="0"/>
        <pt x="281" y="756" on="1"/>
        <pt x="283" y="764" on="1"/>
        <pt x="310" y="818" on="0"/>
        <pt x="355" y="872" on="1"/>
        <pt x="359" y="877" on="0"/>
        <pt x="376" y="877" on="0"/>
        <pt x="416" y="848" on="0"/>
        <pt x="416" y="827" on="0"/>
        <pt x="407" y="821" on="1"/>
        <pt x="365" y="787" on="0"/>
      </contour>
      <contour>
        <pt x="464" y="124" on="1"/>
        <pt x="464" y="54" on="0"/>
        <pt x="375" y="-14" on="0"/>
        <pt x="295" y="-14" on="1"/>
        <pt x="167" y="-14" on="0"/>
        <pt x="46" y="156" on="0"/>
        <pt x="46" y="293" on="1"/>
        <pt x="46" y="315" on="0"/>
        <pt x="48" y="357" on="1"/>
        <pt x="-8" y="357" on="1"/>
        <pt x="-16" y="357" on="0"/>
        <pt x="-16" y="363" on="1"/>
        <pt x="-16" y="380" on="0"/>
        <pt x="18" y="428" on="0"/>
        <pt x="38" y="428" on="1"/>
        <pt x="57" y="428" on="1"/>
        <pt x="70" y="500" on="0"/>
        <pt x="129" y="610" on="0"/>
        <pt x="194" y="670" on="0"/>
        <pt x="233" y="688" on="1"/>
        <pt x="295" y="718" on="0"/>
        <pt x="431" y="718" on="0"/>
        <pt x="448" y="696" on="1"/>
        <pt x="456" y="685" on="0"/>
        <pt x="456" y="626" on="0"/>
        <pt x="449" y="626" on="1"/>
        <pt x="448" y="626" on="0"/>
        <pt x="440" y="630" on="1"/>
        <pt x="414" y="642" on="0"/>
        <pt x="375" y="642" on="1"/>
        <pt x="290" y="642" on="0"/>
        <pt x="195" y="522" on="0"/>
        <pt x="179" y="428" on="1"/>
        <pt x="255" y="429" on="0"/>
        <pt x="385" y="429" on="1"/>
        <pt x="395" y="429" on="0"/>
        <pt x="395" y="422" on="1"/>
        <pt x="395" y="406" on="0"/>
        <pt x="363" y="357" on="0"/>
        <pt x="343" y="357" on="1"/>
        <pt x="171" y="357" on="1"/>
        <pt x="170" y="345" on="0"/>
        <pt x="170" y="264" on="0"/>
        <pt x="199" y="175" on="0"/>
        <pt x="278" y="113" on="0"/>
        <pt x="404" y="113" on="0"/>
        <pt x="447" y="141" on="1"/>
        <pt x="452" y="145" on="0"/>
        <pt x="456" y="145" on="1"/>
        <pt x="464" y="145" on="0"/>
      </contour>
    </TTGlyph>
    <TTGlyph name="Ecircumflex" xMin="-16" yMin="-14" xMax="464" yMax="868">
      <contour>
        <pt x="434" y="754" on="1"/>
        <pt x="434" y="745" on="0"/>
        <pt x="418" y="745" on="0"/>
        <pt x="324" y="808" on="1"/>
        <pt x="231" y="745" on="0"/>
        <pt x="213" y="745" on="0"/>
        <pt x="213" y="753" on="1"/>
        <pt x="215" y="761" on="1"/>
        <pt x="248" y="824" on="0"/>
        <pt x="284" y="863" on="1"/>
        <pt x="288" y="868" on="0"/>
        <pt x="306" y="868" on="0"/>
        <pt x="324" y="854" on="1"/>
        <pt x="342" y="868" on="0"/>
        <pt x="352" y="868" on="1"/>
        <pt x="364" y="863" on="1"/>
        <pt x="394" y="833" on="0"/>
        <pt x="423" y="780" on="1"/>
        <pt x="433" y="761" on="1"/>
        <pt x="434" y="758" on="0"/>
      </contour>
      <contour>
        <pt x="464" y="124" on="1"/>
        <pt x="464" y="54" on="0"/>
        <pt x="375" y="-14" on="0"/>
        <pt x="295" y="-14" on="1"/>
        <pt x="167" y="-14" on="0"/>
        <pt x="46" y="156" on="0"/>
        <pt x="46" y="293" on="1"/>
        <pt x="46" y="315" on="0"/>
        <pt x="48" y="357" on="1"/>
        <pt x="-8" y="357" on="1"/>
        <pt x="-16" y="357" on="0"/>
        <pt x="-16" y="363" on="1"/>
        <pt x="-16" y="380" on="0"/>
        <pt x="18" y="428" on="0"/>
        <pt x="38" y="428" on="1"/>
        <pt x="57" y="428" on="1"/>
        <pt x="70" y="500" on="0"/>
        <pt x="129" y="610" on="0"/>
        <pt x="194" y="670" on="0"/>
        <pt x="233" y="688" on="1"/>
        <pt x="295" y="718" on="0"/>
        <pt x="431" y="718" on="0"/>
        <pt x="448" y="696" on="1"/>
        <pt x="456" y="685" on="0"/>
        <pt x="456" y="626" on="0"/>
        <pt x="449" y="626" on="1"/>
        <pt x="448" y="626" on="0"/>
        <pt x="440" y="630" on="1"/>
        <pt x="414" y="642" on="0"/>
        <pt x="375" y="642" on="1"/>
        <pt x="290" y="642" on="0"/>
        <pt x="195" y="522" on="0"/>
        <pt x="179" y="428" on="1"/>
        <pt x="255" y="429" on="0"/>
        <pt x="385" y="429" on="1"/>
        <pt x="395" y="429" on="0"/>
        <pt x="395" y="422" on="1"/>
        <pt x="395" y="406" on="0"/>
        <pt x="363" y="357" on="0"/>
        <pt x="343" y="357" on="1"/>
        <pt x="171" y="357" on="1"/>
        <pt x="170" y="345" on="0"/>
        <pt x="170" y="264" on="0"/>
        <pt x="199" y="175" on="0"/>
        <pt x="278" y="113" on="0"/>
        <pt x="404" y="113" on="0"/>
        <pt x="447" y="141" on="1"/>
        <pt x="452" y="145" on="0"/>
        <pt x="456" y="145" on="1"/>
        <pt x="464" y="145" on="0"/>
      </contour>
    </TTGlyph>
    <TTGlyph name="Edieresis" xMin="-16" yMin="-14" xMax="464" yMax="844">
      <contour>
        <pt x="390" y="764" on="1"/>
        <pt x="369" y="763" on="1"/>
        <pt x="350" y="763" on="0"/>
        <pt x="336" y="780" on="0"/>
        <pt x="336" y="826" on="0"/>
        <pt x="356" y="844" on="0"/>
        <pt x="410" y="844" on="0"/>
        <pt x="431" y="823" on="0"/>
        <pt x="431" y="803" on="1"/>
        <pt x="431" y="751" on="0"/>
        <pt x="421" y="751" on="1"/>
        <pt x="417" y="754" on="1"/>
        <pt x="411" y="764" on="0"/>
      </contour>
      <contour>
        <pt x="215" y="764" on="1"/>
        <pt x="194" y="763" on="1"/>
        <pt x="175" y="763" on="0"/>
        <pt x="161" y="780" on="0"/>
        <pt x="161" y="826" on="0"/>
        <pt x="181" y="844" on="0"/>
        <pt x="235" y="844" on="0"/>
        <pt x="256" y="823" on="0"/>
        <pt x="256" y="803" on="1"/>
        <pt x="256" y="768" on="0"/>
        <pt x="248" y="751" on="0"/>
        <pt x="246" y="751" on="1"/>
        <pt x="242" y="754" on="1"/>
        <pt x="236" y="764" on="0"/>
      </contour>
      <contour>
        <pt x="464" y="124" on="1"/>
        <pt x="464" y="54" on="0"/>
        <pt x="375" y="-14" on="0"/>
        <pt x="295" y="-14" on="1"/>
        <pt x="167" y="-14" on="0"/>
        <pt x="46" y="156" on="0"/>
        <pt x="46" y="293" on="1"/>
        <pt x="46" y="315" on="0"/>
        <pt x="48" y="357" on="1"/>
        <pt x="-8" y="357" on="1"/>
        <pt x="-16" y="357" on="0"/>
        <pt x="-16" y="363" on="1"/>
        <pt x="-16" y="380" on="0"/>
        <pt x="18" y="428" on="0"/>
        <pt x="38" y="428" on="1"/>
        <pt x="57" y="428" on="1"/>
        <pt x="70" y="500" on="0"/>
        <pt x="129" y="610" on="0"/>
        <pt x="194" y="670" on="0"/>
        <pt x="233" y="688" on="1"/>
        <pt x="295" y="718" on="0"/>
        <pt x="431" y="718" on="0"/>
        <pt x="448" y="696" on="1"/>
        <pt x="456" y="685" on="0"/>
        <pt x="456" y="626" on="0"/>
        <pt x="449" y="626" on="1"/>
        <pt x="448" y="626" on="0"/>
        <pt x="440" y="630" on="1"/>
        <pt x="414" y="642" on="0"/>
        <pt x="375" y="642" on="1"/>
        <pt x="290" y="642" on="0"/>
        <pt x="195" y="522" on="0"/>
        <pt x="179" y="428" on="1"/>
        <pt x="255" y="429" on="0"/>
        <pt x="385" y="429" on="1"/>
        <pt x="395" y="429" on="0"/>
        <pt x="395" y="422" on="1"/>
        <pt x="395" y="406" on="0"/>
        <pt x="363" y="357" on="0"/>
        <pt x="343" y="357" on="1"/>
        <pt x="171" y="357" on="1"/>
        <pt x="170" y="345" on="0"/>
        <pt x="170" y="264" on="0"/>
        <pt x="199" y="175" on="0"/>
        <pt x="278" y="113" on="0"/>
        <pt x="404" y="113" on="0"/>
        <pt x="447" y="141" on="1"/>
        <pt x="452" y="145" on="0"/>
        <pt x="456" y="145" on="1"/>
        <pt x="464" y="145" on="0"/>
      </contour>
    </TTGlyph>
    <TTGlyph name="Egrave" xMin="-16" yMin="-14" xMax="464" yMax="880">
      <contour>
        <pt x="382" y="756" on="0"/>
        <pt x="377" y="750" on="0"/>
        <pt x="368" y="750" on="0"/>
        <pt x="276" y="809" on="0"/>
        <pt x="248" y="830" on="0"/>
        <pt x="248" y="851" on="0"/>
        <pt x="287" y="880" on="0"/>
        <pt x="296" y="880" on="1"/>
        <pt x="308" y="875" on="1"/>
        <pt x="322" y="860" on="0"/>
        <pt x="382" y="769" on="0"/>
      </contour>
      <contour>
        <pt x="464" y="124" on="1"/>
        <pt x="464" y="54" on="0"/>
        <pt x="375" y="-14" on="0"/>
        <pt x="295" y="-14" on="1"/>
        <pt x="167" y="-14" on="0"/>
        <pt x="46" y="156" on="0"/>
        <pt x="46" y="293" on="1"/>
        <pt x="46" y="315" on="0"/>
        <pt x="48" y="357" on="1"/>
        <pt x="-8" y="357" on="1"/>
        <pt x="-16" y="357" on="0"/>
        <pt x="-16" y="363" on="1"/>
        <pt x="-16" y="380" on="0"/>
        <pt x="18" y="428" on="0"/>
        <pt x="38" y="428" on="1"/>
        <pt x="57" y="428" on="1"/>
        <pt x="70" y="500" on="0"/>
        <pt x="129" y="610" on="0"/>
        <pt x="194" y="670" on="0"/>
        <pt x="233" y="688" on="1"/>
        <pt x="295" y="718" on="0"/>
        <pt x="431" y="718" on="0"/>
        <pt x="448" y="696" on="1"/>
        <pt x="456" y="685" on="0"/>
        <pt x="456" y="626" on="0"/>
        <pt x="449" y="626" on="1"/>
        <pt x="448" y="626" on="0"/>
        <pt x="440" y="630" on="1"/>
        <pt x="414" y="642" on="0"/>
        <pt x="375" y="642" on="1"/>
        <pt x="290" y="642" on="0"/>
        <pt x="195" y="522" on="0"/>
        <pt x="179" y="428" on="1"/>
        <pt x="255" y="429" on="0"/>
        <pt x="385" y="429" on="1"/>
        <pt x="395" y="429" on="0"/>
        <pt x="395" y="422" on="1"/>
        <pt x="395" y="406" on="0"/>
        <pt x="363" y="357" on="0"/>
        <pt x="343" y="357" on="1"/>
        <pt x="171" y="357" on="1"/>
        <pt x="170" y="345" on="0"/>
        <pt x="170" y="264" on="0"/>
        <pt x="199" y="175" on="0"/>
        <pt x="278" y="113" on="0"/>
        <pt x="404" y="113" on="0"/>
        <pt x="447" y="141" on="1"/>
        <pt x="452" y="145" on="0"/>
        <pt x="456" y="145" on="1"/>
        <pt x="464" y="145" on="0"/>
      </contour>
    </TTGlyph>
    <TTGlyph name="Eth" xMin="-20" yMin="-12" xMax="515" yMax="715">
      <contour>
        <pt x="184" y="246" on="1"/>
        <pt x="183" y="143" on="1"/>
        <pt x="202" y="113" on="0"/>
        <pt x="275" y="113" on="0"/>
        <pt x="327" y="148" on="0"/>
        <pt x="356" y="209" on="0"/>
        <pt x="376" y="269" on="0"/>
        <pt x="380" y="305" on="1"/>
        <pt x="385" y="362" on="0"/>
        <pt x="385" y="456" on="0"/>
        <pt x="363" y="554" on="0"/>
        <pt x="332" y="607" on="0"/>
        <pt x="311" y="623" on="1"/>
        <pt x="278" y="648" on="0"/>
        <pt x="240" y="648" on="1"/>
        <pt x="222" y="648" on="0"/>
        <pt x="196" y="636" on="0"/>
        <pt x="196" y="627" on="1"/>
        <pt x="184" y="585" on="0"/>
        <pt x="184" y="436" on="1"/>
        <pt x="184" y="383" on="1"/>
        <pt x="207" y="384" on="0"/>
        <pt x="279" y="384" on="1"/>
        <pt x="292" y="384" on="0"/>
        <pt x="292" y="373" on="1"/>
        <pt x="292" y="323" on="0"/>
        <pt x="256" y="323" on="1"/>
        <pt x="184" y="323" on="1"/>
      </contour>
      <contour>
        <pt x="19" y="381" on="1"/>
        <pt x="62" y="381" on="1"/>
        <pt x="62" y="399" on="1"/>
        <pt x="62" y="559" on="0"/>
        <pt x="45" y="639" on="0"/>
        <pt x="40" y="650" on="1"/>
        <pt x="35" y="660" on="1"/>
        <pt x="31" y="664" on="0"/>
        <pt x="31" y="679" on="0"/>
        <pt x="43" y="684" on="1"/>
        <pt x="121" y="715" on="0"/>
        <pt x="248" y="715" on="1"/>
        <pt x="515" y="715" on="0"/>
        <pt x="515" y="375" on="1"/>
        <pt x="515" y="242" on="0"/>
        <pt x="468" y="132" on="1"/>
        <pt x="449" y="90" on="0"/>
        <pt x="399" y="29" on="0"/>
        <pt x="318" y="-12" on="0"/>
        <pt x="269" y="-12" on="1"/>
        <pt x="238" y="-12" on="0"/>
        <pt x="172" y="15" on="0"/>
        <pt x="160" y="35" on="1"/>
        <pt x="158" y="38" on="0"/>
        <pt x="157" y="38" on="1"/>
        <pt x="153" y="34" on="1"/>
        <pt x="118" y="-11" on="0"/>
        <pt x="49" y="-11" on="1"/>
        <pt x="34" y="-9" on="0"/>
        <pt x="34" y="-2" on="1"/>
        <pt x="37" y="10" on="1"/>
        <pt x="59" y="56" on="0"/>
        <pt x="61" y="323" on="1"/>
        <pt x="-7" y="323" on="1"/>
        <pt x="-20" y="323" on="0"/>
        <pt x="-20" y="342" on="1"/>
        <pt x="-20" y="381" on="0"/>
      </contour>
    </TTGlyph>
    <TTGlyph name="Euro" xMin="6" yMin="-19" xMax="488" yMax="713">
      <contour>
        <pt x="56" y="330" on="1"/>
        <pt x="70" y="330" on="1"/>
        <pt x="71" y="362" on="0"/>
        <pt x="76" y="394" on="1"/>
        <pt x="16" y="394" on="1"/>
        <pt x="7" y="394" on="0"/>
        <pt x="7" y="412" on="0"/>
        <pt x="39" y="452" on="0"/>
        <pt x="57" y="452" on="1"/>
        <pt x="87" y="452" on="1"/>
        <pt x="116" y="570" on="0"/>
        <pt x="262" y="713" on="0"/>
        <pt x="382" y="713" on="1"/>
        <pt x="434" y="713" on="0"/>
        <pt x="480" y="689" on="0"/>
        <pt x="480" y="621" on="0"/>
        <pt x="472" y="621" on="1"/>
        <pt x="470" y="621" on="0"/>
        <pt x="468" y="622" on="1"/>
        <pt x="442" y="637" on="0"/>
        <pt x="396" y="637" on="1"/>
        <pt x="321" y="637" on="0"/>
        <pt x="230" y="534" on="0"/>
        <pt x="210" y="452" on="1"/>
        <pt x="409" y="452" on="1"/>
        <pt x="419" y="452" on="0"/>
        <pt x="419" y="444" on="1"/>
        <pt x="419" y="425" on="0"/>
        <pt x="388" y="396" on="0"/>
        <pt x="368" y="396" on="1"/>
        <pt x="264" y="396" on="0"/>
        <pt x="199" y="395" on="1"/>
        <pt x="194" y="358" on="0"/>
        <pt x="194" y="330" on="1"/>
        <pt x="408" y="330" on="1"/>
        <pt x="418" y="330" on="0"/>
        <pt x="418" y="322" on="1"/>
        <pt x="418" y="303" on="0"/>
        <pt x="387" y="274" on="0"/>
        <pt x="367" y="274" on="1"/>
        <pt x="262" y="274" on="0"/>
        <pt x="196" y="273" on="1"/>
        <pt x="202" y="207" on="0"/>
        <pt x="234" y="154" on="1"/>
        <pt x="271" y="91" on="0"/>
        <pt x="360" y="91" on="1"/>
        <pt x="423" y="91" on="0"/>
        <pt x="471" y="119" on="1"/>
        <pt x="476" y="123" on="0"/>
        <pt x="480" y="123" on="1"/>
        <pt x="488" y="123" on="0"/>
        <pt x="488" y="105" on="1"/>
        <pt x="488" y="43" on="0"/>
        <pt x="387" y="-19" on="0"/>
        <pt x="319" y="-19" on="1"/>
        <pt x="195" y="-19" on="0"/>
        <pt x="73" y="142" on="0"/>
        <pt x="69" y="272" on="1"/>
        <pt x="15" y="272" on="1"/>
        <pt x="6" y="272" on="0"/>
        <pt x="6" y="290" on="0"/>
        <pt x="38" y="330" on="0"/>
      </contour>
    </TTGlyph>
    <TTGlyph name="F" xMin="3" yMin="-25" xMax="430" yMax="710">
      <contour>
        <pt x="72" y="180" on="1"/>
        <pt x="78" y="357" on="1"/>
        <pt x="11" y="357" on="1"/>
        <pt x="3" y="357" on="0"/>
        <pt x="3" y="363" on="1"/>
        <pt x="3" y="381" on="0"/>
        <pt x="37" y="428" on="0"/>
        <pt x="57" y="428" on="1"/>
        <pt x="78" y="428" on="1"/>
        <pt x="76" y="506" on="0"/>
        <pt x="74" y="540" on="1"/>
        <pt x="70" y="601" on="0"/>
        <pt x="54" y="634" on="1"/>
        <pt x="49" y="644" on="1"/>
        <pt x="45" y="649" on="0"/>
        <pt x="45" y="663" on="0"/>
        <pt x="67" y="673" on="0"/>
        <pt x="110" y="687" on="0"/>
        <pt x="250" y="710" on="0"/>
        <pt x="415" y="710" on="0"/>
        <pt x="430" y="686" on="0"/>
        <pt x="430" y="635" on="0"/>
        <pt x="423" y="635" on="1"/>
        <pt x="422" y="635" on="0"/>
        <pt x="416" y="636" on="1"/>
        <pt x="400" y="640" on="0"/>
        <pt x="334" y="640" on="0"/>
        <pt x="258" y="628" on="0"/>
        <pt x="238" y="622" on="1"/>
        <pt x="219" y="615" on="1"/>
        <pt x="211" y="613" on="0"/>
        <pt x="207" y="601" on="1"/>
        <pt x="199" y="542" on="0"/>
        <pt x="199" y="428" on="1"/>
        <pt x="361" y="428" on="1"/>
        <pt x="370" y="428" on="0"/>
        <pt x="370" y="422" on="1"/>
        <pt x="370" y="404" on="0"/>
        <pt x="338" y="356" on="0"/>
        <pt x="318" y="356" on="1"/>
        <pt x="199" y="357" on="1"/>
        <pt x="206" y="57" on="1"/>
        <pt x="206" y="35" on="0"/>
        <pt x="199" y="25" on="1"/>
        <pt x="180" y="0" on="0"/>
        <pt x="89" y="-25" on="0"/>
        <pt x="59" y="-25" on="1"/>
        <pt x="51" y="-25" on="0"/>
        <pt x="51" y="-15" on="1"/>
        <pt x="51" y="-10" on="0"/>
        <pt x="52" y="-7" on="1"/>
        <pt x="64" y="10" on="0"/>
      </contour>
    </TTGlyph>
    <TTGlyph name="G" xMin="27" yMin="-18" xMax="513" yMax="717">
      <contour>
        <pt x="377" y="294" on="1"/>
        <pt x="377" y="317" on="0"/>
        <pt x="349" y="319" on="1"/>
        <pt x="278" y="319" on="1"/>
        <pt x="270" y="319" on="0"/>
        <pt x="270" y="324" on="1"/>
        <pt x="276" y="353" on="0"/>
        <pt x="306" y="388" on="0"/>
        <pt x="316" y="390" on="1"/>
        <pt x="344" y="394" on="0"/>
        <pt x="472" y="394" on="0"/>
        <pt x="504" y="393" on="0"/>
        <pt x="508" y="390" on="1"/>
        <pt x="512" y="385" on="0"/>
        <pt x="512" y="372" on="0"/>
        <pt x="505" y="219" on="0"/>
        <pt x="505" y="98" on="0"/>
        <pt x="513" y="67" on="0"/>
        <pt x="513" y="63" on="1"/>
        <pt x="513" y="47" on="0"/>
        <pt x="457" y="10" on="0"/>
        <pt x="344" y="-18" on="0"/>
        <pt x="276" y="-18" on="1"/>
        <pt x="185" y="-18" on="0"/>
        <pt x="118" y="45" on="1"/>
        <pt x="66" y="95" on="0"/>
        <pt x="27" y="213" on="0"/>
        <pt x="27" y="320" on="1"/>
        <pt x="27" y="717" on="0"/>
        <pt x="318" y="717" on="1"/>
        <pt x="367" y="717" on="0"/>
        <pt x="445" y="696" on="0"/>
        <pt x="504" y="635" on="0"/>
        <pt x="504" y="587" on="1"/>
        <pt x="504" y="562" on="0"/>
        <pt x="494" y="536" on="1"/>
        <pt x="476" y="483" on="0"/>
        <pt x="414" y="483" on="1"/>
        <pt x="380" y="483" on="0"/>
        <pt x="345" y="518" on="0"/>
        <pt x="345" y="549" on="1"/>
        <pt x="345" y="561" on="0"/>
        <pt x="358" y="564" on="1"/>
        <pt x="377" y="575" on="0"/>
        <pt x="377" y="628" on="0"/>
        <pt x="337" y="657" on="0"/>
        <pt x="315" y="657" on="1"/>
        <pt x="267" y="657" on="0"/>
        <pt x="201" y="588" on="0"/>
        <pt x="186" y="532" on="1"/>
        <pt x="161" y="432" on="0"/>
        <pt x="161" y="328" on="1"/>
        <pt x="161" y="158" on="0"/>
        <pt x="244" y="102" on="1"/>
        <pt x="275" y="80" on="0"/>
        <pt x="309" y="80" on="1"/>
        <pt x="372" y="80" on="0"/>
        <pt x="376" y="103" on="1"/>
        <pt x="379" y="134" on="0"/>
        <pt x="379" y="199" on="1"/>
      </contour>
    </TTGlyph>
    <TTGlyph name="H" xMin="15" yMin="-18" xMax="522" yMax="716">
      <contour>
        <pt x="198" y="443" on="1"/>
        <pt x="198" y="429" on="1"/>
        <pt x="375" y="429" on="1"/>
        <pt x="375" y="431" on="1"/>
        <pt x="376" y="455" on="0"/>
        <pt x="376" y="528" on="0"/>
        <pt x="374" y="583" on="0"/>
        <pt x="372" y="621" on="0"/>
        <pt x="369" y="649" on="0"/>
        <pt x="367" y="664" on="0"/>
        <pt x="367" y="676" on="0"/>
        <pt x="378" y="684" on="1"/>
        <pt x="426" y="716" on="0"/>
        <pt x="485" y="716" on="1"/>
        <pt x="522" y="716" on="0"/>
        <pt x="522" y="703" on="1"/>
        <pt x="522" y="702" on="0"/>
        <pt x="520" y="692" on="1"/>
        <pt x="501" y="597" on="0"/>
        <pt x="496" y="429" on="1"/>
        <pt x="493" y="261" on="0"/>
        <pt x="493" y="249" on="1"/>
        <pt x="493" y="94" on="0"/>
        <pt x="511" y="34" on="1"/>
        <pt x="514" y="26" on="0"/>
        <pt x="514" y="15" on="0"/>
        <pt x="506" y="8" on="1"/>
        <pt x="469" y="-16" on="0"/>
        <pt x="410" y="-16" on="1"/>
        <pt x="372" y="-16" on="0"/>
        <pt x="367" y="10" on="1"/>
        <pt x="364" y="24" on="0"/>
        <pt x="364" y="83" on="0"/>
        <pt x="371" y="205" on="0"/>
        <pt x="373" y="357" on="1"/>
        <pt x="198" y="357" on="1"/>
        <pt x="198" y="129" on="0"/>
        <pt x="212" y="37" on="1"/>
        <pt x="212" y="13" on="0"/>
        <pt x="120" y="-18" on="0"/>
        <pt x="60" y="-18" on="0"/>
        <pt x="60" y="-9" on="1"/>
        <pt x="60" y="-3" on="0"/>
        <pt x="63" y="6" on="1"/>
        <pt x="82" y="48" on="0"/>
        <pt x="82" y="344" on="1"/>
        <pt x="82" y="357" on="1"/>
        <pt x="23" y="357" on="1"/>
        <pt x="15" y="357" on="0"/>
        <pt x="15" y="363" on="1"/>
        <pt x="15" y="365" on="0"/>
        <pt x="23" y="392" on="0"/>
        <pt x="52" y="428" on="0"/>
        <pt x="70" y="428" on="1"/>
        <pt x="81" y="428" on="1"/>
        <pt x="81" y="625" on="0"/>
        <pt x="58" y="655" on="1"/>
        <pt x="54" y="661" on="1"/>
        <pt x="48" y="666" on="0"/>
        <pt x="48" y="681" on="0"/>
        <pt x="59" y="686" on="1"/>
        <pt x="74" y="695" on="0"/>
        <pt x="151" y="713" on="0"/>
        <pt x="213" y="713" on="0"/>
        <pt x="213" y="699" on="1"/>
        <pt x="213" y="696" on="1"/>
        <pt x="201" y="592" on="0"/>
      </contour>
    </TTGlyph>
    <TTGlyph name="I" xMin="40" yMin="-18" xMax="205" yMax="713">
      <contour>
        <pt x="190" y="443" on="1"/>
        <pt x="190" y="133" on="0"/>
        <pt x="204" y="37" on="1"/>
        <pt x="204" y="13" on="0"/>
        <pt x="112" y="-18" on="0"/>
        <pt x="52" y="-18" on="0"/>
        <pt x="52" y="-9" on="1"/>
        <pt x="52" y="-3" on="0"/>
        <pt x="55" y="6" on="1"/>
        <pt x="74" y="48" on="0"/>
        <pt x="74" y="344" on="1"/>
        <pt x="74" y="624" on="0"/>
        <pt x="50" y="655" on="1"/>
        <pt x="46" y="661" on="1"/>
        <pt x="40" y="666" on="0"/>
        <pt x="40" y="681" on="0"/>
        <pt x="51" y="686" on="1"/>
        <pt x="66" y="695" on="0"/>
        <pt x="143" y="713" on="0"/>
        <pt x="205" y="713" on="0"/>
        <pt x="205" y="699" on="1"/>
        <pt x="205" y="696" on="1"/>
        <pt x="193" y="592" on="0"/>
      </contour>
    </TTGlyph>
    <TTGlyph name="Iacute" xMin="40" yMin="-18" xMax="219" yMax="866">
      <contour>
        <pt x="102" y="740" on="1"/>
        <pt x="97" y="736" on="0"/>
        <pt x="92" y="736" on="1"/>
        <pt x="84" y="736" on="0"/>
        <pt x="84" y="745" on="1"/>
        <pt x="86" y="753" on="1"/>
        <pt x="113" y="807" on="0"/>
        <pt x="158" y="861" on="1"/>
        <pt x="162" y="866" on="0"/>
        <pt x="179" y="866" on="0"/>
        <pt x="219" y="837" on="0"/>
        <pt x="219" y="816" on="0"/>
        <pt x="210" y="810" on="1"/>
        <pt x="168" y="776" on="0"/>
      </contour>
      <contour>
        <pt x="190" y="443" on="1"/>
        <pt x="190" y="133" on="0"/>
        <pt x="204" y="37" on="1"/>
        <pt x="204" y="13" on="0"/>
        <pt x="112" y="-18" on="0"/>
        <pt x="52" y="-18" on="0"/>
        <pt x="52" y="-9" on="1"/>
        <pt x="52" y="-3" on="0"/>
        <pt x="55" y="6" on="1"/>
        <pt x="74" y="48" on="0"/>
        <pt x="74" y="344" on="1"/>
        <pt x="74" y="624" on="0"/>
        <pt x="50" y="655" on="1"/>
        <pt x="46" y="661" on="1"/>
        <pt x="40" y="666" on="0"/>
        <pt x="40" y="681" on="0"/>
        <pt x="51" y="686" on="1"/>
        <pt x="66" y="695" on="0"/>
        <pt x="143" y="713" on="0"/>
        <pt x="205" y="713" on="0"/>
        <pt x="205" y="699" on="1"/>
        <pt x="205" y="696" on="1"/>
        <pt x="193" y="592" on="0"/>
      </contour>
    </TTGlyph>
    <TTGlyph name="Icircumflex" xMin="20" yMin="-18" xMax="241" yMax="857">
      <contour>
        <pt x="241" y="743" on="1"/>
        <pt x="241" y="734" on="0"/>
        <pt x="225" y="734" on="0"/>
        <pt x="131" y="797" on="1"/>
        <pt x="38" y="734" on="0"/>
        <pt x="20" y="734" on="0"/>
        <pt x="20" y="742" on="1"/>
        <pt x="22" y="750" on="1"/>
        <pt x="55" y="813" on="0"/>
        <pt x="91" y="852" on="1"/>
        <pt x="95" y="857" on="0"/>
        <pt x="114" y="857" on="0"/>
        <pt x="131" y="843" on="1"/>
        <pt x="148" y="857" on="0"/>
        <pt x="159" y="857" on="1"/>
        <pt x="171" y="852" on="1"/>
        <pt x="201" y="822" on="0"/>
        <pt x="230" y="768" on="1"/>
        <pt x="240" y="750" on="1"/>
        <pt x="241" y="747" on="0"/>
      </contour>
      <contour>
        <pt x="190" y="443" on="1"/>
        <pt x="190" y="133" on="0"/>
        <pt x="204" y="37" on="1"/>
        <pt x="204" y="13" on="0"/>
        <pt x="112" y="-18" on="0"/>
        <pt x="52" y="-18" on="0"/>
        <pt x="52" y="-9" on="1"/>
        <pt x="52" y="-3" on="0"/>
        <pt x="55" y="6" on="1"/>
        <pt x="74" y="48" on="0"/>
        <pt x="74" y="344" on="1"/>
        <pt x="74" y="624" on="0"/>
        <pt x="50" y="655" on="1"/>
        <pt x="46" y="661" on="1"/>
        <pt x="40" y="666" on="0"/>
        <pt x="40" y="681" on="0"/>
        <pt x="51" y="686" on="1"/>
        <pt x="66" y="695" on="0"/>
        <pt x="143" y="713" on="0"/>
        <pt x="205" y="713" on="0"/>
        <pt x="205" y="699" on="1"/>
        <pt x="205" y="696" on="1"/>
        <pt x="193" y="592" on="0"/>
      </contour>
    </TTGlyph>
    <TTGlyph name="Idieresis" xMin="-8" yMin="-18" xMax="262" yMax="836">
      <contour>
        <pt x="221" y="756" on="1"/>
        <pt x="200" y="755" on="1"/>
        <pt x="181" y="755" on="0"/>
        <pt x="167" y="772" on="0"/>
        <pt x="167" y="818" on="0"/>
        <pt x="187" y="836" on="0"/>
        <pt x="241" y="836" on="0"/>
        <pt x="262" y="815" on="0"/>
        <pt x="262" y="795" on="1"/>
        <pt x="262" y="760" on="0"/>
        <pt x="254" y="743" on="0"/>
        <pt x="252" y="743" on="1"/>
        <pt x="248" y="746" on="1"/>
        <pt x="242" y="756" on="0"/>
      </contour>
      <contour>
        <pt x="46" y="756" on="1"/>
        <pt x="25" y="755" on="1"/>
        <pt x="6" y="755" on="0"/>
        <pt x="-8" y="772" on="0"/>
        <pt x="-8" y="818" on="0"/>
        <pt x="12" y="836" on="0"/>
        <pt x="66" y="836" on="0"/>
        <pt x="87" y="815" on="0"/>
        <pt x="87" y="795" on="1"/>
        <pt x="87" y="743" on="0"/>
        <pt x="77" y="743" on="1"/>
        <pt x="73" y="746" on="1"/>
        <pt x="67" y="756" on="0"/>
      </contour>
      <contour>
        <pt x="190" y="443" on="1"/>
        <pt x="190" y="133" on="0"/>
        <pt x="204" y="37" on="1"/>
        <pt x="204" y="13" on="0"/>
        <pt x="112" y="-18" on="0"/>
        <pt x="52" y="-18" on="0"/>
        <pt x="52" y="-9" on="1"/>
        <pt x="52" y="-3" on="0"/>
        <pt x="55" y="6" on="1"/>
        <pt x="74" y="48" on="0"/>
        <pt x="74" y="344" on="1"/>
        <pt x="74" y="624" on="0"/>
        <pt x="50" y="655" on="1"/>
        <pt x="46" y="661" on="1"/>
        <pt x="40" y="666" on="0"/>
        <pt x="40" y="681" on="0"/>
        <pt x="51" y="686" on="1"/>
        <pt x="66" y="695" on="0"/>
        <pt x="143" y="713" on="0"/>
        <pt x="205" y="713" on="0"/>
        <pt x="205" y="699" on="1"/>
        <pt x="205" y="696" on="1"/>
        <pt x="193" y="592" on="0"/>
      </contour>
    </TTGlyph>
    <TTGlyph name="Igrave" xMin="40" yMin="-18" xMax="205" yMax="886">
      <contour>
        <pt x="202" y="762" on="0"/>
        <pt x="197" y="756" on="0"/>
        <pt x="188" y="756" on="0"/>
        <pt x="96" y="815" on="0"/>
        <pt x="68" y="836" on="0"/>
        <pt x="68" y="857" on="0"/>
        <pt x="107" y="886" on="0"/>
        <pt x="116" y="886" on="1"/>
        <pt x="128" y="881" on="1"/>
        <pt x="142" y="866" on="0"/>
        <pt x="202" y="775" on="0"/>
      </contour>
      <contour>
        <pt x="190" y="443" on="1"/>
        <pt x="190" y="133" on="0"/>
        <pt x="204" y="37" on="1"/>
        <pt x="204" y="13" on="0"/>
        <pt x="112" y="-18" on="0"/>
        <pt x="52" y="-18" on="0"/>
        <pt x="52" y="-9" on="1"/>
        <pt x="52" y="-3" on="0"/>
        <pt x="55" y="6" on="1"/>
        <pt x="74" y="48" on="0"/>
        <pt x="74" y="344" on="1"/>
        <pt x="74" y="624" on="0"/>
        <pt x="50" y="655" on="1"/>
        <pt x="46" y="661" on="1"/>
        <pt x="40" y="666" on="0"/>
        <pt x="40" y="681" on="0"/>
        <pt x="51" y="686" on="1"/>
        <pt x="66" y="695" on="0"/>
        <pt x="143" y="713" on="0"/>
        <pt x="205" y="713" on="0"/>
        <pt x="205" y="699" on="1"/>
        <pt x="205" y="696" on="1"/>
        <pt x="193" y="592" on="0"/>
      </contour>
    </TTGlyph>
    <TTGlyph name="J" xMin="-22" yMin="-145" xMax="208" yMax="713">
      <contour>
        <pt x="75" y="185" on="1"/>
        <pt x="77" y="387" on="1"/>
        <pt x="77" y="624" on="0"/>
        <pt x="54" y="655" on="1"/>
        <pt x="43" y="669" on="0"/>
        <pt x="43" y="680" on="0"/>
        <pt x="70" y="695" on="0"/>
        <pt x="148" y="713" on="0"/>
        <pt x="208" y="713" on="0"/>
        <pt x="208" y="699" on="1"/>
        <pt x="206" y="686" on="1"/>
        <pt x="194" y="578" on="0"/>
        <pt x="194" y="372" on="0"/>
        <pt x="206" y="118" on="0"/>
        <pt x="206" y="58" on="1"/>
        <pt x="206" y="-23" on="0"/>
        <pt x="81" y="-140" on="0"/>
        <pt x="-5" y="-145" on="1"/>
        <pt x="-22" y="-143" on="0"/>
        <pt x="-22" y="-133" on="1"/>
        <pt x="-22" y="-126" on="0"/>
        <pt x="-13" y="-118" on="0"/>
        <pt x="-1" y="-106" on="0"/>
        <pt x="31" y="-56" on="0"/>
        <pt x="55" y="7" on="0"/>
        <pt x="75" y="119" on="0"/>
      </contour>
    </TTGlyph>
    <TTGlyph name="K" xMin="23" yMin="-18" xMax="523" yMax="716">
      <contour>
        <pt x="332" y="645" on="0"/>
        <pt x="385" y="702" on="0"/>
        <pt x="419" y="716" on="0"/>
        <pt x="523" y="716" on="0"/>
        <pt x="523" y="703" on="1"/>
        <pt x="523" y="698" on="0"/>
        <pt x="501" y="686" on="0"/>
        <pt x="463" y="660" on="0"/>
        <pt x="342" y="544" on="0"/>
        <pt x="281" y="466" on="1"/>
        <pt x="279" y="464" on="0"/>
        <pt x="279" y="457" on="0"/>
        <pt x="290" y="455" on="0"/>
        <pt x="310" y="451" on="0"/>
        <pt x="363" y="424" on="0"/>
        <pt x="405" y="383" on="0"/>
        <pt x="444" y="298" on="0"/>
        <pt x="450" y="223" on="0"/>
        <pt x="456" y="163" on="0"/>
        <pt x="481" y="51" on="0"/>
        <pt x="498" y="40" on="1"/>
        <pt x="503" y="36" on="0"/>
        <pt x="503" y="30" on="1"/>
        <pt x="503" y="14" on="0"/>
        <pt x="415" y="-13" on="0"/>
        <pt x="346" y="-13" on="0"/>
        <pt x="341" y="15" on="1"/>
        <pt x="336" y="45" on="0"/>
        <pt x="334" y="158" on="1"/>
        <pt x="334" y="198" on="1"/>
        <pt x="334" y="303" on="0"/>
        <pt x="304" y="350" on="1"/>
        <pt x="278" y="391" on="0"/>
        <pt x="257" y="396" on="1"/>
        <pt x="241" y="401" on="0"/>
        <pt x="240" y="401" on="1"/>
        <pt x="229" y="396" on="1"/>
        <pt x="205" y="368" on="0"/>
        <pt x="177" y="316" on="0"/>
        <pt x="176" y="304" on="1"/>
        <pt x="174" y="291" on="1"/>
        <pt x="174" y="150" on="0"/>
        <pt x="186" y="50" on="1"/>
        <pt x="188" y="38" on="0"/>
        <pt x="188" y="36" on="1"/>
        <pt x="188" y="14" on="0"/>
        <pt x="95" y="-18" on="0"/>
        <pt x="36" y="-18" on="0"/>
        <pt x="36" y="-9" on="1"/>
        <pt x="36" y="-3" on="0"/>
        <pt x="39" y="6" on="1"/>
        <pt x="49" y="28" on="0"/>
        <pt x="58" y="275" on="0"/>
        <pt x="58" y="478" on="0"/>
        <pt x="54" y="541" on="1"/>
        <pt x="48" y="636" on="0"/>
        <pt x="34" y="655" on="1"/>
        <pt x="23" y="669" on="0"/>
        <pt x="23" y="673" on="1"/>
        <pt x="23" y="687" on="0"/>
        <pt x="126" y="713" on="0"/>
        <pt x="189" y="713" on="0"/>
        <pt x="189" y="699" on="1"/>
        <pt x="188" y="686" on="1"/>
        <pt x="175" y="578" on="0"/>
        <pt x="175" y="455" on="1"/>
        <pt x="175" y="445" on="0"/>
        <pt x="184" y="445" on="0"/>
        <pt x="196" y="463" on="0"/>
        <pt x="219" y="495" on="0"/>
        <pt x="280" y="579" on="0"/>
      </contour>
    </TTGlyph>
    <TTGlyph name="L" xMin="17" yMin="-7" xMax="439" yMax="724">
      <contour>
        <pt x="308" y="1" on="1"/>
        <pt x="251" y="2" on="1"/>
        <pt x="239" y="2" on="0"/>
        <pt x="227" y="2" on="1"/>
        <pt x="45" y="-7" on="1"/>
        <pt x="30" y="-7" on="0"/>
        <pt x="30" y="3" on="1"/>
        <pt x="30" y="6" on="0"/>
        <pt x="33" y="17" on="1"/>
        <pt x="43" y="40" on="0"/>
        <pt x="52" y="286" on="0"/>
        <pt x="52" y="489" on="0"/>
        <pt x="48" y="552" on="1"/>
        <pt x="42" y="647" on="0"/>
        <pt x="28" y="666" on="1"/>
        <pt x="17" y="680" on="0"/>
        <pt x="17" y="684" on="1"/>
        <pt x="17" y="700" on="0"/>
        <pt x="125" y="724" on="0"/>
        <pt x="172" y="724" on="0"/>
        <pt x="184" y="719" on="0"/>
        <pt x="184" y="703" on="0"/>
        <pt x="180" y="660" on="1"/>
        <pt x="170" y="533" on="0"/>
        <pt x="170" y="196" on="0"/>
        <pt x="178" y="95" on="1"/>
        <pt x="178" y="84" on="0"/>
        <pt x="216" y="68" on="0"/>
        <pt x="244" y="68" on="1"/>
        <pt x="342" y="68" on="0"/>
        <pt x="342" y="219" on="1"/>
        <pt x="342" y="261" on="0"/>
        <pt x="333" y="281" on="0"/>
        <pt x="333" y="284" on="1"/>
        <pt x="333" y="294" on="0"/>
        <pt x="347" y="294" on="1"/>
        <pt x="358" y="294" on="0"/>
        <pt x="395" y="272" on="0"/>
        <pt x="419" y="239" on="0"/>
        <pt x="439" y="168" on="0"/>
        <pt x="439" y="120" on="1"/>
        <pt x="439" y="1" on="0"/>
        <pt x="410" y="1" on="1"/>
        <pt x="359" y="1" on="0"/>
      </contour>
    </TTGlyph>
    <TTGlyph name="Lslash" xMin="-20" yMin="-7" xMax="439" yMax="724">
      <contour>
        <pt x="308" y="1" on="1"/>
        <pt x="251" y="2" on="1"/>
        <pt x="239" y="2" on="0"/>
        <pt x="227" y="2" on="1"/>
        <pt x="45" y="-7" on="1"/>
        <pt x="30" y="-7" on="0"/>
        <pt x="30" y="3" on="1"/>
        <pt x="30" y="6" on="0"/>
        <pt x="33" y="17" on="1"/>
        <pt x="43" y="40" on="0"/>
        <pt x="52" y="286" on="0"/>
        <pt x="52" y="365" on="1"/>
        <pt x="52" y="383" on="1"/>
        <pt x="-3" y="348" on="1"/>
        <pt x="-4" y="347" on="0"/>
        <pt x="-7" y="347" on="1"/>
        <pt x="-20" y="347" on="0"/>
        <pt x="-20" y="388" on="0"/>
        <pt x="18" y="413" on="0"/>
        <pt x="51" y="434" on="1"/>
        <pt x="48" y="601" on="0"/>
        <pt x="32" y="660" on="0"/>
        <pt x="17" y="678" on="0"/>
        <pt x="17" y="684" on="1"/>
        <pt x="17" y="700" on="0"/>
        <pt x="125" y="724" on="0"/>
        <pt x="172" y="724" on="0"/>
        <pt x="184" y="719" on="0"/>
        <pt x="184" y="701" on="0"/>
        <pt x="182" y="677" on="1"/>
        <pt x="175" y="597" on="0"/>
        <pt x="172" y="510" on="1"/>
        <pt x="220" y="540" on="1"/>
        <pt x="224" y="543" on="0"/>
        <pt x="227" y="543" on="1"/>
        <pt x="241" y="543" on="0"/>
        <pt x="241" y="520" on="1"/>
        <pt x="241" y="501" on="0"/>
        <pt x="223" y="490" on="1"/>
        <pt x="171" y="459" on="1"/>
        <pt x="170" y="429" on="0"/>
        <pt x="170" y="196" on="0"/>
        <pt x="178" y="92" on="0"/>
        <pt x="183" y="82" on="0"/>
        <pt x="216" y="68" on="0"/>
        <pt x="244" y="68" on="1"/>
        <pt x="342" y="68" on="0"/>
        <pt x="342" y="219" on="1"/>
        <pt x="342" y="261" on="0"/>
        <pt x="333" y="281" on="0"/>
        <pt x="333" y="284" on="1"/>
        <pt x="333" y="294" on="0"/>
        <pt x="347" y="294" on="1"/>
        <pt x="358" y="294" on="0"/>
        <pt x="395" y="272" on="0"/>
        <pt x="419" y="239" on="0"/>
        <pt x="439" y="168" on="0"/>
        <pt x="439" y="120" on="1"/>
        <pt x="439" y="1" on="0"/>
        <pt x="410" y="1" on="1"/>
        <pt x="359" y="1" on="0"/>
      </contour>
    </TTGlyph>
    <TTGlyph name="M" xMin="25" yMin="-10" xMax="675" yMax="724">
      <contour>
        <pt x="54" y="389" on="1"/>
        <pt x="49" y="578" on="1"/>
        <pt x="49" y="623" on="0"/>
        <pt x="29" y="675" on="0"/>
        <pt x="29" y="677" on="1"/>
        <pt x="29" y="699" on="0"/>
        <pt x="164" y="723" on="0"/>
        <pt x="235" y="723" on="0"/>
        <pt x="238" y="706" on="1"/>
        <pt x="301" y="425" on="0"/>
        <pt x="344" y="316" on="1"/>
        <pt x="349" y="304" on="0"/>
        <pt x="360" y="304" on="0"/>
        <pt x="364" y="313" on="1"/>
        <pt x="431" y="502" on="0"/>
        <pt x="482" y="687" on="1"/>
        <pt x="486" y="699" on="0"/>
        <pt x="518" y="712" on="0"/>
        <pt x="597" y="724" on="0"/>
        <pt x="675" y="724" on="0"/>
        <pt x="675" y="708" on="1"/>
        <pt x="675" y="707" on="0"/>
        <pt x="669" y="678" on="0"/>
        <pt x="663" y="636" on="0"/>
        <pt x="659" y="606" on="1"/>
        <pt x="650" y="537" on="0"/>
        <pt x="645" y="358" on="0"/>
        <pt x="645" y="268" on="1"/>
        <pt x="647" y="163" on="1"/>
        <pt x="647" y="91" on="0"/>
        <pt x="666" y="30" on="0"/>
        <pt x="666" y="21" on="0"/>
        <pt x="659" y="15" on="1"/>
        <pt x="628" y="-10" on="0"/>
        <pt x="565" y="-10" on="1"/>
        <pt x="525" y="-10" on="0"/>
        <pt x="520" y="17" on="1"/>
        <pt x="517" y="31" on="0"/>
        <pt x="517" y="92" on="0"/>
        <pt x="529" y="406" on="0"/>
        <pt x="529" y="549" on="0"/>
        <pt x="521" y="549" on="1"/>
        <pt x="520" y="549" on="0"/>
        <pt x="520" y="548" on="0"/>
        <pt x="514" y="546" on="0"/>
        <pt x="489" y="486" on="0"/>
        <pt x="415" y="250" on="0"/>
        <pt x="355" y="45" on="0"/>
        <pt x="352" y="37" on="1"/>
        <pt x="341" y="10" on="0"/>
        <pt x="310" y="10" on="1"/>
        <pt x="295" y="10" on="0"/>
        <pt x="286" y="21" on="1"/>
        <pt x="254" y="169" on="0"/>
        <pt x="172" y="444" on="1"/>
        <pt x="144" y="535" on="1"/>
        <pt x="142" y="540" on="0"/>
        <pt x="140" y="540" on="1"/>
        <pt x="135" y="540" on="0"/>
        <pt x="133" y="533" on="1"/>
        <pt x="129" y="468" on="0"/>
        <pt x="129" y="87" on="0"/>
        <pt x="143" y="37" on="1"/>
        <pt x="144" y="35" on="0"/>
        <pt x="144" y="31" on="1"/>
        <pt x="144" y="10" on="0"/>
        <pt x="78" y="-9" on="0"/>
        <pt x="25" y="-9" on="0"/>
        <pt x="25" y="3" on="1"/>
        <pt x="25" y="4" on="0"/>
        <pt x="30" y="19" on="1"/>
        <pt x="45" y="70" on="0"/>
        <pt x="54" y="264" on="0"/>
      </contour>
    </TTGlyph>
    <TTGlyph name="N" xMin="30" yMin="-20" xMax="502" yMax="719">
      <contour>
        <pt x="409" y="313" on="1"/>
        <pt x="408" y="432" on="1"/>
        <pt x="408" y="609" on="0"/>
        <pt x="396" y="667" on="1"/>
        <pt x="394" y="674" on="0"/>
        <pt x="394" y="678" on="1"/>
        <pt x="394" y="695" on="0"/>
        <pt x="462" y="719" on="0"/>
        <pt x="502" y="719" on="0"/>
        <pt x="502" y="707" on="1"/>
        <pt x="502" y="706" on="0"/>
        <pt x="500" y="696" on="1"/>
        <pt x="477" y="573" on="0"/>
        <pt x="477" y="305" on="1"/>
        <pt x="477" y="122" on="0"/>
        <pt x="498" y="42" on="1"/>
        <pt x="502" y="29" on="0"/>
        <pt x="502" y="28" on="1"/>
        <pt x="502" y="7" on="0"/>
        <pt x="410" y="-20" on="0"/>
        <pt x="391" y="-20" on="1"/>
        <pt x="361" y="-20" on="0"/>
        <pt x="350" y="-6" on="1"/>
        <pt x="328" y="22" on="0"/>
        <pt x="229" y="281" on="0"/>
        <pt x="192" y="393" on="1"/>
        <pt x="154" y="505" on="1"/>
        <pt x="152" y="510" on="0"/>
        <pt x="149" y="510" on="1"/>
        <pt x="145" y="510" on="0"/>
        <pt x="140" y="503" on="1"/>
        <pt x="135" y="410" on="0"/>
        <pt x="135" y="224" on="0"/>
        <pt x="138" y="124" on="0"/>
        <pt x="142" y="72" on="0"/>
        <pt x="146" y="41" on="0"/>
        <pt x="149" y="27" on="0"/>
        <pt x="149" y="24" on="1"/>
        <pt x="149" y="5" on="0"/>
        <pt x="83" y="-16" on="0"/>
        <pt x="30" y="-16" on="0"/>
        <pt x="30" y="-4" on="1"/>
        <pt x="30" y="2" on="0"/>
        <pt x="36" y="20" on="0"/>
        <pt x="40" y="34" on="1"/>
        <pt x="50" y="69" on="0"/>
        <pt x="58" y="254" on="0"/>
        <pt x="58" y="491" on="0"/>
        <pt x="55" y="545" on="1"/>
        <pt x="50" y="633" on="0"/>
        <pt x="37" y="663" on="1"/>
        <pt x="34" y="666" on="0"/>
        <pt x="34" y="671" on="1"/>
        <pt x="34" y="687" on="0"/>
        <pt x="140" y="717" on="0"/>
        <pt x="199" y="717" on="0"/>
        <pt x="204" y="716" on="1"/>
        <pt x="218" y="717" on="0"/>
        <pt x="221" y="700" on="1"/>
        <pt x="250" y="595" on="0"/>
        <pt x="355" y="311" on="0"/>
        <pt x="396" y="236" on="1"/>
        <pt x="401" y="231" on="0"/>
        <pt x="404" y="231" on="1"/>
        <pt x="409" y="231" on="0"/>
      </contour>
    </TTGlyph>
    <TTGlyph name="Ntilde" xMin="30" yMin="-20" xMax="502" yMax="819">
      <contour>
        <pt x="257" y="819" on="1"/>
        <pt x="363" y="812" on="1"/>
        <pt x="391" y="812" on="0"/>
        <pt x="409" y="818" on="0"/>
        <pt x="411" y="818" on="1"/>
        <pt x="417" y="818" on="0"/>
        <pt x="417" y="813" on="1"/>
        <pt x="417" y="797" on="0"/>
        <pt x="371" y="744" on="0"/>
        <pt x="327" y="744" on="0"/>
        <pt x="259" y="762" on="0"/>
        <pt x="221" y="762" on="0"/>
        <pt x="194" y="757" on="0"/>
        <pt x="176" y="752" on="0"/>
        <pt x="170" y="752" on="0"/>
        <pt x="170" y="758" on="1"/>
        <pt x="170" y="772" on="0"/>
        <pt x="231" y="819" on="0"/>
      </contour>
      <contour>
        <pt x="409" y="313" on="1"/>
        <pt x="408" y="432" on="1"/>
        <pt x="408" y="609" on="0"/>
        <pt x="396" y="667" on="1"/>
        <pt x="394" y="674" on="0"/>
        <pt x="394" y="678" on="1"/>
        <pt x="394" y="695" on="0"/>
        <pt x="462" y="719" on="0"/>
        <pt x="502" y="719" on="0"/>
        <pt x="502" y="707" on="1"/>
        <pt x="502" y="706" on="0"/>
        <pt x="500" y="696" on="1"/>
        <pt x="477" y="573" on="0"/>
        <pt x="477" y="305" on="1"/>
        <pt x="477" y="122" on="0"/>
        <pt x="498" y="42" on="1"/>
        <pt x="502" y="29" on="0"/>
        <pt x="502" y="28" on="1"/>
        <pt x="502" y="7" on="0"/>
        <pt x="410" y="-20" on="0"/>
        <pt x="391" y="-20" on="1"/>
        <pt x="361" y="-20" on="0"/>
        <pt x="350" y="-6" on="1"/>
        <pt x="328" y="22" on="0"/>
        <pt x="229" y="281" on="0"/>
        <pt x="192" y="393" on="1"/>
        <pt x="154" y="505" on="1"/>
        <pt x="152" y="510" on="0"/>
        <pt x="149" y="510" on="1"/>
        <pt x="145" y="510" on="0"/>
        <pt x="140" y="503" on="1"/>
        <pt x="135" y="410" on="0"/>
        <pt x="135" y="224" on="0"/>
        <pt x="138" y="124" on="0"/>
        <pt x="142" y="72" on="0"/>
        <pt x="146" y="41" on="0"/>
        <pt x="149" y="27" on="0"/>
        <pt x="149" y="24" on="1"/>
        <pt x="149" y="5" on="0"/>
        <pt x="83" y="-16" on="0"/>
        <pt x="30" y="-16" on="0"/>
        <pt x="30" y="-4" on="1"/>
        <pt x="30" y="2" on="0"/>
        <pt x="36" y="20" on="0"/>
        <pt x="40" y="34" on="1"/>
        <pt x="50" y="69" on="0"/>
        <pt x="58" y="254" on="0"/>
        <pt x="58" y="491" on="0"/>
        <pt x="55" y="545" on="1"/>
        <pt x="50" y="633" on="0"/>
        <pt x="37" y="663" on="1"/>
        <pt x="34" y="666" on="0"/>
        <pt x="34" y="671" on="1"/>
        <pt x="34" y="687" on="0"/>
        <pt x="140" y="717" on="0"/>
        <pt x="199" y="717" on="0"/>
        <pt x="204" y="716" on="1"/>
        <pt x="218" y="717" on="0"/>
        <pt x="221" y="700" on="1"/>
        <pt x="250" y="595" on="0"/>
        <pt x="355" y="311" on="0"/>
        <pt x="396" y="236" on="1"/>
        <pt x="401" y="231" on="0"/>
        <pt x="404" y="231" on="1"/>
        <pt x="409" y="231" on="0"/>
      </contour>
    </TTGlyph>
    <TTGlyph name="O" xMin="20" yMin="-17" xMax="542" yMax="716">
      <contour>
        <pt x="292" y="642" on="1"/>
        <pt x="256" y="642" on="0"/>
        <pt x="232" y="616" on="1"/>
        <pt x="190" y="570" on="0"/>
        <pt x="190" y="429" on="0"/>
        <pt x="226" y="415" on="1"/>
        <pt x="235" y="412" on="0"/>
        <pt x="235" y="402" on="1"/>
        <pt x="235" y="372" on="0"/>
        <pt x="195" y="331" on="0"/>
        <pt x="166" y="327" on="1"/>
        <pt x="157" y="327" on="0"/>
        <pt x="157" y="320" on="1"/>
        <pt x="156" y="309" on="0"/>
        <pt x="156" y="268" on="0"/>
        <pt x="160" y="219" on="0"/>
        <pt x="175" y="152" on="0"/>
        <pt x="200" y="103" on="0"/>
        <pt x="247" y="68" on="0"/>
        <pt x="322" y="68" on="0"/>
        <pt x="382" y="128" on="0"/>
        <pt x="394" y="176" on="1"/>
        <pt x="416" y="260" on="0"/>
        <pt x="416" y="415" on="0"/>
        <pt x="396" y="533" on="0"/>
        <pt x="369" y="595" on="0"/>
        <pt x="331" y="633" on="0"/>
        <pt x="305" y="642" on="0"/>
      </contour>
      <contour>
        <pt x="110" y="543" on="1"/>
        <pt x="114" y="549" on="1"/>
        <pt x="124" y="595" on="0"/>
        <pt x="169" y="662" on="0"/>
        <pt x="214" y="695" on="0"/>
        <pt x="242" y="704" on="1"/>
        <pt x="279" y="716" on="0"/>
        <pt x="307" y="716" on="1"/>
        <pt x="374" y="716" on="0"/>
        <pt x="471" y="654" on="0"/>
        <pt x="496" y="601" on="1"/>
        <pt x="542" y="500" on="0"/>
        <pt x="542" y="372" on="1"/>
        <pt x="542" y="157" on="0"/>
        <pt x="442" y="59" on="1"/>
        <pt x="393" y="11" on="0"/>
        <pt x="334" y="-6" on="1"/>
        <pt x="297" y="-17" on="0"/>
        <pt x="263" y="-17" on="1"/>
        <pt x="138" y="-17" on="0"/>
        <pt x="20" y="154" on="0"/>
        <pt x="20" y="285" on="1"/>
        <pt x="20" y="361" on="0"/>
        <pt x="46" y="488" on="0"/>
        <pt x="60" y="514" on="1"/>
        <pt x="73" y="540" on="1"/>
        <pt x="77" y="549" on="0"/>
        <pt x="95" y="549" on="0"/>
        <pt x="104" y="546" on="0"/>
        <pt x="109" y="543" on="0"/>
      </contour>
    </TTGlyph>
    <TTGlyph name="OE" xMin="20" yMin="-17" xMax="829" yMax="718">
      <contour>
        <pt x="282" y="642" on="1"/>
        <pt x="246" y="642" on="0"/>
        <pt x="202" y="589" on="0"/>
        <pt x="190" y="529" on="0"/>
        <pt x="190" y="494" on="1"/>
        <pt x="190" y="429" on="0"/>
        <pt x="226" y="415" on="1"/>
        <pt x="235" y="412" on="0"/>
        <pt x="235" y="402" on="1"/>
        <pt x="235" y="372" on="0"/>
        <pt x="195" y="331" on="0"/>
        <pt x="166" y="327" on="1"/>
        <pt x="157" y="327" on="0"/>
        <pt x="157" y="320" on="1"/>
        <pt x="156" y="309" on="0"/>
        <pt x="156" y="268" on="0"/>
        <pt x="160" y="219" on="0"/>
        <pt x="175" y="152" on="0"/>
        <pt x="200" y="103" on="0"/>
        <pt x="247" y="68" on="0"/>
        <pt x="278" y="68" on="1"/>
        <pt x="406" y="68" on="0"/>
        <pt x="406" y="336" on="1"/>
        <pt x="406" y="548" on="0"/>
        <pt x="340" y="614" on="1"/>
        <pt x="321" y="633" on="0"/>
        <pt x="295" y="642" on="0"/>
      </contour>
      <contour>
        <pt x="110" y="543" on="1"/>
        <pt x="114" y="549" on="1"/>
        <pt x="124" y="595" on="0"/>
        <pt x="166" y="662" on="0"/>
        <pt x="210" y="695" on="0"/>
        <pt x="236" y="704" on="1"/>
        <pt x="271" y="716" on="0"/>
        <pt x="297" y="716" on="1"/>
        <pt x="428" y="716" on="0"/>
        <pt x="488" y="595" on="1"/>
        <pt x="537" y="664" on="0"/>
        <pt x="666" y="718" on="0"/>
        <pt x="796" y="718" on="0"/>
        <pt x="813" y="696" on="1"/>
        <pt x="821" y="685" on="0"/>
        <pt x="821" y="626" on="0"/>
        <pt x="814" y="626" on="1"/>
        <pt x="813" y="626" on="0"/>
        <pt x="804" y="630" on="1"/>
        <pt x="779" y="642" on="0"/>
        <pt x="740" y="642" on="1"/>
        <pt x="655" y="642" on="0"/>
        <pt x="560" y="522" on="0"/>
        <pt x="544" y="428" on="1"/>
        <pt x="600" y="429" on="0"/>
        <pt x="750" y="429" on="1"/>
        <pt x="760" y="429" on="0"/>
        <pt x="760" y="422" on="1"/>
        <pt x="760" y="406" on="0"/>
        <pt x="728" y="357" on="0"/>
        <pt x="708" y="357" on="1"/>
        <pt x="536" y="357" on="1"/>
        <pt x="535" y="345" on="0"/>
        <pt x="535" y="264" on="0"/>
        <pt x="564" y="175" on="0"/>
        <pt x="643" y="113" on="0"/>
        <pt x="769" y="113" on="0"/>
        <pt x="812" y="141" on="1"/>
        <pt x="817" y="145" on="0"/>
        <pt x="821" y="145" on="1"/>
        <pt x="829" y="145" on="0"/>
        <pt x="829" y="124" on="1"/>
        <pt x="829" y="54" on="0"/>
        <pt x="740" y="-14" on="0"/>
        <pt x="660" y="-14" on="1"/>
        <pt x="524" y="-14" on="0"/>
        <pt x="460" y="87" on="1"/>
        <pt x="409" y="15" on="0"/>
        <pt x="342" y="-4" on="1"/>
        <pt x="293" y="-17" on="0"/>
        <pt x="263" y="-17" on="1"/>
        <pt x="138" y="-17" on="0"/>
        <pt x="20" y="154" on="0"/>
        <pt x="20" y="285" on="1"/>
        <pt x="20" y="361" on="0"/>
        <pt x="46" y="488" on="0"/>
        <pt x="60" y="514" on="1"/>
        <pt x="73" y="540" on="1"/>
        <pt x="77" y="549" on="0"/>
        <pt x="95" y="549" on="0"/>
        <pt x="104" y="546" on="0"/>
        <pt x="109" y="543" on="0"/>
      </contour>
    </TTGlyph>
    <TTGlyph name="Oacute" xMin="20" yMin="-17" xMax="542" yMax="861">
      <contour>
        <pt x="247" y="735" on="1"/>
        <pt x="242" y="731" on="0"/>
        <pt x="237" y="731" on="1"/>
        <pt x="229" y="731" on="0"/>
        <pt x="229" y="740" on="1"/>
        <pt x="231" y="748" on="1"/>
        <pt x="258" y="802" on="0"/>
        <pt x="303" y="856" on="1"/>
        <pt x="307" y="861" on="0"/>
        <pt x="324" y="861" on="0"/>
        <pt x="364" y="832" on="0"/>
        <pt x="364" y="811" on="0"/>
        <pt x="355" y="805" on="1"/>
        <pt x="313" y="771" on="0"/>
      </contour>
      <contour>
        <pt x="292" y="642" on="1"/>
        <pt x="256" y="642" on="0"/>
        <pt x="232" y="616" on="1"/>
        <pt x="190" y="570" on="0"/>
        <pt x="190" y="429" on="0"/>
        <pt x="226" y="415" on="1"/>
        <pt x="235" y="412" on="0"/>
        <pt x="235" y="402" on="1"/>
        <pt x="235" y="372" on="0"/>
        <pt x="195" y="331" on="0"/>
        <pt x="166" y="327" on="1"/>
        <pt x="157" y="327" on="0"/>
        <pt x="157" y="320" on="1"/>
        <pt x="156" y="309" on="0"/>
        <pt x="156" y="268" on="0"/>
        <pt x="160" y="219" on="0"/>
        <pt x="175" y="152" on="0"/>
        <pt x="200" y="103" on="0"/>
        <pt x="247" y="68" on="0"/>
        <pt x="322" y="68" on="0"/>
        <pt x="382" y="128" on="0"/>
        <pt x="394" y="176" on="1"/>
        <pt x="416" y="260" on="0"/>
        <pt x="416" y="415" on="0"/>
        <pt x="396" y="533" on="0"/>
        <pt x="369" y="595" on="0"/>
        <pt x="331" y="633" on="0"/>
        <pt x="305" y="642" on="0"/>
      </contour>
      <contour>
        <pt x="110" y="543" on="1"/>
        <pt x="114" y="549" on="1"/>
        <pt x="124" y="595" on="0"/>
        <pt x="169" y="662" on="0"/>
        <pt x="214" y="695" on="0"/>
        <pt x="242" y="704" on="1"/>
        <pt x="279" y="716" on="0"/>
        <pt x="307" y="716" on="1"/>
        <pt x="374" y="716" on="0"/>
        <pt x="471" y="654" on="0"/>
        <pt x="496" y="601" on="1"/>
        <pt x="542" y="500" on="0"/>
        <pt x="542" y="372" on="1"/>
        <pt x="542" y="157" on="0"/>
        <pt x="442" y="59" on="1"/>
        <pt x="393" y="11" on="0"/>
        <pt x="334" y="-6" on="1"/>
        <pt x="297" y="-17" on="0"/>
        <pt x="263" y="-17" on="1"/>
        <pt x="138" y="-17" on="0"/>
        <pt x="20" y="154" on="0"/>
        <pt x="20" y="285" on="1"/>
        <pt x="20" y="361" on="0"/>
        <pt x="46" y="488" on="0"/>
        <pt x="60" y="514" on="1"/>
        <pt x="73" y="540" on="1"/>
        <pt x="77" y="549" on="0"/>
        <pt x="95" y="549" on="0"/>
        <pt x="104" y="546" on="0"/>
        <pt x="109" y="543" on="0"/>
      </contour>
    </TTGlyph>
    <TTGlyph name="Ocircumflex" xMin="20" yMin="-17" xMax="542" yMax="859">
      <contour>
        <pt x="405" y="745" on="1"/>
        <pt x="405" y="736" on="0"/>
        <pt x="389" y="736" on="0"/>
        <pt x="295" y="799" on="1"/>
        <pt x="202" y="736" on="0"/>
        <pt x="184" y="736" on="0"/>
        <pt x="184" y="744" on="1"/>
        <pt x="186" y="752" on="1"/>
        <pt x="219" y="815" on="0"/>
        <pt x="255" y="854" on="1"/>
        <pt x="259" y="859" on="0"/>
        <pt x="278" y="859" on="0"/>
        <pt x="295" y="845" on="1"/>
        <pt x="312" y="859" on="0"/>
        <pt x="323" y="859" on="1"/>
        <pt x="335" y="854" on="1"/>
        <pt x="365" y="824" on="0"/>
        <pt x="394" y="770" on="1"/>
        <pt x="404" y="752" on="1"/>
        <pt x="405" y="749" on="0"/>
      </contour>
      <contour>
        <pt x="292" y="642" on="1"/>
        <pt x="256" y="642" on="0"/>
        <pt x="232" y="616" on="1"/>
        <pt x="190" y="570" on="0"/>
        <pt x="190" y="429" on="0"/>
        <pt x="226" y="415" on="1"/>
        <pt x="235" y="412" on="0"/>
        <pt x="235" y="402" on="1"/>
        <pt x="235" y="372" on="0"/>
        <pt x="195" y="331" on="0"/>
        <pt x="166" y="327" on="1"/>
        <pt x="157" y="327" on="0"/>
        <pt x="157" y="320" on="1"/>
        <pt x="156" y="309" on="0"/>
        <pt x="156" y="268" on="0"/>
        <pt x="160" y="219" on="0"/>
        <pt x="175" y="152" on="0"/>
        <pt x="200" y="103" on="0"/>
        <pt x="247" y="68" on="0"/>
        <pt x="322" y="68" on="0"/>
        <pt x="382" y="128" on="0"/>
        <pt x="394" y="176" on="1"/>
        <pt x="416" y="260" on="0"/>
        <pt x="416" y="415" on="0"/>
        <pt x="396" y="533" on="0"/>
        <pt x="369" y="595" on="0"/>
        <pt x="331" y="633" on="0"/>
        <pt x="305" y="642" on="0"/>
      </contour>
      <contour>
        <pt x="110" y="543" on="1"/>
        <pt x="114" y="549" on="1"/>
        <pt x="124" y="595" on="0"/>
        <pt x="169" y="662" on="0"/>
        <pt x="214" y="695" on="0"/>
        <pt x="242" y="704" on="1"/>
        <pt x="279" y="716" on="0"/>
        <pt x="307" y="716" on="1"/>
        <pt x="374" y="716" on="0"/>
        <pt x="471" y="654" on="0"/>
        <pt x="496" y="601" on="1"/>
        <pt x="542" y="500" on="0"/>
        <pt x="542" y="372" on="1"/>
        <pt x="542" y="157" on="0"/>
        <pt x="442" y="59" on="1"/>
        <pt x="393" y="11" on="0"/>
        <pt x="334" y="-6" on="1"/>
        <pt x="297" y="-17" on="0"/>
        <pt x="263" y="-17" on="1"/>
        <pt x="138" y="-17" on="0"/>
        <pt x="20" y="154" on="0"/>
        <pt x="20" y="285" on="1"/>
        <pt x="20" y="361" on="0"/>
        <pt x="46" y="488" on="0"/>
        <pt x="60" y="514" on="1"/>
        <pt x="73" y="540" on="1"/>
        <pt x="77" y="549" on="0"/>
        <pt x="95" y="549" on="0"/>
        <pt x="104" y="546" on="0"/>
        <pt x="109" y="543" on="0"/>
      </contour>
    </TTGlyph>
    <TTGlyph name="Odieresis" xMin="20" yMin="-17" xMax="542" yMax="833">
      <contour>
        <pt x="390" y="753" on="1"/>
        <pt x="369" y="752" on="1"/>
        <pt x="350" y="752" on="0"/>
        <pt x="336" y="769" on="0"/>
        <pt x="336" y="815" on="0"/>
        <pt x="356" y="833" on="0"/>
        <pt x="410" y="833" on="0"/>
        <pt x="431" y="812" on="0"/>
        <pt x="431" y="792" on="1"/>
        <pt x="431" y="740" on="0"/>
        <pt x="421" y="740" on="1"/>
        <pt x="417" y="743" on="1"/>
        <pt x="411" y="753" on="0"/>
      </contour>
      <contour>
        <pt x="215" y="753" on="1"/>
        <pt x="194" y="752" on="1"/>
        <pt x="175" y="752" on="0"/>
        <pt x="161" y="769" on="0"/>
        <pt x="161" y="815" on="0"/>
        <pt x="181" y="833" on="0"/>
        <pt x="235" y="833" on="0"/>
        <pt x="256" y="812" on="0"/>
        <pt x="256" y="792" on="1"/>
        <pt x="256" y="757" on="0"/>
        <pt x="248" y="740" on="0"/>
        <pt x="246" y="740" on="1"/>
        <pt x="242" y="743" on="1"/>
        <pt x="236" y="753" on="0"/>
      </contour>
      <contour>
        <pt x="292" y="642" on="1"/>
        <pt x="256" y="642" on="0"/>
        <pt x="232" y="616" on="1"/>
        <pt x="190" y="570" on="0"/>
        <pt x="190" y="429" on="0"/>
        <pt x="226" y="415" on="1"/>
        <pt x="235" y="412" on="0"/>
        <pt x="235" y="402" on="1"/>
        <pt x="235" y="372" on="0"/>
        <pt x="195" y="331" on="0"/>
        <pt x="166" y="327" on="1"/>
        <pt x="157" y="327" on="0"/>
        <pt x="157" y="320" on="1"/>
        <pt x="156" y="309" on="0"/>
        <pt x="156" y="268" on="0"/>
        <pt x="160" y="219" on="0"/>
        <pt x="175" y="152" on="0"/>
        <pt x="200" y="103" on="0"/>
        <pt x="247" y="68" on="0"/>
        <pt x="322" y="68" on="0"/>
        <pt x="382" y="128" on="0"/>
        <pt x="394" y="176" on="1"/>
        <pt x="416" y="260" on="0"/>
        <pt x="416" y="415" on="0"/>
        <pt x="396" y="533" on="0"/>
        <pt x="369" y="595" on="0"/>
        <pt x="331" y="633" on="0"/>
        <pt x="305" y="642" on="0"/>
      </contour>
      <contour>
        <pt x="110" y="543" on="1"/>
        <pt x="114" y="549" on="1"/>
        <pt x="124" y="595" on="0"/>
        <pt x="169" y="662" on="0"/>
        <pt x="214" y="695" on="0"/>
        <pt x="242" y="704" on="1"/>
        <pt x="279" y="716" on="0"/>
        <pt x="307" y="716" on="1"/>
        <pt x="374" y="716" on="0"/>
        <pt x="471" y="654" on="0"/>
        <pt x="496" y="601" on="1"/>
        <pt x="542" y="500" on="0"/>
        <pt x="542" y="372" on="1"/>
        <pt x="542" y="157" on="0"/>
        <pt x="442" y="59" on="1"/>
        <pt x="393" y="11" on="0"/>
        <pt x="334" y="-6" on="1"/>
        <pt x="297" y="-17" on="0"/>
        <pt x="263" y="-17" on="1"/>
        <pt x="138" y="-17" on="0"/>
        <pt x="20" y="154" on="0"/>
        <pt x="20" y="285" on="1"/>
        <pt x="20" y="361" on="0"/>
        <pt x="46" y="488" on="0"/>
        <pt x="60" y="514" on="1"/>
        <pt x="73" y="540" on="1"/>
        <pt x="77" y="549" on="0"/>
        <pt x="95" y="549" on="0"/>
        <pt x="104" y="546" on="0"/>
        <pt x="109" y="543" on="0"/>
      </contour>
    </TTGlyph>
    <TTGlyph name="Ograve" xMin="20" yMin="-17" xMax="542" yMax="874">
      <contour>
        <pt x="350" y="750" on="0"/>
        <pt x="345" y="744" on="0"/>
        <pt x="336" y="744" on="0"/>
        <pt x="244" y="803" on="0"/>
        <pt x="216" y="824" on="0"/>
        <pt x="216" y="845" on="0"/>
        <pt x="255" y="874" on="0"/>
        <pt x="264" y="874" on="1"/>
        <pt x="276" y="869" on="1"/>
        <pt x="290" y="854" on="0"/>
        <pt x="350" y="763" on="0"/>
      </contour>
      <contour>
        <pt x="292" y="642" on="1"/>
        <pt x="256" y="642" on="0"/>
        <pt x="232" y="616" on="1"/>
        <pt x="190" y="570" on="0"/>
        <pt x="190" y="429" on="0"/>
        <pt x="226" y="415" on="1"/>
        <pt x="235" y="412" on="0"/>
        <pt x="235" y="402" on="1"/>
        <pt x="235" y="372" on="0"/>
        <pt x="195" y="331" on="0"/>
        <pt x="166" y="327" on="1"/>
        <pt x="157" y="327" on="0"/>
        <pt x="157" y="320" on="1"/>
        <pt x="156" y="309" on="0"/>
        <pt x="156" y="268" on="0"/>
        <pt x="160" y="219" on="0"/>
        <pt x="175" y="152" on="0"/>
        <pt x="200" y="103" on="0"/>
        <pt x="247" y="68" on="0"/>
        <pt x="322" y="68" on="0"/>
        <pt x="382" y="128" on="0"/>
        <pt x="394" y="176" on="1"/>
        <pt x="416" y="260" on="0"/>
        <pt x="416" y="415" on="0"/>
        <pt x="396" y="533" on="0"/>
        <pt x="369" y="595" on="0"/>
        <pt x="331" y="633" on="0"/>
        <pt x="305" y="642" on="0"/>
      </contour>
      <contour>
        <pt x="110" y="543" on="1"/>
        <pt x="114" y="549" on="1"/>
        <pt x="124" y="595" on="0"/>
        <pt x="169" y="662" on="0"/>
        <pt x="214" y="695" on="0"/>
        <pt x="242" y="704" on="1"/>
        <pt x="279" y="716" on="0"/>
        <pt x="307" y="716" on="1"/>
        <pt x="374" y="716" on="0"/>
        <pt x="471" y="654" on="0"/>
        <pt x="496" y="601" on="1"/>
        <pt x="542" y="500" on="0"/>
        <pt x="542" y="372" on="1"/>
        <pt x="542" y="157" on="0"/>
        <pt x="442" y="59" on="1"/>
        <pt x="393" y="11" on="0"/>
        <pt x="334" y="-6" on="1"/>
        <pt x="297" y="-17" on="0"/>
        <pt x="263" y="-17" on="1"/>
        <pt x="138" y="-17" on="0"/>
        <pt x="20" y="154" on="0"/>
        <pt x="20" y="285" on="1"/>
        <pt x="20" y="361" on="0"/>
        <pt x="46" y="488" on="0"/>
        <pt x="60" y="514" on="1"/>
        <pt x="73" y="540" on="1"/>
        <pt x="77" y="549" on="0"/>
        <pt x="95" y="549" on="0"/>
        <pt x="104" y="546" on="0"/>
        <pt x="109" y="543" on="0"/>
      </contour>
    </TTGlyph>
    <TTGlyph name="Oslash" xMin="20" yMin="-63" xMax="591" yMax="749">
      <contour>
        <pt x="110" y="-42" on="1"/>
        <pt x="99" y="-63" on="0"/>
        <pt x="41" y="-63" on="0"/>
        <pt x="41" y="-51" on="1"/>
        <pt x="41" y="-46" on="0"/>
        <pt x="44" y="-42" on="1"/>
        <pt x="521" y="734" on="1"/>
        <pt x="529" y="749" on="0"/>
        <pt x="591" y="749" on="0"/>
        <pt x="591" y="741" on="1"/>
        <pt x="591" y="740" on="0"/>
      </contour>
      <contour>
        <pt x="292" y="642" on="1"/>
        <pt x="256" y="642" on="0"/>
        <pt x="232" y="616" on="1"/>
        <pt x="190" y="570" on="0"/>
        <pt x="190" y="429" on="0"/>
        <pt x="226" y="415" on="1"/>
        <pt x="235" y="412" on="0"/>
        <pt x="235" y="402" on="1"/>
        <pt x="235" y="372" on="0"/>
        <pt x="195" y="331" on="0"/>
        <pt x="166" y="327" on="1"/>
        <pt x="157" y="327" on="0"/>
        <pt x="157" y="320" on="1"/>
        <pt x="156" y="309" on="0"/>
        <pt x="156" y="268" on="0"/>
        <pt x="160" y="219" on="0"/>
        <pt x="175" y="152" on="0"/>
        <pt x="200" y="103" on="0"/>
        <pt x="247" y="68" on="0"/>
        <pt x="322" y="68" on="0"/>
        <pt x="382" y="128" on="0"/>
        <pt x="394" y="176" on="1"/>
        <pt x="416" y="260" on="0"/>
        <pt x="416" y="415" on="0"/>
        <pt x="396" y="533" on="0"/>
        <pt x="369" y="595" on="0"/>
        <pt x="331" y="633" on="0"/>
        <pt x="305" y="642" on="0"/>
      </contour>
      <contour>
        <pt x="110" y="543" on="1"/>
        <pt x="114" y="549" on="1"/>
        <pt x="124" y="595" on="0"/>
        <pt x="169" y="662" on="0"/>
        <pt x="214" y="695" on="0"/>
        <pt x="242" y="704" on="1"/>
        <pt x="279" y="716" on="0"/>
        <pt x="307" y="716" on="1"/>
        <pt x="374" y="716" on="0"/>
        <pt x="471" y="654" on="0"/>
        <pt x="496" y="601" on="1"/>
        <pt x="542" y="500" on="0"/>
        <pt x="542" y="372" on="1"/>
        <pt x="542" y="157" on="0"/>
        <pt x="442" y="59" on="1"/>
        <pt x="393" y="11" on="0"/>
        <pt x="334" y="-6" on="1"/>
        <pt x="297" y="-17" on="0"/>
        <pt x="263" y="-17" on="1"/>
        <pt x="138" y="-17" on="0"/>
        <pt x="20" y="154" on="0"/>
        <pt x="20" y="285" on="1"/>
        <pt x="20" y="361" on="0"/>
        <pt x="46" y="488" on="0"/>
        <pt x="60" y="514" on="1"/>
        <pt x="73" y="540" on="1"/>
        <pt x="77" y="549" on="0"/>
        <pt x="95" y="549" on="0"/>
        <pt x="104" y="546" on="0"/>
        <pt x="109" y="543" on="0"/>
      </contour>
    </TTGlyph>
    <TTGlyph name="Otilde" xMin="20" yMin="-17" xMax="542" yMax="809">
      <contour>
        <pt x="269" y="809" on="1"/>
        <pt x="370" y="801" on="1"/>
        <pt x="390" y="801" on="0"/>
        <pt x="408" y="807" on="0"/>
        <pt x="409" y="807" on="1"/>
        <pt x="415" y="807" on="0"/>
        <pt x="415" y="802" on="1"/>
        <pt x="415" y="787" on="0"/>
        <pt x="376" y="751" on="0"/>
        <pt x="339" y="751" on="0"/>
        <pt x="282" y="765" on="0"/>
        <pt x="244" y="765" on="0"/>
        <pt x="217" y="759" on="0"/>
        <pt x="201" y="753" on="0"/>
        <pt x="195" y="753" on="0"/>
        <pt x="195" y="769" on="0"/>
        <pt x="240" y="809" on="0"/>
      </contour>
      <contour>
        <pt x="292" y="642" on="1"/>
        <pt x="256" y="642" on="0"/>
        <pt x="232" y="616" on="1"/>
        <pt x="190" y="570" on="0"/>
        <pt x="190" y="429" on="0"/>
        <pt x="226" y="415" on="1"/>
        <pt x="235" y="412" on="0"/>
        <pt x="235" y="402" on="1"/>
        <pt x="235" y="372" on="0"/>
        <pt x="195" y="331" on="0"/>
        <pt x="166" y="327" on="1"/>
        <pt x="157" y="327" on="0"/>
        <pt x="157" y="320" on="1"/>
        <pt x="156" y="309" on="0"/>
        <pt x="156" y="268" on="0"/>
        <pt x="160" y="219" on="0"/>
        <pt x="175" y="152" on="0"/>
        <pt x="200" y="103" on="0"/>
        <pt x="247" y="68" on="0"/>
        <pt x="322" y="68" on="0"/>
        <pt x="382" y="128" on="0"/>
        <pt x="394" y="176" on="1"/>
        <pt x="416" y="260" on="0"/>
        <pt x="416" y="415" on="0"/>
        <pt x="396" y="533" on="0"/>
        <pt x="369" y="595" on="0"/>
        <pt x="331" y="633" on="0"/>
        <pt x="305" y="642" on="0"/>
      </contour>
      <contour>
        <pt x="110" y="543" on="1"/>
        <pt x="114" y="549" on="1"/>
        <pt x="124" y="595" on="0"/>
        <pt x="169" y="662" on="0"/>
        <pt x="214" y="695" on="0"/>
        <pt x="242" y="704" on="1"/>
        <pt x="279" y="716" on="0"/>
        <pt x="307" y="716" on="1"/>
        <pt x="374" y="716" on="0"/>
        <pt x="471" y="654" on="0"/>
        <pt x="496" y="601" on="1"/>
        <pt x="542" y="500" on="0"/>
        <pt x="542" y="372" on="1"/>
        <pt x="542" y="157" on="0"/>
        <pt x="442" y="59" on="1"/>
        <pt x="393" y="11" on="0"/>
        <pt x="334" y="-6" on="1"/>
        <pt x="297" y="-17" on="0"/>
        <pt x="263" y="-17" on="1"/>
        <pt x="138" y="-17" on="0"/>
        <pt x="20" y="154" on="0"/>
        <pt x="20" y="285" on="1"/>
        <pt x="20" y="361" on="0"/>
        <pt x="46" y="488" on="0"/>
        <pt x="60" y="514" on="1"/>
        <pt x="73" y="540" on="1"/>
        <pt x="77" y="549" on="0"/>
        <pt x="95" y="549" on="0"/>
        <pt x="104" y="546" on="0"/>
        <pt x="109" y="543" on="0"/>
      </contour>
    </TTGlyph>
    <TTGlyph name="P" xMin="26" yMin="-18" xMax="501" yMax="717">
      <contour>
        <pt x="257" y="419" on="1"/>
        <pt x="261" y="419" on="0"/>
        <pt x="283" y="403" on="0"/>
        <pt x="295" y="403" on="1"/>
        <pt x="296" y="403" on="1"/>
        <pt x="330" y="403" on="0"/>
        <pt x="370" y="457" on="0"/>
        <pt x="372" y="484" on="1"/>
        <pt x="375" y="511" on="1"/>
        <pt x="375" y="549" on="0"/>
        <pt x="352" y="604" on="0"/>
        <pt x="322" y="631" on="0"/>
        <pt x="302" y="638" on="1"/>
        <pt x="277" y="648" on="0"/>
        <pt x="222" y="648" on="0"/>
        <pt x="188" y="637" on="0"/>
        <pt x="186" y="632" on="1"/>
        <pt x="185" y="626" on="1"/>
        <pt x="176" y="491" on="0"/>
        <pt x="176" y="278" on="0"/>
        <pt x="183" y="124" on="0"/>
        <pt x="190" y="41" on="0"/>
        <pt x="190" y="37" on="1"/>
        <pt x="190" y="12" on="0"/>
        <pt x="102" y="-18" on="0"/>
        <pt x="59" y="-18" on="1"/>
        <pt x="39" y="-18" on="0"/>
        <pt x="39" y="-8" on="1"/>
        <pt x="39" y="-5" on="0"/>
        <pt x="42" y="6" on="1"/>
        <pt x="61" y="50" on="0"/>
        <pt x="61" y="415" on="1"/>
        <pt x="61" y="630" on="0"/>
        <pt x="32" y="661" on="1"/>
        <pt x="26" y="667" on="0"/>
        <pt x="26" y="680" on="0"/>
        <pt x="55" y="696" on="0"/>
        <pt x="189" y="717" on="0"/>
        <pt x="264" y="717" on="1"/>
        <pt x="382" y="717" on="0"/>
        <pt x="501" y="589" on="0"/>
        <pt x="501" y="412" on="0"/>
        <pt x="404" y="282" on="0"/>
        <pt x="326" y="282" on="1"/>
        <pt x="301" y="282" on="0"/>
        <pt x="276" y="291" on="1"/>
        <pt x="226" y="309" on="0"/>
        <pt x="226" y="366" on="1"/>
        <pt x="226" y="378" on="0"/>
        <pt x="242" y="419" on="0"/>
      </contour>
    </TTGlyph>
    <TTGlyph name="Q" xMin="18" yMin="-59" xMax="543" yMax="716">
      <contour>
        <pt x="228" y="606" on="1"/>
        <pt x="186" y="560" on="0"/>
        <pt x="186" y="419" on="0"/>
        <pt x="222" y="405" on="1"/>
        <pt x="231" y="402" on="0"/>
        <pt x="231" y="392" on="1"/>
        <pt x="231" y="362" on="0"/>
        <pt x="191" y="321" on="0"/>
        <pt x="162" y="317" on="1"/>
        <pt x="153" y="317" on="0"/>
        <pt x="153" y="310" on="1"/>
        <pt x="152" y="299" on="0"/>
        <pt x="152" y="258" on="0"/>
        <pt x="156" y="209" on="0"/>
        <pt x="171" y="142" on="0"/>
        <pt x="196" y="93" on="0"/>
        <pt x="243" y="58" on="0"/>
        <pt x="305" y="58" on="0"/>
        <pt x="331" y="76" on="1"/>
        <pt x="308" y="128" on="0"/>
        <pt x="283" y="150" on="1"/>
        <pt x="275" y="157" on="1"/>
        <pt x="272" y="161" on="0"/>
        <pt x="272" y="165" on="1"/>
        <pt x="272" y="176" on="0"/>
        <pt x="292" y="176" on="1"/>
        <pt x="333" y="176" on="0"/>
        <pt x="376" y="133" on="1"/>
        <pt x="414" y="211" on="0"/>
        <pt x="414" y="336" on="1"/>
        <pt x="414" y="538" on="0"/>
        <pt x="347" y="604" on="1"/>
        <pt x="318" y="632" on="0"/>
        <pt x="252" y="632" on="0"/>
      </contour>
      <contour>
        <pt x="108" y="543" on="1"/>
        <pt x="112" y="549" on="1"/>
        <pt x="122" y="595" on="0"/>
        <pt x="167" y="662" on="0"/>
        <pt x="212" y="695" on="0"/>
        <pt x="240" y="704" on="1"/>
        <pt x="277" y="716" on="0"/>
        <pt x="305" y="716" on="1"/>
        <pt x="372" y="716" on="0"/>
        <pt x="469" y="654" on="0"/>
        <pt x="494" y="601" on="1"/>
        <pt x="540" y="500" on="0"/>
        <pt x="540" y="372" on="1"/>
        <pt x="540" y="157" on="0"/>
        <pt x="438" y="55" on="1"/>
        <pt x="485" y="3" on="0"/>
        <pt x="530" y="3" on="1"/>
        <pt x="543" y="3" on="0"/>
        <pt x="543" y="-6" on="1"/>
        <pt x="543" y="-22" on="0"/>
        <pt x="469" y="-59" on="0"/>
        <pt x="427" y="-59" on="1"/>
        <pt x="395" y="-56" on="1"/>
        <pt x="382" y="-54" on="0"/>
        <pt x="366" y="-39" on="0"/>
        <pt x="364" y="-26" on="1"/>
        <pt x="357" y="2" on="1"/>
        <pt x="310" y="-17" on="0"/>
        <pt x="261" y="-17" on="1"/>
        <pt x="136" y="-17" on="0"/>
        <pt x="18" y="154" on="0"/>
        <pt x="18" y="285" on="1"/>
        <pt x="18" y="361" on="0"/>
        <pt x="44" y="488" on="0"/>
        <pt x="58" y="514" on="1"/>
        <pt x="71" y="540" on="1"/>
        <pt x="75" y="549" on="0"/>
        <pt x="93" y="549" on="0"/>
        <pt x="102" y="546" on="0"/>
        <pt x="107" y="543" on="0"/>
      </contour>
    </TTGlyph>
    <TTGlyph name="R" xMin="29" yMin="-20" xMax="541" yMax="716">
      <contour>
        <pt x="364" y="379" on="1"/>
        <pt x="353" y="376" on="0"/>
        <pt x="353" y="369" on="0"/>
        <pt x="401" y="351" on="0"/>
        <pt x="444" y="313" on="0"/>
        <pt x="453" y="286" on="1"/>
        <pt x="467" y="245" on="0"/>
        <pt x="467" y="151" on="0"/>
        <pt x="481" y="90" on="0"/>
        <pt x="491" y="74" on="1"/>
        <pt x="511" y="40" on="0"/>
        <pt x="528" y="32" on="1"/>
        <pt x="535" y="28" on="1"/>
        <pt x="541" y="24" on="0"/>
        <pt x="541" y="18" on="1"/>
        <pt x="541" y="3" on="0"/>
        <pt x="443" y="-20" on="0"/>
        <pt x="416" y="-20" on="1"/>
        <pt x="363" y="-20" on="0"/>
        <pt x="334" y="65" on="0"/>
        <pt x="334" y="168" on="1"/>
        <pt x="334" y="223" on="1"/>
        <pt x="334" y="310" on="0"/>
        <pt x="282" y="334" on="1"/>
        <pt x="262" y="343" on="0"/>
        <pt x="234" y="343" on="1"/>
        <pt x="233" y="343" on="1"/>
        <pt x="224" y="343" on="0"/>
        <pt x="224" y="378" on="0"/>
        <pt x="245" y="414" on="0"/>
        <pt x="253" y="414" on="1"/>
        <pt x="286" y="414" on="0"/>
        <pt x="334" y="439" on="0"/>
        <pt x="345" y="457" on="1"/>
        <pt x="368" y="495" on="0"/>
        <pt x="370" y="522" on="1"/>
        <pt x="370" y="535" on="1"/>
        <pt x="370" y="572" on="0"/>
        <pt x="346" y="623" on="0"/>
        <pt x="328" y="633" on="1"/>
        <pt x="298" y="649" on="0"/>
        <pt x="236" y="649" on="0"/>
        <pt x="216" y="644" on="1"/>
        <pt x="188" y="636" on="0"/>
        <pt x="188" y="627" on="1"/>
        <pt x="179" y="496" on="0"/>
        <pt x="179" y="253" on="0"/>
        <pt x="186" y="124" on="0"/>
        <pt x="193" y="45" on="0"/>
        <pt x="193" y="38" on="1"/>
        <pt x="193" y="25" on="0"/>
        <pt x="186" y="20" on="1"/>
        <pt x="145" y="-18" on="0"/>
        <pt x="57" y="-18" on="1"/>
        <pt x="42" y="-18" on="0"/>
        <pt x="42" y="-8" on="1"/>
        <pt x="42" y="-5" on="0"/>
        <pt x="45" y="6" on="1"/>
        <pt x="55" y="29" on="0"/>
        <pt x="64" y="275" on="0"/>
        <pt x="64" y="478" on="0"/>
        <pt x="60" y="541" on="1"/>
        <pt x="54" y="636" on="0"/>
        <pt x="40" y="655" on="1"/>
        <pt x="29" y="669" on="0"/>
        <pt x="29" y="680" on="0"/>
        <pt x="40" y="686" on="1"/>
        <pt x="104" y="716" on="0"/>
        <pt x="272" y="716" on="1"/>
        <pt x="407" y="716" on="0"/>
        <pt x="474" y="640" on="1"/>
        <pt x="510" y="598" on="0"/>
        <pt x="510" y="535" on="1"/>
        <pt x="510" y="497" on="0"/>
        <pt x="480" y="437" on="0"/>
        <pt x="458" y="421" on="1"/>
        <pt x="416" y="389" on="0"/>
        <pt x="379" y="382" on="1"/>
      </contour>
    </TTGlyph>
    <TTGlyph name="S" xMin="13" yMin="-21" xMax="494" yMax="721">
      <contour>
        <pt x="348" y="554" on="1"/>
        <pt x="352" y="585" on="1"/>
        <pt x="352" y="631" on="0"/>
        <pt x="316" y="644" on="1"/>
        <pt x="288" y="653" on="0"/>
        <pt x="273" y="653" on="1"/>
        <pt x="272" y="653" on="1"/>
        <pt x="242" y="653" on="0"/>
        <pt x="198" y="634" on="0"/>
        <pt x="188" y="620" on="1"/>
        <pt x="167" y="591" on="0"/>
        <pt x="164" y="559" on="1"/>
        <pt x="164" y="521" on="0"/>
        <pt x="232" y="466" on="0"/>
        <pt x="329" y="425" on="0"/>
        <pt x="426" y="377" on="0"/>
        <pt x="494" y="287" on="0"/>
        <pt x="494" y="224" on="1"/>
        <pt x="494" y="101" on="0"/>
        <pt x="339" y="-21" on="0"/>
        <pt x="142" y="-21" on="0"/>
        <pt x="13" y="68" on="0"/>
        <pt x="13" y="143" on="1"/>
        <pt x="13" y="144" on="1"/>
        <pt x="13" y="181" on="0"/>
        <pt x="36" y="236" on="0"/>
        <pt x="52" y="249" on="1"/>
        <pt x="85" y="276" on="0"/>
        <pt x="112" y="278" on="1"/>
        <pt x="124" y="279" on="1"/>
        <pt x="152" y="279" on="0"/>
        <pt x="198" y="252" on="0"/>
        <pt x="198" y="228" on="1"/>
        <pt x="198" y="216" on="0"/>
        <pt x="172" y="200" on="0"/>
        <pt x="153" y="168" on="0"/>
        <pt x="152" y="157" on="1"/>
        <pt x="150" y="146" on="1"/>
        <pt x="150" y="85" on="0"/>
        <pt x="206" y="65" on="1"/>
        <pt x="226" y="58" on="0"/>
        <pt x="238" y="58" on="1"/>
        <pt x="293" y="58" on="0"/>
        <pt x="360" y="124" on="0"/>
        <pt x="360" y="175" on="1"/>
        <pt x="360" y="236" on="0"/>
        <pt x="308" y="274" on="1"/>
        <pt x="269" y="302" on="0"/>
        <pt x="178" y="340" on="0"/>
        <pt x="146" y="356" on="0"/>
        <pt x="110" y="378" on="0"/>
        <pt x="88" y="398" on="1"/>
        <pt x="40" y="440" on="0"/>
        <pt x="40" y="583" on="0"/>
        <pt x="79" y="632" on="1"/>
        <pt x="149" y="721" on="0"/>
        <pt x="289" y="721" on="1"/>
        <pt x="363" y="721" on="0"/>
        <pt x="465" y="664" on="0"/>
        <pt x="465" y="614" on="1"/>
        <pt x="465" y="578" on="0"/>
        <pt x="424" y="530" on="0"/>
        <pt x="392" y="530" on="1"/>
        <pt x="377" y="530" on="0"/>
        <pt x="348" y="542" on="0"/>
      </contour>
    </TTGlyph>
    <TTGlyph name="Scaron" xMin="13" yMin="-21" xMax="494" yMax="895">
      <contour>
        <pt x="295" y="832" on="1"/>
        <pt x="389" y="895" on="0"/>
        <pt x="405" y="895" on="0"/>
        <pt x="405" y="886" on="1"/>
        <pt x="404" y="879" on="1"/>
        <pt x="367" y="809" on="0"/>
        <pt x="335" y="777" on="1"/>
        <pt x="331" y="772" on="0"/>
        <pt x="312" y="772" on="0"/>
        <pt x="295" y="786" on="1"/>
        <pt x="278" y="772" on="0"/>
        <pt x="267" y="772" on="1"/>
        <pt x="255" y="777" on="1"/>
        <pt x="221" y="813" on="0"/>
        <pt x="195" y="862" on="1"/>
        <pt x="186" y="879" on="1"/>
        <pt x="184" y="883" on="0"/>
        <pt x="184" y="887" on="1"/>
        <pt x="184" y="895" on="0"/>
        <pt x="202" y="895" on="0"/>
      </contour>
      <contour>
        <pt x="348" y="554" on="1"/>
        <pt x="352" y="585" on="1"/>
        <pt x="352" y="631" on="0"/>
        <pt x="316" y="644" on="1"/>
        <pt x="288" y="653" on="0"/>
        <pt x="273" y="653" on="1"/>
        <pt x="272" y="653" on="1"/>
        <pt x="242" y="653" on="0"/>
        <pt x="198" y="634" on="0"/>
        <pt x="188" y="620" on="1"/>
        <pt x="167" y="591" on="0"/>
        <pt x="164" y="559" on="1"/>
        <pt x="164" y="521" on="0"/>
        <pt x="232" y="466" on="0"/>
        <pt x="329" y="425" on="0"/>
        <pt x="426" y="377" on="0"/>
        <pt x="494" y="287" on="0"/>
        <pt x="494" y="224" on="1"/>
        <pt x="494" y="101" on="0"/>
        <pt x="339" y="-21" on="0"/>
        <pt x="142" y="-21" on="0"/>
        <pt x="13" y="68" on="0"/>
        <pt x="13" y="143" on="1"/>
        <pt x="13" y="144" on="1"/>
        <pt x="13" y="181" on="0"/>
        <pt x="36" y="236" on="0"/>
        <pt x="52" y="249" on="1"/>
        <pt x="85" y="276" on="0"/>
        <pt x="112" y="278" on="1"/>
        <pt x="124" y="279" on="1"/>
        <pt x="152" y="279" on="0"/>
        <pt x="198" y="252" on="0"/>
        <pt x="198" y="228" on="1"/>
        <pt x="198" y="216" on="0"/>
        <pt x="172" y="200" on="0"/>
        <pt x="153" y="168" on="0"/>
        <pt x="152" y="157" on="1"/>
        <pt x="150" y="146" on="1"/>
        <pt x="150" y="85" on="0"/>
        <pt x="206" y="65" on="1"/>
        <pt x="226" y="58" on="0"/>
        <pt x="238" y="58" on="1"/>
        <pt x="293" y="58" on="0"/>
        <pt x="360" y="124" on="0"/>
        <pt x="360" y="175" on="1"/>
        <pt x="360" y="236" on="0"/>
        <pt x="308" y="274" on="1"/>
        <pt x="269" y="302" on="0"/>
        <pt x="178" y="340" on="0"/>
        <pt x="146" y="356" on="0"/>
        <pt x="110" y="378" on="0"/>
        <pt x="88" y="398" on="1"/>
        <pt x="40" y="440" on="0"/>
        <pt x="40" y="583" on="0"/>
        <pt x="79" y="632" on="1"/>
        <pt x="149" y="721" on="0"/>
        <pt x="289" y="721" on="1"/>
        <pt x="363" y="721" on="0"/>
        <pt x="465" y="664" on="0"/>
        <pt x="465" y="614" on="1"/>
        <pt x="465" y="578" on="0"/>
        <pt x="424" y="530" on="0"/>
        <pt x="392" y="530" on="1"/>
        <pt x="377" y="530" on="0"/>
        <pt x="348" y="542" on="0"/>
      </contour>
    </TTGlyph>
    <TTGlyph name="T" xMin="-24" yMin="-20" xMax="405" yMax="731">
      <contour>
        <pt x="108" y="712" on="1"/>
        <pt x="252" y="704" on="1"/>
        <pt x="348" y="704" on="0"/>
        <pt x="390" y="727" on="1"/>
        <pt x="396" y="731" on="0"/>
        <pt x="405" y="731" on="0"/>
        <pt x="405" y="703" on="0"/>
        <pt x="388" y="671" on="1"/>
        <pt x="363" y="622" on="0"/>
        <pt x="316" y="622" on="1"/>
        <pt x="261" y="623" on="1"/>
        <pt x="253" y="623" on="0"/>
        <pt x="251" y="614" on="1"/>
        <pt x="244" y="467" on="0"/>
        <pt x="244" y="126" on="0"/>
        <pt x="258" y="40" on="1"/>
        <pt x="258" y="35" on="1"/>
        <pt x="258" y="10" on="0"/>
        <pt x="163" y="-20" on="0"/>
        <pt x="121" y="-20" on="1"/>
        <pt x="101" y="-20" on="0"/>
        <pt x="101" y="-9" on="1"/>
        <pt x="101" y="-6" on="0"/>
        <pt x="104" y="5" on="1"/>
        <pt x="115" y="27" on="0"/>
        <pt x="132" y="409" on="0"/>
        <pt x="132" y="506" on="1"/>
        <pt x="130" y="615" on="1"/>
        <pt x="130" y="621" on="0"/>
        <pt x="124" y="622" on="1"/>
        <pt x="103" y="626" on="0"/>
        <pt x="76" y="626" on="1"/>
        <pt x="22" y="626" on="0"/>
        <pt x="-4" y="604" on="1"/>
        <pt x="-11" y="599" on="0"/>
        <pt x="-24" y="599" on="0"/>
        <pt x="-24" y="607" on="1"/>
        <pt x="-24" y="619" on="0"/>
        <pt x="1" y="661" on="0"/>
        <pt x="15" y="676" on="1"/>
        <pt x="49" y="712" on="0"/>
      </contour>
    </TTGlyph>
    <TTGlyph name="Thorn" xMin="25" yMin="-18" xMax="501" yMax="713">
      <contour>
        <pt x="37" y="-9" on="1"/>
        <pt x="40" y="6" on="1"/>
        <pt x="59" y="48" on="0"/>
        <pt x="59" y="344" on="1"/>
        <pt x="59" y="624" on="0"/>
        <pt x="36" y="655" on="1"/>
        <pt x="31" y="661" on="1"/>
        <pt x="25" y="666" on="0"/>
        <pt x="25" y="681" on="0"/>
        <pt x="36" y="686" on="1"/>
        <pt x="51" y="695" on="0"/>
        <pt x="128" y="713" on="0"/>
        <pt x="190" y="713" on="0"/>
        <pt x="190" y="699" on="1"/>
        <pt x="190" y="696" on="1"/>
        <pt x="185" y="656" on="0"/>
        <pt x="181" y="591" on="1"/>
        <pt x="220" y="594" on="0"/>
        <pt x="264" y="594" on="1"/>
        <pt x="382" y="594" on="0"/>
        <pt x="501" y="466" on="0"/>
        <pt x="501" y="289" on="0"/>
        <pt x="404" y="159" on="0"/>
        <pt x="326" y="159" on="1"/>
        <pt x="301" y="159" on="0"/>
        <pt x="276" y="168" on="1"/>
        <pt x="226" y="186" on="0"/>
        <pt x="226" y="243" on="1"/>
        <pt x="226" y="255" on="0"/>
        <pt x="242" y="296" on="0"/>
        <pt x="257" y="296" on="1"/>
        <pt x="261" y="296" on="0"/>
        <pt x="283" y="280" on="0"/>
        <pt x="295" y="280" on="1"/>
        <pt x="296" y="280" on="1"/>
        <pt x="330" y="280" on="0"/>
        <pt x="370" y="334" on="0"/>
        <pt x="372" y="361" on="1"/>
        <pt x="375" y="388" on="1"/>
        <pt x="375" y="426" on="0"/>
        <pt x="352" y="481" on="0"/>
        <pt x="322" y="508" on="0"/>
        <pt x="302" y="516" on="1"/>
        <pt x="277" y="525" on="0"/>
        <pt x="222" y="525" on="0"/>
        <pt x="188" y="514" on="0"/>
        <pt x="186" y="508" on="1"/>
        <pt x="185" y="503" on="1"/>
        <pt x="176" y="368" on="0"/>
        <pt x="176" y="246" on="1"/>
        <pt x="176" y="241" on="1"/>
        <pt x="178" y="127" on="0"/>
        <pt x="186" y="54" on="1"/>
        <pt x="190" y="40" on="0"/>
        <pt x="190" y="37" on="1"/>
        <pt x="190" y="12" on="0"/>
        <pt x="102" y="-18" on="0"/>
        <pt x="59" y="-18" on="1"/>
        <pt x="53" y="-18" on="1"/>
        <pt x="37" y="-17" on="0"/>
      </contour>
    </TTGlyph>
    <TTGlyph name="U" xMin="29" yMin="-19" xMax="519" yMax="715">
      <contour>
        <pt x="51" y="174" on="1"/>
        <pt x="58" y="455" on="1"/>
        <pt x="58" y="520" on="0"/>
        <pt x="55" y="562" on="1"/>
        <pt x="50" y="637" on="0"/>
        <pt x="38" y="656" on="1"/>
        <pt x="34" y="662" on="1"/>
        <pt x="29" y="666" on="0"/>
        <pt x="29" y="672" on="1"/>
        <pt x="29" y="691" on="0"/>
        <pt x="129" y="714" on="0"/>
        <pt x="197" y="714" on="0"/>
        <pt x="197" y="695" on="1"/>
        <pt x="196" y="684" on="1"/>
        <pt x="182" y="585" on="0"/>
        <pt x="176" y="314" on="0"/>
        <pt x="176" y="230" on="0"/>
        <pt x="182" y="174" on="0"/>
        <pt x="183" y="165" on="0"/>
        <pt x="192" y="140" on="0"/>
        <pt x="199" y="130" on="1"/>
        <pt x="217" y="106" on="0"/>
        <pt x="283" y="106" on="0"/>
        <pt x="328" y="136" on="0"/>
        <pt x="339" y="158" on="1"/>
        <pt x="362" y="205" on="0"/>
        <pt x="367" y="239" on="1"/>
        <pt x="369" y="254" on="1"/>
        <pt x="374" y="325" on="0"/>
        <pt x="374" y="519" on="0"/>
        <pt x="372" y="579" on="0"/>
        <pt x="368" y="618" on="0"/>
        <pt x="365" y="648" on="0"/>
        <pt x="363" y="665" on="0"/>
        <pt x="363" y="666" on="1"/>
        <pt x="363" y="677" on="0"/>
        <pt x="374" y="684" on="1"/>
        <pt x="391" y="697" on="0"/>
        <pt x="462" y="715" on="0"/>
        <pt x="518" y="715" on="0"/>
        <pt x="518" y="702" on="1"/>
        <pt x="518" y="700" on="0"/>
        <pt x="513" y="669" on="1"/>
        <pt x="491" y="533" on="0"/>
        <pt x="491" y="291" on="1"/>
        <pt x="491" y="112" on="0"/>
        <pt x="515" y="36" on="1"/>
        <pt x="519" y="24" on="0"/>
        <pt x="519" y="15" on="0"/>
        <pt x="511" y="8" on="1"/>
        <pt x="481" y="-15" on="0"/>
        <pt x="382" y="-15" on="0"/>
        <pt x="378" y="10" on="1"/>
        <pt x="373" y="23" on="0"/>
        <pt x="372" y="62" on="1"/>
        <pt x="371" y="74" on="1"/>
        <pt x="371" y="83" on="0"/>
        <pt x="367" y="83" on="1"/>
        <pt x="356" y="76" on="1"/>
        <pt x="337" y="44" on="0"/>
        <pt x="287" y="1" on="0"/>
        <pt x="264" y="-7" on="1"/>
        <pt x="231" y="-19" on="0"/>
        <pt x="168" y="-19" on="0"/>
        <pt x="105" y="14" on="0"/>
        <pt x="74" y="58" on="0"/>
        <pt x="64" y="88" on="1"/>
        <pt x="51" y="131" on="0"/>
      </contour>
    </TTGlyph>
    <TTGlyph name="Uacute" xMin="29" yMin="-19" xMax="519" yMax="880">
      <contour>
        <pt x="273" y="754" on="1"/>
        <pt x="268" y="750" on="0"/>
        <pt x="263" y="750" on="1"/>
        <pt x="255" y="750" on="0"/>
        <pt x="255" y="759" on="1"/>
        <pt x="257" y="767" on="1"/>
        <pt x="284" y="821" on="0"/>
        <pt x="329" y="875" on="1"/>
        <pt x="333" y="880" on="0"/>
        <pt x="350" y="880" on="0"/>
        <pt x="390" y="851" on="0"/>
        <pt x="390" y="830" on="0"/>
        <pt x="381" y="824" on="1"/>
        <pt x="339" y="790" on="0"/>
      </contour>
      <contour>
        <pt x="51" y="174" on="1"/>
        <pt x="58" y="455" on="1"/>
        <pt x="58" y="520" on="0"/>
        <pt x="55" y="562" on="1"/>
        <pt x="50" y="637" on="0"/>
        <pt x="38" y="656" on="1"/>
        <pt x="34" y="662" on="1"/>
        <pt x="29" y="666" on="0"/>
        <pt x="29" y="672" on="1"/>
        <pt x="29" y="691" on="0"/>
        <pt x="129" y="714" on="0"/>
        <pt x="197" y="714" on="0"/>
        <pt x="197" y="695" on="1"/>
        <pt x="196" y="684" on="1"/>
        <pt x="182" y="585" on="0"/>
        <pt x="176" y="314" on="0"/>
        <pt x="176" y="230" on="0"/>
        <pt x="182" y="174" on="0"/>
        <pt x="183" y="165" on="0"/>
        <pt x="192" y="140" on="0"/>
        <pt x="199" y="130" on="1"/>
        <pt x="217" y="106" on="0"/>
        <pt x="283" y="106" on="0"/>
        <pt x="328" y="136" on="0"/>
        <pt x="339" y="158" on="1"/>
        <pt x="362" y="205" on="0"/>
        <pt x="367" y="239" on="1"/>
        <pt x="369" y="254" on="1"/>
        <pt x="374" y="325" on="0"/>
        <pt x="374" y="519" on="0"/>
        <pt x="372" y="579" on="0"/>
        <pt x="368" y="618" on="0"/>
        <pt x="365" y="648" on="0"/>
        <pt x="363" y="665" on="0"/>
        <pt x="363" y="666" on="1"/>
        <pt x="363" y="677" on="0"/>
        <pt x="374" y="684" on="1"/>
        <pt x="391" y="697" on="0"/>
        <pt x="462" y="715" on="0"/>
        <pt x="518" y="715" on="0"/>
        <pt x="518" y="702" on="1"/>
        <pt x="518" y="700" on="0"/>
        <pt x="513" y="669" on="1"/>
        <pt x="491" y="533" on="0"/>
        <pt x="491" y="291" on="1"/>
        <pt x="491" y="112" on="0"/>
        <pt x="515" y="36" on="1"/>
        <pt x="519" y="24" on="0"/>
        <pt x="519" y="15" on="0"/>
        <pt x="511" y="8" on="1"/>
        <pt x="481" y="-15" on="0"/>
        <pt x="382" y="-15" on="0"/>
        <pt x="378" y="10" on="1"/>
        <pt x="373" y="23" on="0"/>
        <pt x="372" y="62" on="1"/>
        <pt x="371" y="74" on="1"/>
        <pt x="371" y="83" on="0"/>
        <pt x="367" y="83" on="1"/>
        <pt x="356" y="76" on="1"/>
        <pt x="337" y="44" on="0"/>
        <pt x="287" y="1" on="0"/>
        <pt x="264" y="-7" on="1"/>
        <pt x="231" y="-19" on="0"/>
        <pt x="168" y="-19" on="0"/>
        <pt x="105" y="14" on="0"/>
        <pt x="74" y="58" on="0"/>
        <pt x="64" y="88" on="1"/>
        <pt x="51" y="131" on="0"/>
      </contour>
    </TTGlyph>
    <TTGlyph name="Ucircumflex" xMin="29" yMin="-19" xMax="519" yMax="862">
      <contour>
        <pt x="396" y="748" on="1"/>
        <pt x="396" y="739" on="0"/>
        <pt x="380" y="739" on="0"/>
        <pt x="286" y="802" on="1"/>
        <pt x="193" y="739" on="0"/>
        <pt x="175" y="739" on="0"/>
        <pt x="175" y="747" on="1"/>
        <pt x="177" y="755" on="1"/>
        <pt x="210" y="818" on="0"/>
        <pt x="246" y="857" on="1"/>
        <pt x="250" y="862" on="0"/>
        <pt x="268" y="862" on="0"/>
        <pt x="286" y="848" on="1"/>
        <pt x="303" y="862" on="0"/>
        <pt x="314" y="862" on="1"/>
        <pt x="326" y="857" on="1"/>
        <pt x="356" y="827" on="0"/>
        <pt x="385" y="774" on="1"/>
        <pt x="395" y="755" on="1"/>
        <pt x="396" y="752" on="0"/>
      </contour>
      <contour>
        <pt x="51" y="174" on="1"/>
        <pt x="58" y="455" on="1"/>
        <pt x="58" y="520" on="0"/>
        <pt x="55" y="562" on="1"/>
        <pt x="50" y="637" on="0"/>
        <pt x="38" y="656" on="1"/>
        <pt x="34" y="662" on="1"/>
        <pt x="29" y="666" on="0"/>
        <pt x="29" y="672" on="1"/>
        <pt x="29" y="691" on="0"/>
        <pt x="129" y="714" on="0"/>
        <pt x="197" y="714" on="0"/>
        <pt x="197" y="695" on="1"/>
        <pt x="196" y="684" on="1"/>
        <pt x="182" y="585" on="0"/>
        <pt x="176" y="314" on="0"/>
        <pt x="176" y="230" on="0"/>
        <pt x="182" y="174" on="0"/>
        <pt x="183" y="165" on="0"/>
        <pt x="192" y="140" on="0"/>
        <pt x="199" y="130" on="1"/>
        <pt x="217" y="106" on="0"/>
        <pt x="283" y="106" on="0"/>
        <pt x="328" y="136" on="0"/>
        <pt x="339" y="158" on="1"/>
        <pt x="362" y="205" on="0"/>
        <pt x="367" y="239" on="1"/>
        <pt x="369" y="254" on="1"/>
        <pt x="374" y="325" on="0"/>
        <pt x="374" y="519" on="0"/>
        <pt x="372" y="579" on="0"/>
        <pt x="368" y="618" on="0"/>
        <pt x="365" y="648" on="0"/>
        <pt x="363" y="665" on="0"/>
        <pt x="363" y="666" on="1"/>
        <pt x="363" y="677" on="0"/>
        <pt x="374" y="684" on="1"/>
        <pt x="391" y="697" on="0"/>
        <pt x="462" y="715" on="0"/>
        <pt x="518" y="715" on="0"/>
        <pt x="518" y="702" on="1"/>
        <pt x="518" y="700" on="0"/>
        <pt x="513" y="669" on="1"/>
        <pt x="491" y="533" on="0"/>
        <pt x="491" y="291" on="1"/>
        <pt x="491" y="112" on="0"/>
        <pt x="515" y="36" on="1"/>
        <pt x="519" y="24" on="0"/>
        <pt x="519" y="15" on="0"/>
        <pt x="511" y="8" on="1"/>
        <pt x="481" y="-15" on="0"/>
        <pt x="382" y="-15" on="0"/>
        <pt x="378" y="10" on="1"/>
        <pt x="373" y="23" on="0"/>
        <pt x="372" y="62" on="1"/>
        <pt x="371" y="74" on="1"/>
        <pt x="371" y="83" on="0"/>
        <pt x="367" y="83" on="1"/>
        <pt x="356" y="76" on="1"/>
        <pt x="337" y="44" on="0"/>
        <pt x="287" y="1" on="0"/>
        <pt x="264" y="-7" on="1"/>
        <pt x="231" y="-19" on="0"/>
        <pt x="168" y="-19" on="0"/>
        <pt x="105" y="14" on="0"/>
        <pt x="74" y="58" on="0"/>
        <pt x="64" y="88" on="1"/>
        <pt x="51" y="131" on="0"/>
      </contour>
    </TTGlyph>
    <TTGlyph name="Udieresis" xMin="29" yMin="-19" xMax="519" yMax="847">
      <contour>
        <pt x="376" y="767" on="1"/>
        <pt x="355" y="766" on="1"/>
        <pt x="336" y="766" on="0"/>
        <pt x="322" y="783" on="0"/>
        <pt x="322" y="829" on="0"/>
        <pt x="342" y="847" on="0"/>
        <pt x="396" y="847" on="0"/>
        <pt x="417" y="826" on="0"/>
        <pt x="417" y="806" on="1"/>
        <pt x="417" y="754" on="0"/>
        <pt x="407" y="754" on="1"/>
        <pt x="403" y="757" on="1"/>
        <pt x="397" y="767" on="0"/>
      </contour>
      <contour>
        <pt x="201" y="767" on="1"/>
        <pt x="180" y="766" on="1"/>
        <pt x="161" y="766" on="0"/>
        <pt x="147" y="783" on="0"/>
        <pt x="147" y="829" on="0"/>
        <pt x="167" y="847" on="0"/>
        <pt x="221" y="847" on="0"/>
        <pt x="242" y="826" on="0"/>
        <pt x="242" y="806" on="1"/>
        <pt x="242" y="771" on="0"/>
        <pt x="234" y="754" on="0"/>
        <pt x="232" y="754" on="1"/>
        <pt x="228" y="757" on="1"/>
        <pt x="222" y="767" on="0"/>
      </contour>
      <contour>
        <pt x="51" y="174" on="1"/>
        <pt x="58" y="455" on="1"/>
        <pt x="58" y="520" on="0"/>
        <pt x="55" y="562" on="1"/>
        <pt x="50" y="637" on="0"/>
        <pt x="38" y="656" on="1"/>
        <pt x="34" y="662" on="1"/>
        <pt x="29" y="666" on="0"/>
        <pt x="29" y="672" on="1"/>
        <pt x="29" y="691" on="0"/>
        <pt x="129" y="714" on="0"/>
        <pt x="197" y="714" on="0"/>
        <pt x="197" y="695" on="1"/>
        <pt x="196" y="684" on="1"/>
        <pt x="182" y="585" on="0"/>
        <pt x="176" y="314" on="0"/>
        <pt x="176" y="230" on="0"/>
        <pt x="182" y="174" on="0"/>
        <pt x="183" y="165" on="0"/>
        <pt x="192" y="140" on="0"/>
        <pt x="199" y="130" on="1"/>
        <pt x="217" y="106" on="0"/>
        <pt x="283" y="106" on="0"/>
        <pt x="328" y="136" on="0"/>
        <pt x="339" y="158" on="1"/>
        <pt x="362" y="205" on="0"/>
        <pt x="367" y="239" on="1"/>
        <pt x="369" y="254" on="1"/>
        <pt x="374" y="325" on="0"/>
        <pt x="374" y="519" on="0"/>
        <pt x="372" y="579" on="0"/>
        <pt x="368" y="618" on="0"/>
        <pt x="365" y="648" on="0"/>
        <pt x="363" y="665" on="0"/>
        <pt x="363" y="666" on="1"/>
        <pt x="363" y="677" on="0"/>
        <pt x="374" y="684" on="1"/>
        <pt x="391" y="697" on="0"/>
        <pt x="462" y="715" on="0"/>
        <pt x="518" y="715" on="0"/>
        <pt x="518" y="702" on="1"/>
        <pt x="518" y="700" on="0"/>
        <pt x="513" y="669" on="1"/>
        <pt x="491" y="533" on="0"/>
        <pt x="491" y="291" on="1"/>
        <pt x="491" y="112" on="0"/>
        <pt x="515" y="36" on="1"/>
        <pt x="519" y="24" on="0"/>
        <pt x="519" y="15" on="0"/>
        <pt x="511" y="8" on="1"/>
        <pt x="481" y="-15" on="0"/>
        <pt x="382" y="-15" on="0"/>
        <pt x="378" y="10" on="1"/>
        <pt x="373" y="23" on="0"/>
        <pt x="372" y="62" on="1"/>
        <pt x="371" y="74" on="1"/>
        <pt x="371" y="83" on="0"/>
        <pt x="367" y="83" on="1"/>
        <pt x="356" y="76" on="1"/>
        <pt x="337" y="44" on="0"/>
        <pt x="287" y="1" on="0"/>
        <pt x="264" y="-7" on="1"/>
        <pt x="231" y="-19" on="0"/>
        <pt x="168" y="-19" on="0"/>
        <pt x="105" y="14" on="0"/>
        <pt x="74" y="58" on="0"/>
        <pt x="64" y="88" on="1"/>
        <pt x="51" y="131" on="0"/>
      </contour>
    </TTGlyph>
    <TTGlyph name="Ugrave" xMin="29" yMin="-19" xMax="519" yMax="864">
      <contour>
        <pt x="338" y="740" on="0"/>
        <pt x="333" y="734" on="0"/>
        <pt x="324" y="734" on="0"/>
        <pt x="232" y="793" on="0"/>
        <pt x="204" y="814" on="0"/>
        <pt x="204" y="835" on="0"/>
        <pt x="243" y="864" on="0"/>
        <pt x="252" y="864" on="1"/>
        <pt x="264" y="859" on="1"/>
        <pt x="279" y="844" on="0"/>
        <pt x="338" y="753" on="0"/>
      </contour>
      <contour>
        <pt x="51" y="174" on="1"/>
        <pt x="58" y="455" on="1"/>
        <pt x="58" y="520" on="0"/>
        <pt x="55" y="562" on="1"/>
        <pt x="50" y="637" on="0"/>
        <pt x="38" y="656" on="1"/>
        <pt x="34" y="662" on="1"/>
        <pt x="29" y="666" on="0"/>
        <pt x="29" y="672" on="1"/>
        <pt x="29" y="691" on="0"/>
        <pt x="129" y="714" on="0"/>
        <pt x="197" y="714" on="0"/>
        <pt x="197" y="695" on="1"/>
        <pt x="196" y="684" on="1"/>
        <pt x="182" y="585" on="0"/>
        <pt x="176" y="314" on="0"/>
        <pt x="176" y="230" on="0"/>
        <pt x="182" y="174" on="0"/>
        <pt x="183" y="165" on="0"/>
        <pt x="192" y="140" on="0"/>
        <pt x="199" y="130" on="1"/>
        <pt x="217" y="106" on="0"/>
        <pt x="283" y="106" on="0"/>
        <pt x="328" y="136" on="0"/>
        <pt x="339" y="158" on="1"/>
        <pt x="362" y="205" on="0"/>
        <pt x="367" y="239" on="1"/>
        <pt x="369" y="254" on="1"/>
        <pt x="374" y="325" on="0"/>
        <pt x="374" y="519" on="0"/>
        <pt x="372" y="579" on="0"/>
        <pt x="368" y="618" on="0"/>
        <pt x="365" y="648" on="0"/>
        <pt x="363" y="665" on="0"/>
        <pt x="363" y="666" on="1"/>
        <pt x="363" y="677" on="0"/>
        <pt x="374" y="684" on="1"/>
        <pt x="391" y="697" on="0"/>
        <pt x="462" y="715" on="0"/>
        <pt x="518" y="715" on="0"/>
        <pt x="518" y="702" on="1"/>
        <pt x="518" y="700" on="0"/>
        <pt x="513" y="669" on="1"/>
        <pt x="491" y="533" on="0"/>
        <pt x="491" y="291" on="1"/>
        <pt x="491" y="112" on="0"/>
        <pt x="515" y="36" on="1"/>
        <pt x="519" y="24" on="0"/>
        <pt x="519" y="15" on="0"/>
        <pt x="511" y="8" on="1"/>
        <pt x="481" y="-15" on="0"/>
        <pt x="382" y="-15" on="0"/>
        <pt x="378" y="10" on="1"/>
        <pt x="373" y="23" on="0"/>
        <pt x="372" y="62" on="1"/>
        <pt x="371" y="74" on="1"/>
        <pt x="371" y="83" on="0"/>
        <pt x="367" y="83" on="1"/>
        <pt x="356" y="76" on="1"/>
        <pt x="337" y="44" on="0"/>
        <pt x="287" y="1" on="0"/>
        <pt x="264" y="-7" on="1"/>
        <pt x="231" y="-19" on="0"/>
        <pt x="168" y="-19" on="0"/>
        <pt x="105" y="14" on="0"/>
        <pt x="74" y="58" on="0"/>
        <pt x="64" y="88" on="1"/>
        <pt x="51" y="131" on="0"/>
      </contour>
    </TTGlyph>
    <TTGlyph name="V" xMin="-24" yMin="-27" xMax="538" yMax="722">
      <contour>
        <pt x="135" y="234" on="1"/>
        <pt x="129" y="256" on="0"/>
        <pt x="77" y="498" on="0"/>
        <pt x="23" y="642" on="0"/>
        <pt x="-14" y="666" on="1"/>
        <pt x="-24" y="671" on="0"/>
        <pt x="-24" y="679" on="1"/>
        <pt x="-24" y="698" on="0"/>
        <pt x="84" y="722" on="0"/>
        <pt x="143" y="722" on="0"/>
        <pt x="149" y="705" on="1"/>
        <pt x="167" y="668" on="0"/>
        <pt x="195" y="539" on="1"/>
        <pt x="252" y="269" on="0"/>
        <pt x="279" y="199" on="1"/>
        <pt x="285" y="185" on="0"/>
        <pt x="303" y="185" on="0"/>
        <pt x="322" y="220" on="0"/>
        <pt x="355" y="285" on="0"/>
        <pt x="411" y="451" on="0"/>
        <pt x="411" y="512" on="1"/>
        <pt x="411" y="606" on="0"/>
        <pt x="349" y="645" on="1"/>
        <pt x="344" y="651" on="0"/>
        <pt x="344" y="658" on="1"/>
        <pt x="344" y="679" on="0"/>
        <pt x="460" y="721" on="0"/>
        <pt x="507" y="721" on="1"/>
        <pt x="538" y="721" on="0"/>
        <pt x="538" y="692" on="1"/>
        <pt x="538" y="602" on="0"/>
        <pt x="466" y="365" on="0"/>
        <pt x="366" y="162" on="0"/>
        <pt x="323" y="88" on="1"/>
        <pt x="255" y="-27" on="0"/>
        <pt x="237" y="-27" on="1"/>
        <pt x="228" y="-27" on="0"/>
        <pt x="220" y="-13" on="1"/>
        <pt x="190" y="30" on="0"/>
        <pt x="148" y="184" on="1"/>
      </contour>
    </TTGlyph>
    <TTGlyph name="W" xMin="-24" yMin="-27" xMax="843" yMax="722">
      <contour>
        <pt x="381" y="380" on="0"/>
        <pt x="394" y="433" on="0"/>
        <pt x="394" y="478" on="0"/>
        <pt x="378" y="539" on="1"/>
        <pt x="350" y="641" on="0"/>
        <pt x="330" y="660" on="1"/>
        <pt x="324" y="667" on="1"/>
        <pt x="314" y="673" on="0"/>
        <pt x="314" y="681" on="1"/>
        <pt x="314" y="698" on="0"/>
        <pt x="404" y="722" on="0"/>
        <pt x="461" y="722" on="0"/>
        <pt x="466" y="705" on="1"/>
        <pt x="478" y="668" on="0"/>
        <pt x="507" y="528" on="0"/>
        <pt x="528" y="427" on="0"/>
        <pt x="540" y="373" on="0"/>
        <pt x="550" y="330" on="1"/>
        <pt x="569" y="250" on="0"/>
        <pt x="588" y="199" on="1"/>
        <pt x="594" y="185" on="0"/>
        <pt x="611" y="185" on="0"/>
        <pt x="630" y="220" on="0"/>
        <pt x="663" y="285" on="0"/>
        <pt x="718" y="451" on="0"/>
        <pt x="718" y="512" on="1"/>
        <pt x="718" y="606" on="0"/>
        <pt x="656" y="645" on="1"/>
        <pt x="651" y="651" on="0"/>
        <pt x="651" y="665" on="0"/>
        <pt x="658" y="672" on="1"/>
        <pt x="665" y="677" on="0"/>
        <pt x="691" y="694" on="0"/>
        <pt x="769" y="721" on="0"/>
        <pt x="831" y="721" on="0"/>
        <pt x="843" y="704" on="0"/>
        <pt x="843" y="682" on="1"/>
        <pt x="843" y="585" on="0"/>
        <pt x="728" y="264" on="0"/>
        <pt x="599" y="19" on="0"/>
        <pt x="567" y="-12" on="1"/>
        <pt x="550" y="-27" on="0"/>
        <pt x="547" y="-27" on="1"/>
        <pt x="538" y="-27" on="0"/>
        <pt x="530" y="-13" on="1"/>
        <pt x="496" y="44" on="0"/>
        <pt x="456" y="210" on="1"/>
        <pt x="438" y="288" on="0"/>
        <pt x="432" y="308" on="0"/>
        <pt x="430" y="308" on="1"/>
        <pt x="425" y="308" on="0"/>
        <pt x="421" y="298" on="1"/>
        <pt x="386" y="217" on="0"/>
        <pt x="300" y="62" on="0"/>
        <pt x="274" y="25" on="1"/>
        <pt x="249" y="-12" on="1"/>
        <pt x="239" y="-26" on="0"/>
        <pt x="219" y="-26" on="0"/>
        <pt x="211" y="-13" on="1"/>
        <pt x="184" y="38" on="0"/>
        <pt x="145" y="184" on="1"/>
        <pt x="132" y="234" on="1"/>
        <pt x="128" y="248" on="0"/>
        <pt x="114" y="310" on="1"/>
        <pt x="61" y="547" on="0"/>
        <pt x="33" y="606" on="1"/>
        <pt x="17" y="639" on="0"/>
        <pt x="-6" y="659" on="0"/>
        <pt x="-13" y="661" on="1"/>
        <pt x="-24" y="666" on="0"/>
        <pt x="-24" y="681" on="0"/>
        <pt x="-16" y="688" on="1"/>
        <pt x="-4" y="697" on="0"/>
        <pt x="78" y="722" on="0"/>
        <pt x="134" y="722" on="0"/>
        <pt x="139" y="705" on="1"/>
        <pt x="159" y="668" on="0"/>
        <pt x="186" y="539" on="1"/>
        <pt x="243" y="269" on="0"/>
        <pt x="270" y="199" on="1"/>
        <pt x="275" y="185" on="0"/>
        <pt x="293" y="185" on="0"/>
        <pt x="300" y="200" on="1"/>
        <pt x="309" y="209" on="0"/>
        <pt x="362" y="330" on="0"/>
      </contour>
    </TTGlyph>
    <TTGlyph name="X" xMin="-9" yMin="-19" xMax="596" yMax="719">
      <contour>
        <pt x="527" y="629" on="0"/>
        <pt x="480" y="569" on="0"/>
        <pt x="371" y="402" on="0"/>
        <pt x="371" y="387" on="1"/>
        <pt x="373" y="380" on="1"/>
        <pt x="494" y="100" on="0"/>
        <pt x="583" y="54" on="1"/>
        <pt x="594" y="50" on="0"/>
        <pt x="594" y="42" on="1"/>
        <pt x="594" y="24" on="0"/>
        <pt x="539" y="4" on="1"/>
        <pt x="507" y="-7" on="0"/>
        <pt x="456" y="-7" on="0"/>
        <pt x="435" y="3" on="0"/>
        <pt x="413" y="29" on="0"/>
        <pt x="396" y="56" on="0"/>
        <pt x="369" y="112" on="0"/>
        <pt x="348" y="159" on="0"/>
        <pt x="310" y="245" on="0"/>
        <pt x="294" y="280" on="1"/>
        <pt x="291" y="285" on="0"/>
        <pt x="283" y="285" on="0"/>
        <pt x="279" y="279" on="1"/>
        <pt x="202" y="149" on="0"/>
        <pt x="162" y="34" on="1"/>
        <pt x="157" y="12" on="0"/>
        <pt x="79" y="-19" on="0"/>
        <pt x="-9" y="-19" on="0"/>
        <pt x="-9" y="-6" on="1"/>
        <pt x="-9" y="-1" on="0"/>
        <pt x="4" y="10" on="0"/>
        <pt x="20" y="25" on="0"/>
        <pt x="71" y="84" on="0"/>
        <pt x="98" y="121" on="1"/>
        <pt x="169" y="220" on="0"/>
        <pt x="241" y="367" on="1"/>
        <pt x="244" y="373" on="0"/>
        <pt x="244" y="377" on="1"/>
        <pt x="242" y="384" on="1"/>
        <pt x="164" y="575" on="0"/>
        <pt x="102" y="640" on="1"/>
        <pt x="87" y="655" on="0"/>
        <pt x="74" y="659" on="1"/>
        <pt x="64" y="665" on="0"/>
        <pt x="64" y="674" on="1"/>
        <pt x="64" y="692" on="0"/>
        <pt x="166" y="719" on="0"/>
        <pt x="223" y="719" on="0"/>
        <pt x="245" y="683" on="0"/>
        <pt x="270" y="621" on="0"/>
        <pt x="284" y="586" on="1"/>
        <pt x="319" y="497" on="0"/>
        <pt x="331" y="475" on="0"/>
        <pt x="338" y="475" on="0"/>
        <pt x="341" y="480" on="1"/>
        <pt x="402" y="589" on="0"/>
        <pt x="444" y="682" on="1"/>
        <pt x="451" y="701" on="0"/>
        <pt x="516" y="715" on="0"/>
        <pt x="596" y="715" on="0"/>
        <pt x="596" y="704" on="1"/>
        <pt x="596" y="698" on="0"/>
        <pt x="583" y="687" on="0"/>
        <pt x="570" y="676" on="0"/>
      </contour>
    </TTGlyph>
    <TTGlyph name="Y" xMin="-25" yMin="-25" xMax="566" yMax="720">
      <contour>
        <pt x="390" y="650" on="1"/>
        <pt x="386" y="687" on="1"/>
        <pt x="386" y="705" on="0"/>
        <pt x="478" y="720" on="0"/>
        <pt x="566" y="720" on="0"/>
        <pt x="566" y="705" on="1"/>
        <pt x="566" y="698" on="0"/>
        <pt x="556" y="688" on="1"/>
        <pt x="517" y="647" on="0"/>
        <pt x="406" y="461" on="0"/>
        <pt x="370" y="388" on="1"/>
        <pt x="334" y="316" on="1"/>
        <pt x="316" y="278" on="0"/>
        <pt x="316" y="187" on="0"/>
        <pt x="322" y="98" on="0"/>
        <pt x="328" y="36" on="0"/>
        <pt x="328" y="31" on="1"/>
        <pt x="328" y="6" on="0"/>
        <pt x="236" y="-25" on="0"/>
        <pt x="177" y="-25" on="0"/>
        <pt x="177" y="-14" on="1"/>
        <pt x="180" y="-1" on="1"/>
        <pt x="197" y="90" on="0"/>
        <pt x="197" y="215" on="1"/>
        <pt x="197" y="246" on="0"/>
        <pt x="187" y="292" on="1"/>
        <pt x="184" y="305" on="1"/>
        <pt x="120" y="478" on="0"/>
        <pt x="64" y="560" on="1"/>
        <pt x="16" y="633" on="0"/>
        <pt x="-6" y="646" on="1"/>
        <pt x="-15" y="652" on="1"/>
        <pt x="-25" y="658" on="0"/>
        <pt x="-25" y="666" on="1"/>
        <pt x="-25" y="683" on="0"/>
        <pt x="79" y="719" on="0"/>
        <pt x="132" y="719" on="0"/>
        <pt x="141" y="703" on="1"/>
        <pt x="231" y="515" on="0"/>
        <pt x="281" y="399" on="1"/>
        <pt x="284" y="393" on="0"/>
        <pt x="295" y="393" on="0"/>
        <pt x="310" y="417" on="0"/>
        <pt x="340" y="469" on="0"/>
        <pt x="390" y="602" on="0"/>
      </contour>
    </TTGlyph>
    <TTGlyph name="Yacute" xMin="-25" yMin="-25" xMax="566" yMax="887">
      <contour>
        <pt x="273" y="761" on="1"/>
        <pt x="268" y="757" on="0"/>
        <pt x="263" y="757" on="1"/>
        <pt x="255" y="757" on="0"/>
        <pt x="255" y="766" on="1"/>
        <pt x="257" y="774" on="1"/>
        <pt x="284" y="828" on="0"/>
        <pt x="329" y="882" on="1"/>
        <pt x="333" y="887" on="0"/>
        <pt x="350" y="887" on="0"/>
        <pt x="390" y="858" on="0"/>
        <pt x="390" y="837" on="0"/>
        <pt x="381" y="831" on="1"/>
        <pt x="339" y="797" on="0"/>
      </contour>
      <contour>
        <pt x="390" y="650" on="1"/>
        <pt x="386" y="687" on="1"/>
        <pt x="386" y="705" on="0"/>
        <pt x="478" y="720" on="0"/>
        <pt x="566" y="720" on="0"/>
        <pt x="566" y="705" on="1"/>
        <pt x="566" y="698" on="0"/>
        <pt x="556" y="688" on="1"/>
        <pt x="517" y="647" on="0"/>
        <pt x="406" y="461" on="0"/>
        <pt x="370" y="388" on="1"/>
        <pt x="334" y="316" on="1"/>
        <pt x="316" y="278" on="0"/>
        <pt x="316" y="187" on="0"/>
        <pt x="322" y="98" on="0"/>
        <pt x="328" y="36" on="0"/>
        <pt x="328" y="31" on="1"/>
        <pt x="328" y="6" on="0"/>
        <pt x="236" y="-25" on="0"/>
        <pt x="177" y="-25" on="0"/>
        <pt x="177" y="-14" on="1"/>
        <pt x="180" y="-1" on="1"/>
        <pt x="197" y="90" on="0"/>
        <pt x="197" y="215" on="1"/>
        <pt x="197" y="246" on="0"/>
        <pt x="187" y="292" on="1"/>
        <pt x="184" y="305" on="1"/>
        <pt x="120" y="478" on="0"/>
        <pt x="64" y="560" on="1"/>
        <pt x="16" y="633" on="0"/>
        <pt x="-6" y="646" on="1"/>
        <pt x="-15" y="652" on="1"/>
        <pt x="-25" y="658" on="0"/>
        <pt x="-25" y="666" on="1"/>
        <pt x="-25" y="683" on="0"/>
        <pt x="79" y="719" on="0"/>
        <pt x="132" y="719" on="0"/>
        <pt x="141" y="703" on="1"/>
        <pt x="231" y="515" on="0"/>
        <pt x="281" y="399" on="1"/>
        <pt x="284" y="393" on="0"/>
        <pt x="295" y="393" on="0"/>
        <pt x="310" y="417" on="0"/>
        <pt x="340" y="469" on="0"/>
        <pt x="390" y="602" on="0"/>
      </contour>
    </TTGlyph>
    <TTGlyph name="Ydieresis" xMin="-25" yMin="-25" xMax="566" yMax="870">
      <contour>
        <pt x="367" y="790" on="1"/>
        <pt x="346" y="789" on="1"/>
        <pt x="327" y="789" on="0"/>
        <pt x="313" y="806" on="0"/>
        <pt x="313" y="852" on="0"/>
        <pt x="333" y="870" on="0"/>
        <pt x="387" y="870" on="0"/>
        <pt x="408" y="849" on="0"/>
        <pt x="408" y="829" on="1"/>
        <pt x="408" y="794" on="0"/>
        <pt x="400" y="777" on="0"/>
        <pt x="398" y="777" on="1"/>
        <pt x="394" y="780" on="1"/>
        <pt x="388" y="790" on="0"/>
      </contour>
      <contour>
        <pt x="192" y="790" on="1"/>
        <pt x="171" y="789" on="1"/>
        <pt x="152" y="789" on="0"/>
        <pt x="138" y="806" on="0"/>
        <pt x="138" y="852" on="0"/>
        <pt x="158" y="870" on="0"/>
        <pt x="212" y="870" on="0"/>
        <pt x="233" y="849" on="0"/>
        <pt x="233" y="829" on="1"/>
        <pt x="233" y="777" on="0"/>
        <pt x="223" y="777" on="1"/>
        <pt x="219" y="780" on="1"/>
        <pt x="213" y="790" on="0"/>
      </contour>
      <contour>
        <pt x="390" y="650" on="1"/>
        <pt x="386" y="687" on="1"/>
        <pt x="386" y="705" on="0"/>
        <pt x="478" y="720" on="0"/>
        <pt x="566" y="720" on="0"/>
        <pt x="566" y="705" on="1"/>
        <pt x="566" y="698" on="0"/>
        <pt x="556" y="688" on="1"/>
        <pt x="517" y="647" on="0"/>
        <pt x="406" y="461" on="0"/>
        <pt x="370" y="388" on="1"/>
        <pt x="334" y="316" on="1"/>
        <pt x="316" y="278" on="0"/>
        <pt x="316" y="187" on="0"/>
        <pt x="322" y="98" on="0"/>
        <pt x="328" y="36" on="0"/>
        <pt x="328" y="31" on="1"/>
        <pt x="328" y="6" on="0"/>
        <pt x="236" y="-25" on="0"/>
        <pt x="177" y="-25" on="0"/>
        <pt x="177" y="-14" on="1"/>
        <pt x="180" y="-1" on="1"/>
        <pt x="197" y="90" on="0"/>
        <pt x="197" y="215" on="1"/>
        <pt x="197" y="246" on="0"/>
        <pt x="187" y="292" on="1"/>
        <pt x="184" y="305" on="1"/>
        <pt x="120" y="478" on="0"/>
        <pt x="64" y="560" on="1"/>
        <pt x="16" y="633" on="0"/>
        <pt x="-6" y="646" on="1"/>
        <pt x="-15" y="652" on="1"/>
        <pt x="-25" y="658" on="0"/>
        <pt x="-25" y="666" on="1"/>
        <pt x="-25" y="683" on="0"/>
        <pt x="79" y="719" on="0"/>
        <pt x="132" y="719" on="0"/>
        <pt x="141" y="703" on="1"/>
        <pt x="231" y="515" on="0"/>
        <pt x="281" y="399" on="1"/>
        <pt x="284" y="393" on="0"/>
        <pt x="295" y="393" on="0"/>
        <pt x="310" y="417" on="0"/>
        <pt x="340" y="469" on="0"/>
        <pt x="390" y="602" on="0"/>
      </contour>
    </TTGlyph>
    <TTGlyph name="Z" xMin="-2" yMin="-8" xMax="515" yMax="708">
      <contour>
        <pt x="338" y="702" on="1"/>
        <pt x="494" y="708" on="1"/>
        <pt x="511" y="708" on="0"/>
        <pt x="511" y="690" on="1"/>
        <pt x="511" y="656" on="0"/>
        <pt x="191" y="125" on="0"/>
        <pt x="191" y="88" on="1"/>
        <pt x="191" y="60" on="0"/>
        <pt x="271" y="60" on="1"/>
        <pt x="329" y="60" on="0"/>
        <pt x="421" y="103" on="0"/>
        <pt x="421" y="150" on="1"/>
        <pt x="421" y="179" on="0"/>
        <pt x="377" y="209" on="0"/>
        <pt x="348" y="209" on="1"/>
        <pt x="333" y="209" on="0"/>
        <pt x="333" y="225" on="1"/>
        <pt x="333" y="258" on="0"/>
        <pt x="398" y="308" on="0"/>
        <pt x="436" y="308" on="1"/>
        <pt x="454" y="308" on="0"/>
        <pt x="474" y="297" on="1"/>
        <pt x="515" y="275" on="0"/>
        <pt x="515" y="204" on="1"/>
        <pt x="515" y="96" on="0"/>
        <pt x="460" y="10" on="1"/>
        <pt x="449" y="-7" on="0"/>
        <pt x="439" y="-7" on="1"/>
        <pt x="435" y="-7" on="1"/>
        <pt x="368" y="-3" on="0"/>
        <pt x="291" y="-3" on="1"/>
        <pt x="91" y="-8" on="1"/>
        <pt x="16" y="-6" on="1"/>
        <pt x="-2" y="-4" on="0"/>
        <pt x="-2" y="21" on="0"/>
        <pt x="37" y="106" on="0"/>
        <pt x="206" y="390" on="0"/>
        <pt x="230" y="432" on="1"/>
        <pt x="284" y="530" on="0"/>
        <pt x="314" y="598" on="1"/>
        <pt x="325" y="621" on="1"/>
        <pt x="327" y="627" on="0"/>
        <pt x="327" y="629" on="1"/>
        <pt x="327" y="640" on="0"/>
        <pt x="241" y="640" on="0"/>
        <pt x="170" y="616" on="0"/>
        <pt x="147" y="599" on="1"/>
        <pt x="100" y="564" on="0"/>
        <pt x="82" y="535" on="1"/>
        <pt x="74" y="523" on="1"/>
        <pt x="65" y="506" on="0"/>
        <pt x="58" y="504" on="1"/>
        <pt x="55" y="504" on="1"/>
        <pt x="49" y="504" on="0"/>
        <pt x="40" y="511" on="0"/>
        <pt x="40" y="516" on="1"/>
        <pt x="40" y="619" on="0"/>
        <pt x="58" y="680" on="1"/>
        <pt x="60" y="688" on="0"/>
        <pt x="80" y="703" on="0"/>
        <pt x="131" y="705" on="0"/>
        <pt x="184" y="705" on="1"/>
      </contour>
    </TTGlyph>
    <TTGlyph name="Zcaron" xMin="-2" yMin="-8" xMax="515" yMax="880">
      <contour>
        <pt x="306" y="817" on="1"/>
        <pt x="400" y="880" on="0"/>
        <pt x="416" y="880" on="0"/>
        <pt x="416" y="871" on="1"/>
        <pt x="415" y="864" on="1"/>
        <pt x="378" y="794" on="0"/>
        <pt x="346" y="762" on="1"/>
        <pt x="342" y="757" on="0"/>
        <pt x="324" y="757" on="0"/>
        <pt x="306" y="771" on="1"/>
        <pt x="288" y="757" on="0"/>
        <pt x="278" y="757" on="1"/>
        <pt x="266" y="762" on="1"/>
        <pt x="232" y="798" on="0"/>
        <pt x="206" y="847" on="1"/>
        <pt x="197" y="864" on="1"/>
        <pt x="195" y="868" on="0"/>
        <pt x="195" y="872" on="1"/>
        <pt x="195" y="880" on="0"/>
        <pt x="213" y="880" on="0"/>
      </contour>
      <contour>
        <pt x="338" y="702" on="1"/>
        <pt x="494" y="708" on="1"/>
        <pt x="511" y="708" on="0"/>
        <pt x="511" y="690" on="1"/>
        <pt x="511" y="656" on="0"/>
        <pt x="191" y="125" on="0"/>
        <pt x="191" y="88" on="1"/>
        <pt x="191" y="60" on="0"/>
        <pt x="271" y="60" on="1"/>
        <pt x="329" y="60" on="0"/>
        <pt x="421" y="103" on="0"/>
        <pt x="421" y="150" on="1"/>
        <pt x="421" y="179" on="0"/>
        <pt x="377" y="209" on="0"/>
        <pt x="348" y="209" on="1"/>
        <pt x="333" y="209" on="0"/>
        <pt x="333" y="225" on="1"/>
        <pt x="333" y="258" on="0"/>
        <pt x="398" y="308" on="0"/>
        <pt x="436" y="308" on="1"/>
        <pt x="454" y="308" on="0"/>
        <pt x="474" y="297" on="1"/>
        <pt x="515" y="275" on="0"/>
        <pt x="515" y="204" on="1"/>
        <pt x="515" y="96" on="0"/>
        <pt x="460" y="10" on="1"/>
        <pt x="449" y="-7" on="0"/>
        <pt x="439" y="-7" on="1"/>
        <pt x="435" y="-7" on="1"/>
        <pt x="368" y="-3" on="0"/>
        <pt x="291" y="-3" on="1"/>
        <pt x="91" y="-8" on="1"/>
        <pt x="16" y="-6" on="1"/>
        <pt x="-2" y="-4" on="0"/>
        <pt x="-2" y="21" on="0"/>
        <pt x="37" y="106" on="0"/>
        <pt x="206" y="390" on="0"/>
        <pt x="230" y="432" on="1"/>
        <pt x="284" y="530" on="0"/>
        <pt x="314" y="598" on="1"/>
        <pt x="325" y="621" on="1"/>
        <pt x="327" y="627" on="0"/>
        <pt x="327" y="629" on="1"/>
        <pt x="327" y="640" on="0"/>
        <pt x="241" y="640" on="0"/>
        <pt x="170" y="616" on="0"/>
        <pt x="147" y="599" on="1"/>
        <pt x="100" y="564" on="0"/>
        <pt x="82" y="535" on="1"/>
        <pt x="74" y="523" on="1"/>
        <pt x="65" y="506" on="0"/>
        <pt x="58" y="504" on="1"/>
        <pt x="55" y="504" on="1"/>
        <pt x="49" y="504" on="0"/>
        <pt x="40" y="511" on="0"/>
        <pt x="40" y="516" on="1"/>
        <pt x="40" y="619" on="0"/>
        <pt x="58" y="680" on="1"/>
        <pt x="60" y="688" on="0"/>
        <pt x="80" y="703" on="0"/>
        <pt x="131" y="705" on="0"/>
        <pt x="184" y="705" on="1"/>
      </contour>
    </TTGlyph>
    <TTGlyph name="a" xMin="11" yMin="-13" xMax="395" yMax="452">
      <contour>
        <pt x="364" y="300" on="1"/>
        <pt x="362" y="172" on="1"/>
        <pt x="362" y="39" on="0"/>
        <pt x="391" y="12" on="1"/>
        <pt x="395" y="8" on="0"/>
        <pt x="395" y="3" on="1"/>
        <pt x="395" y="-12" on="0"/>
        <pt x="266" y="-12" on="0"/>
        <pt x="262" y="26" on="1"/>
        <pt x="261" y="35" on="0"/>
        <pt x="261" y="63" on="1"/>
        <pt x="265" y="223" on="1"/>
        <pt x="265" y="230" on="0"/>
        <pt x="257" y="230" on="1"/>
        <pt x="209" y="230" on="0"/>
        <pt x="125" y="176" on="0"/>
        <pt x="125" y="134" on="1"/>
        <pt x="125" y="112" on="0"/>
        <pt x="149" y="82" on="0"/>
        <pt x="184" y="82" on="0"/>
        <pt x="207" y="96" on="0"/>
        <pt x="209" y="97" on="1"/>
        <pt x="226" y="95" on="0"/>
        <pt x="226" y="28" on="0"/>
        <pt x="164" y="-13" on="0"/>
        <pt x="96" y="-13" on="0"/>
        <pt x="47" y="11" on="0"/>
        <pt x="25" y="41" on="0"/>
        <pt x="18" y="60" on="1"/>
        <pt x="11" y="83" on="0"/>
        <pt x="11" y="100" on="1"/>
        <pt x="11" y="170" on="0"/>
        <pt x="99" y="254" on="0"/>
        <pt x="168" y="272" on="1"/>
        <pt x="259" y="290" on="0"/>
        <pt x="263" y="305" on="1"/>
        <pt x="266" y="316" on="0"/>
        <pt x="266" y="342" on="1"/>
        <pt x="266" y="395" on="0"/>
        <pt x="212" y="395" on="1"/>
        <pt x="189" y="395" on="0"/>
        <pt x="153" y="366" on="0"/>
        <pt x="153" y="344" on="1"/>
        <pt x="159" y="320" on="1"/>
        <pt x="157" y="303" on="0"/>
        <pt x="123" y="300" on="1"/>
        <pt x="112" y="299" on="1"/>
        <pt x="82" y="299" on="0"/>
        <pt x="47" y="329" on="0"/>
        <pt x="47" y="354" on="1"/>
        <pt x="47" y="370" on="0"/>
        <pt x="68" y="409" on="0"/>
        <pt x="100" y="433" on="0"/>
        <pt x="167" y="452" on="0"/>
        <pt x="229" y="452" on="0"/>
        <pt x="263" y="448" on="0"/>
        <pt x="322" y="433" on="0"/>
        <pt x="361" y="391" on="0"/>
        <pt x="364" y="344" on="0"/>
      </contour>
    </TTGlyph>
    <TTGlyph name="aacute" xMin="11" yMin="-13" xMax="395" yMax="645">
      <contour>
        <pt x="200" y="519" on="1"/>
        <pt x="195" y="515" on="0"/>
        <pt x="190" y="515" on="1"/>
        <pt x="182" y="515" on="0"/>
        <pt x="182" y="524" on="1"/>
        <pt x="184" y="532" on="1"/>
        <pt x="211" y="586" on="0"/>
        <pt x="256" y="640" on="1"/>
        <pt x="260" y="645" on="0"/>
        <pt x="277" y="645" on="0"/>
        <pt x="317" y="616" on="0"/>
        <pt x="317" y="595" on="0"/>
        <pt x="308" y="589" on="1"/>
        <pt x="266" y="555" on="0"/>
      </contour>
      <contour>
        <pt x="364" y="300" on="1"/>
        <pt x="362" y="172" on="1"/>
        <pt x="362" y="39" on="0"/>
        <pt x="391" y="12" on="1"/>
        <pt x="395" y="8" on="0"/>
        <pt x="395" y="3" on="1"/>
        <pt x="395" y="-12" on="0"/>
        <pt x="266" y="-12" on="0"/>
        <pt x="262" y="26" on="1"/>
        <pt x="261" y="35" on="0"/>
        <pt x="261" y="63" on="1"/>
        <pt x="265" y="223" on="1"/>
        <pt x="265" y="230" on="0"/>
        <pt x="257" y="230" on="1"/>
        <pt x="209" y="230" on="0"/>
        <pt x="125" y="176" on="0"/>
        <pt x="125" y="134" on="1"/>
        <pt x="125" y="112" on="0"/>
        <pt x="149" y="82" on="0"/>
        <pt x="184" y="82" on="0"/>
        <pt x="207" y="96" on="0"/>
        <pt x="209" y="97" on="1"/>
        <pt x="226" y="95" on="0"/>
        <pt x="226" y="28" on="0"/>
        <pt x="164" y="-13" on="0"/>
        <pt x="96" y="-13" on="0"/>
        <pt x="47" y="11" on="0"/>
        <pt x="25" y="41" on="0"/>
        <pt x="18" y="60" on="1"/>
        <pt x="11" y="83" on="0"/>
        <pt x="11" y="100" on="1"/>
        <pt x="11" y="170" on="0"/>
        <pt x="99" y="254" on="0"/>
        <pt x="168" y="272" on="1"/>
        <pt x="259" y="290" on="0"/>
        <pt x="263" y="305" on="1"/>
        <pt x="266" y="316" on="0"/>
        <pt x="266" y="342" on="1"/>
        <pt x="266" y="395" on="0"/>
        <pt x="212" y="395" on="1"/>
        <pt x="189" y="395" on="0"/>
        <pt x="153" y="366" on="0"/>
        <pt x="153" y="344" on="1"/>
        <pt x="159" y="320" on="1"/>
        <pt x="157" y="303" on="0"/>
        <pt x="123" y="300" on="1"/>
        <pt x="112" y="299" on="1"/>
        <pt x="82" y="299" on="0"/>
        <pt x="47" y="329" on="0"/>
        <pt x="47" y="354" on="1"/>
        <pt x="47" y="370" on="0"/>
        <pt x="68" y="409" on="0"/>
        <pt x="100" y="433" on="0"/>
        <pt x="167" y="452" on="0"/>
        <pt x="229" y="452" on="0"/>
        <pt x="263" y="448" on="0"/>
        <pt x="322" y="433" on="0"/>
        <pt x="361" y="391" on="0"/>
        <pt x="364" y="344" on="0"/>
      </contour>
    </TTGlyph>
    <TTGlyph name="acircumflex" xMin="11" yMin="-13" xMax="395" yMax="637">
      <contour>
        <pt x="335" y="523" on="1"/>
        <pt x="335" y="514" on="0"/>
        <pt x="319" y="514" on="0"/>
        <pt x="225" y="577" on="1"/>
        <pt x="132" y="514" on="0"/>
        <pt x="114" y="514" on="0"/>
        <pt x="114" y="522" on="1"/>
        <pt x="116" y="530" on="1"/>
        <pt x="149" y="593" on="0"/>
        <pt x="185" y="632" on="1"/>
        <pt x="189" y="637" on="0"/>
        <pt x="208" y="637" on="0"/>
        <pt x="225" y="623" on="1"/>
        <pt x="242" y="637" on="0"/>
        <pt x="253" y="637" on="1"/>
        <pt x="265" y="632" on="1"/>
        <pt x="295" y="602" on="0"/>
        <pt x="324" y="548" on="1"/>
        <pt x="334" y="530" on="1"/>
        <pt x="335" y="527" on="0"/>
      </contour>
      <contour>
        <pt x="364" y="300" on="1"/>
        <pt x="362" y="172" on="1"/>
        <pt x="362" y="39" on="0"/>
        <pt x="391" y="12" on="1"/>
        <pt x="395" y="8" on="0"/>
        <pt x="395" y="3" on="1"/>
        <pt x="395" y="-12" on="0"/>
        <pt x="266" y="-12" on="0"/>
        <pt x="262" y="26" on="1"/>
        <pt x="261" y="35" on="0"/>
        <pt x="261" y="63" on="1"/>
        <pt x="265" y="223" on="1"/>
        <pt x="265" y="230" on="0"/>
        <pt x="257" y="230" on="1"/>
        <pt x="209" y="230" on="0"/>
        <pt x="125" y="176" on="0"/>
        <pt x="125" y="134" on="1"/>
        <pt x="125" y="112" on="0"/>
        <pt x="149" y="82" on="0"/>
        <pt x="184" y="82" on="0"/>
        <pt x="207" y="96" on="0"/>
        <pt x="209" y="97" on="1"/>
        <pt x="226" y="95" on="0"/>
        <pt x="226" y="28" on="0"/>
        <pt x="164" y="-13" on="0"/>
        <pt x="96" y="-13" on="0"/>
        <pt x="47" y="11" on="0"/>
        <pt x="25" y="41" on="0"/>
        <pt x="18" y="60" on="1"/>
        <pt x="11" y="83" on="0"/>
        <pt x="11" y="100" on="1"/>
        <pt x="11" y="170" on="0"/>
        <pt x="99" y="254" on="0"/>
        <pt x="168" y="272" on="1"/>
        <pt x="259" y="290" on="0"/>
        <pt x="263" y="305" on="1"/>
        <pt x="266" y="316" on="0"/>
        <pt x="266" y="342" on="1"/>
        <pt x="266" y="395" on="0"/>
        <pt x="212" y="395" on="1"/>
        <pt x="189" y="395" on="0"/>
        <pt x="153" y="366" on="0"/>
        <pt x="153" y="344" on="1"/>
        <pt x="159" y="320" on="1"/>
        <pt x="157" y="303" on="0"/>
        <pt x="123" y="300" on="1"/>
        <pt x="112" y="299" on="1"/>
        <pt x="82" y="299" on="0"/>
        <pt x="47" y="329" on="0"/>
        <pt x="47" y="354" on="1"/>
        <pt x="47" y="370" on="0"/>
        <pt x="68" y="409" on="0"/>
        <pt x="100" y="433" on="0"/>
        <pt x="167" y="452" on="0"/>
        <pt x="229" y="452" on="0"/>
        <pt x="263" y="448" on="0"/>
        <pt x="322" y="433" on="0"/>
        <pt x="361" y="391" on="0"/>
        <pt x="364" y="344" on="0"/>
      </contour>
    </TTGlyph>
    <TTGlyph name="acute" xMin="220" yMin="515" xMax="355" yMax="645">
      <contour>
        <pt x="238" y="519" on="1"/>
        <pt x="233" y="515" on="0"/>
        <pt x="228" y="515" on="1"/>
        <pt x="220" y="515" on="0"/>
        <pt x="220" y="524" on="1"/>
        <pt x="222" y="532" on="1"/>
        <pt x="249" y="586" on="0"/>
        <pt x="294" y="640" on="1"/>
        <pt x="298" y="645" on="0"/>
        <pt x="315" y="645" on="0"/>
        <pt x="355" y="616" on="0"/>
        <pt x="355" y="595" on="0"/>
        <pt x="346" y="589" on="1"/>
        <pt x="304" y="555" on="0"/>
      </contour>
    </TTGlyph>
    <TTGlyph name="adieresis" xMin="11" yMin="-13" xMax="395" yMax="618">
      <contour>
        <pt x="307" y="538" on="1"/>
        <pt x="286" y="537" on="1"/>
        <pt x="267" y="537" on="0"/>
        <pt x="253" y="554" on="0"/>
        <pt x="253" y="600" on="0"/>
        <pt x="273" y="618" on="0"/>
        <pt x="327" y="618" on="0"/>
        <pt x="348" y="597" on="0"/>
        <pt x="348" y="577" on="1"/>
        <pt x="348" y="542" on="0"/>
        <pt x="340" y="525" on="0"/>
        <pt x="338" y="525" on="1"/>
        <pt x="334" y="528" on="1"/>
        <pt x="328" y="538" on="0"/>
      </contour>
      <contour>
        <pt x="132" y="538" on="1"/>
        <pt x="111" y="537" on="1"/>
        <pt x="92" y="537" on="0"/>
        <pt x="78" y="554" on="0"/>
        <pt x="78" y="600" on="0"/>
        <pt x="98" y="618" on="0"/>
        <pt x="152" y="618" on="0"/>
        <pt x="173" y="597" on="0"/>
        <pt x="173" y="577" on="1"/>
        <pt x="173" y="525" on="0"/>
        <pt x="163" y="525" on="1"/>
        <pt x="159" y="528" on="1"/>
        <pt x="153" y="538" on="0"/>
      </contour>
      <contour>
        <pt x="364" y="300" on="1"/>
        <pt x="362" y="172" on="1"/>
        <pt x="362" y="39" on="0"/>
        <pt x="391" y="12" on="1"/>
        <pt x="395" y="8" on="0"/>
        <pt x="395" y="3" on="1"/>
        <pt x="395" y="-12" on="0"/>
        <pt x="266" y="-12" on="0"/>
        <pt x="262" y="26" on="1"/>
        <pt x="261" y="35" on="0"/>
        <pt x="261" y="63" on="1"/>
        <pt x="265" y="223" on="1"/>
        <pt x="265" y="230" on="0"/>
        <pt x="257" y="230" on="1"/>
        <pt x="209" y="230" on="0"/>
        <pt x="125" y="176" on="0"/>
        <pt x="125" y="134" on="1"/>
        <pt x="125" y="112" on="0"/>
        <pt x="149" y="82" on="0"/>
        <pt x="184" y="82" on="0"/>
        <pt x="207" y="96" on="0"/>
        <pt x="209" y="97" on="1"/>
        <pt x="226" y="95" on="0"/>
        <pt x="226" y="28" on="0"/>
        <pt x="164" y="-13" on="0"/>
        <pt x="96" y="-13" on="0"/>
        <pt x="47" y="11" on="0"/>
        <pt x="25" y="41" on="0"/>
        <pt x="18" y="60" on="1"/>
        <pt x="11" y="83" on="0"/>
        <pt x="11" y="100" on="1"/>
        <pt x="11" y="170" on="0"/>
        <pt x="99" y="254" on="0"/>
        <pt x="168" y="272" on="1"/>
        <pt x="259" y="290" on="0"/>
        <pt x="263" y="305" on="1"/>
        <pt x="266" y="316" on="0"/>
        <pt x="266" y="342" on="1"/>
        <pt x="266" y="395" on="0"/>
        <pt x="212" y="395" on="1"/>
        <pt x="189" y="395" on="0"/>
        <pt x="153" y="366" on="0"/>
        <pt x="153" y="344" on="1"/>
        <pt x="159" y="320" on="1"/>
        <pt x="157" y="303" on="0"/>
        <pt x="123" y="300" on="1"/>
        <pt x="112" y="299" on="1"/>
        <pt x="82" y="299" on="0"/>
        <pt x="47" y="329" on="0"/>
        <pt x="47" y="354" on="1"/>
        <pt x="47" y="370" on="0"/>
        <pt x="68" y="409" on="0"/>
        <pt x="100" y="433" on="0"/>
        <pt x="167" y="452" on="0"/>
        <pt x="229" y="452" on="0"/>
        <pt x="263" y="448" on="0"/>
        <pt x="322" y="433" on="0"/>
        <pt x="361" y="391" on="0"/>
        <pt x="364" y="344" on="0"/>
      </contour>
    </TTGlyph>
    <TTGlyph name="ae" xMin="11" yMin="-19" xMax="596" yMax="454">
      <contour>
        <pt x="368" y="254" on="1"/>
        <pt x="369" y="229" on="1"/>
        <pt x="369" y="223" on="0"/>
        <pt x="377" y="223" on="1"/>
        <pt x="409" y="226" on="0"/>
        <pt x="457" y="253" on="0"/>
        <pt x="468" y="270" on="1"/>
        <pt x="493" y="307" on="0"/>
        <pt x="495" y="334" on="1"/>
        <pt x="496" y="346" on="1"/>
        <pt x="496" y="400" on="0"/>
        <pt x="453" y="400" on="1"/>
        <pt x="421" y="400" on="0"/>
        <pt x="400" y="372" on="1"/>
        <pt x="368" y="328" on="0"/>
      </contour>
      <contour>
        <pt x="586" y="121" on="1"/>
        <pt x="586" y="83" on="0"/>
        <pt x="555" y="26" on="0"/>
        <pt x="516" y="-1" on="0"/>
        <pt x="490" y="-9" on="1"/>
        <pt x="458" y="-19" on="0"/>
        <pt x="427" y="-19" on="1"/>
        <pt x="343" y="-19" on="0"/>
        <pt x="263" y="107" on="0"/>
        <pt x="263" y="302" on="0"/>
        <pt x="362" y="454" on="0"/>
        <pt x="461" y="454" on="1"/>
        <pt x="551" y="454" on="0"/>
        <pt x="584" y="391" on="1"/>
        <pt x="596" y="367" on="0"/>
        <pt x="596" y="324" on="0"/>
        <pt x="592" y="299" on="0"/>
        <pt x="568" y="249" on="0"/>
        <pt x="528" y="209" on="0"/>
        <pt x="442" y="173" on="0"/>
        <pt x="384" y="167" on="1"/>
        <pt x="376" y="167" on="0"/>
        <pt x="376" y="160" on="1"/>
        <pt x="376" y="151" on="0"/>
        <pt x="389" y="116" on="0"/>
        <pt x="398" y="104" on="1"/>
        <pt x="419" y="76" on="0"/>
        <pt x="462" y="76" on="1"/>
        <pt x="505" y="76" on="0"/>
        <pt x="536" y="104" on="1"/>
        <pt x="551" y="119" on="0"/>
        <pt x="561" y="141" on="1"/>
        <pt x="565" y="149" on="0"/>
        <pt x="578" y="149" on="0"/>
        <pt x="586" y="127" on="0"/>
      </contour>
      <contour>
        <pt x="364" y="300" on="1"/>
        <pt x="362" y="172" on="1"/>
        <pt x="362" y="39" on="0"/>
        <pt x="391" y="12" on="1"/>
        <pt x="395" y="8" on="0"/>
        <pt x="395" y="3" on="1"/>
        <pt x="395" y="-12" on="0"/>
        <pt x="266" y="-12" on="0"/>
        <pt x="262" y="26" on="1"/>
        <pt x="261" y="35" on="0"/>
        <pt x="261" y="63" on="1"/>
        <pt x="265" y="223" on="1"/>
        <pt x="265" y="230" on="0"/>
        <pt x="257" y="230" on="1"/>
        <pt x="209" y="230" on="0"/>
        <pt x="125" y="176" on="0"/>
        <pt x="125" y="134" on="1"/>
        <pt x="125" y="112" on="0"/>
        <pt x="149" y="82" on="0"/>
        <pt x="184" y="82" on="0"/>
        <pt x="207" y="96" on="0"/>
        <pt x="209" y="97" on="1"/>
        <pt x="226" y="95" on="0"/>
        <pt x="226" y="28" on="0"/>
        <pt x="164" y="-13" on="0"/>
        <pt x="96" y="-13" on="0"/>
        <pt x="47" y="11" on="0"/>
        <pt x="25" y="41" on="0"/>
        <pt x="18" y="60" on="1"/>
        <pt x="11" y="83" on="0"/>
        <pt x="11" y="100" on="1"/>
        <pt x="11" y="170" on="0"/>
        <pt x="99" y="254" on="0"/>
        <pt x="168" y="272" on="1"/>
        <pt x="259" y="290" on="0"/>
        <pt x="263" y="305" on="1"/>
        <pt x="266" y="316" on="0"/>
        <pt x="266" y="342" on="1"/>
        <pt x="266" y="395" on="0"/>
        <pt x="212" y="395" on="1"/>
        <pt x="189" y="395" on="0"/>
        <pt x="153" y="366" on="0"/>
        <pt x="153" y="344" on="1"/>
        <pt x="159" y="320" on="1"/>
        <pt x="157" y="303" on="0"/>
        <pt x="123" y="300" on="1"/>
        <pt x="112" y="299" on="1"/>
        <pt x="82" y="299" on="0"/>
        <pt x="47" y="329" on="0"/>
        <pt x="47" y="354" on="1"/>
        <pt x="47" y="370" on="0"/>
        <pt x="68" y="409" on="0"/>
        <pt x="100" y="433" on="0"/>
        <pt x="167" y="452" on="0"/>
        <pt x="229" y="452" on="0"/>
        <pt x="263" y="448" on="0"/>
        <pt x="322" y="433" on="0"/>
        <pt x="361" y="391" on="0"/>
        <pt x="364" y="344" on="0"/>
      </contour>
    </TTGlyph>
    <TTGlyph name="agrave" xMin="11" yMin="-13" xMax="395" yMax="645">
      <contour>
        <pt x="293" y="522" on="0"/>
        <pt x="288" y="515" on="0"/>
        <pt x="279" y="515" on="0"/>
        <pt x="187" y="574" on="0"/>
        <pt x="159" y="595" on="0"/>
        <pt x="159" y="616" on="0"/>
        <pt x="198" y="645" on="0"/>
        <pt x="207" y="645" on="1"/>
        <pt x="219" y="640" on="1"/>
        <pt x="233" y="626" on="0"/>
        <pt x="293" y="534" on="0"/>
      </contour>
      <contour>
        <pt x="364" y="300" on="1"/>
        <pt x="362" y="172" on="1"/>
        <pt x="362" y="39" on="0"/>
        <pt x="391" y="12" on="1"/>
        <pt x="395" y="8" on="0"/>
        <pt x="395" y="3" on="1"/>
        <pt x="395" y="-12" on="0"/>
        <pt x="266" y="-12" on="0"/>
        <pt x="262" y="26" on="1"/>
        <pt x="261" y="35" on="0"/>
        <pt x="261" y="63" on="1"/>
        <pt x="265" y="223" on="1"/>
        <pt x="265" y="230" on="0"/>
        <pt x="257" y="230" on="1"/>
        <pt x="209" y="230" on="0"/>
        <pt x="125" y="176" on="0"/>
        <pt x="125" y="134" on="1"/>
        <pt x="125" y="112" on="0"/>
        <pt x="149" y="82" on="0"/>
        <pt x="184" y="82" on="0"/>
        <pt x="207" y="96" on="0"/>
        <pt x="209" y="97" on="1"/>
        <pt x="226" y="95" on="0"/>
        <pt x="226" y="28" on="0"/>
        <pt x="164" y="-13" on="0"/>
        <pt x="96" y="-13" on="0"/>
        <pt x="47" y="11" on="0"/>
        <pt x="25" y="41" on="0"/>
        <pt x="18" y="60" on="1"/>
        <pt x="11" y="83" on="0"/>
        <pt x="11" y="100" on="1"/>
        <pt x="11" y="170" on="0"/>
        <pt x="99" y="254" on="0"/>
        <pt x="168" y="272" on="1"/>
        <pt x="259" y="290" on="0"/>
        <pt x="263" y="305" on="1"/>
        <pt x="266" y="316" on="0"/>
        <pt x="266" y="342" on="1"/>
        <pt x="266" y="395" on="0"/>
        <pt x="212" y="395" on="1"/>
        <pt x="189" y="395" on="0"/>
        <pt x="153" y="366" on="0"/>
        <pt x="153" y="344" on="1"/>
        <pt x="159" y="320" on="1"/>
        <pt x="157" y="303" on="0"/>
        <pt x="123" y="300" on="1"/>
        <pt x="112" y="299" on="1"/>
        <pt x="82" y="299" on="0"/>
        <pt x="47" y="329" on="0"/>
        <pt x="47" y="354" on="1"/>
        <pt x="47" y="370" on="0"/>
        <pt x="68" y="409" on="0"/>
        <pt x="100" y="433" on="0"/>
        <pt x="167" y="452" on="0"/>
        <pt x="229" y="452" on="0"/>
        <pt x="263" y="448" on="0"/>
        <pt x="322" y="433" on="0"/>
        <pt x="361" y="391" on="0"/>
        <pt x="364" y="344" on="0"/>
      </contour>
    </TTGlyph>
    <TTGlyph name="ampersand" xMin="31" yMin="-18" xMax="574" yMax="706">
      <contour>
        <pt x="258" y="526" on="1"/>
        <pt x="260" y="520" on="0"/>
        <pt x="268" y="520" on="0"/>
        <pt x="272" y="524" on="1"/>
        <pt x="317" y="567" on="0"/>
        <pt x="317" y="612" on="1"/>
        <pt x="317" y="633" on="0"/>
        <pt x="295" y="654" on="0"/>
        <pt x="258" y="654" on="0"/>
        <pt x="236" y="624" on="0"/>
        <pt x="236" y="565" on="0"/>
      </contour>
      <contour>
        <pt x="280" y="65" on="1"/>
        <pt x="326" y="65" on="0"/>
        <pt x="363" y="84" on="1"/>
        <pt x="318" y="158" on="0"/>
        <pt x="222" y="366" on="0"/>
        <pt x="216" y="376" on="0"/>
        <pt x="214" y="376" on="1"/>
        <pt x="208" y="373" on="1"/>
        <pt x="147" y="315" on="0"/>
        <pt x="147" y="214" on="1"/>
        <pt x="147" y="150" on="0"/>
        <pt x="214" y="65" on="0"/>
      </contour>
      <contour>
        <pt x="182" y="442" on="1"/>
        <pt x="184" y="444" on="0"/>
        <pt x="184" y="450" on="0"/>
        <pt x="182" y="454" on="1"/>
        <pt x="148" y="516" on="0"/>
        <pt x="148" y="632" on="0"/>
        <pt x="229" y="706" on="0"/>
        <pt x="294" y="706" on="1"/>
        <pt x="321" y="706" on="0"/>
        <pt x="347" y="696" on="1"/>
        <pt x="396" y="677" on="0"/>
        <pt x="396" y="622" on="1"/>
        <pt x="396" y="549" on="0"/>
        <pt x="296" y="457" on="1"/>
        <pt x="294" y="455" on="0"/>
        <pt x="294" y="453" on="1"/>
        <pt x="351" y="319" on="0"/>
        <pt x="439" y="175" on="1"/>
        <pt x="455" y="221" on="0"/>
        <pt x="455" y="276" on="1"/>
        <pt x="453" y="314" on="0"/>
        <pt x="438" y="332" on="1"/>
        <pt x="436" y="335" on="0"/>
        <pt x="436" y="338" on="1"/>
        <pt x="436" y="352" on="0"/>
        <pt x="518" y="352" on="0"/>
        <pt x="543" y="322" on="0"/>
        <pt x="543" y="289" on="1"/>
        <pt x="543" y="185" on="0"/>
        <pt x="486" y="103" on="1"/>
        <pt x="535" y="33" on="0"/>
        <pt x="564" y="28" on="1"/>
        <pt x="573" y="25" on="0"/>
        <pt x="574" y="8" on="0"/>
        <pt x="559" y="2" on="1"/>
        <pt x="511" y="-18" on="0"/>
        <pt x="485" y="-18" on="1"/>
        <pt x="444" y="-18" on="0"/>
        <pt x="426" y="-2" on="1"/>
        <pt x="419" y="5" on="0"/>
        <pt x="403" y="23" on="1"/>
        <pt x="340" y="-16" on="0"/>
        <pt x="266" y="-16" on="1"/>
        <pt x="164" y="-16" on="0"/>
        <pt x="31" y="89" on="0"/>
        <pt x="31" y="188" on="1"/>
        <pt x="31" y="321" on="0"/>
        <pt x="172" y="434" on="1"/>
      </contour>
    </TTGlyph>
    <TTGlyph name="apple" xMin="22" yMin="-12" xMax="657" yMax="741">
      <contour>
        <pt x="468" y="741" on="1"/>
        <pt x="369" y="646" on="1"/>
        <pt x="347" y="648" on="0"/>
        <pt x="332" y="648" on="0"/>
        <pt x="310" y="646" on="1"/>
        <pt x="211" y="741" on="1"/>
        <pt x="283" y="741" on="1"/>
        <pt x="339" y="682" on="1"/>
        <pt x="395" y="741" on="1"/>
      </contour>
      <contour>
        <pt x="485" y="207" on="1"/>
        <pt x="485" y="151" on="0"/>
        <pt x="393" y="95" on="0"/>
        <pt x="280" y="95" on="0"/>
        <pt x="193" y="135" on="1"/>
        <pt x="205" y="193" on="1"/>
        <pt x="275" y="149" on="0"/>
        <pt x="335" y="149" on="1"/>
        <pt x="373" y="149" on="0"/>
        <pt x="419" y="180" on="0"/>
        <pt x="419" y="203" on="1"/>
        <pt x="419" y="237" on="0"/>
        <pt x="353" y="271" on="1"/>
        <pt x="313" y="291" on="1"/>
        <pt x="261" y="317" on="0"/>
        <pt x="203" y="370" on="0"/>
        <pt x="203" y="410" on="1"/>
        <pt x="203" y="466" on="0"/>
        <pt x="286" y="517" on="0"/>
        <pt x="330" y="517" on="1"/>
        <pt x="385" y="517" on="0"/>
        <pt x="443" y="484" on="1"/>
        <pt x="463" y="472" on="1"/>
        <pt x="450" y="418" on="1"/>
        <pt x="398" y="463" on="0"/>
        <pt x="340" y="463" on="1"/>
        <pt x="306" y="463" on="0"/>
        <pt x="266" y="435" on="0"/>
        <pt x="266" y="413" on="1"/>
        <pt x="266" y="380" on="0"/>
        <pt x="333" y="351" on="1"/>
        <pt x="337" y="349" on="0"/>
        <pt x="384" y="329" on="0"/>
        <pt x="399" y="320" on="0"/>
        <pt x="438" y="299" on="0"/>
        <pt x="454" y="282" on="0"/>
        <pt x="465" y="268" on="1"/>
        <pt x="485" y="244" on="0"/>
      </contour>
      <contour>
        <pt x="602" y="197" on="0"/>
        <pt x="602" y="415" on="0"/>
        <pt x="448" y="569" on="0"/>
        <pt x="230" y="569" on="0"/>
        <pt x="76" y="415" on="0"/>
        <pt x="76" y="197" on="0"/>
        <pt x="230" y="43" on="0"/>
        <pt x="448" y="43" on="0"/>
      </contour>
      <contour>
        <pt x="471" y="623" on="0"/>
        <pt x="657" y="437" on="0"/>
        <pt x="657" y="174" on="0"/>
        <pt x="471" y="-12" on="0"/>
        <pt x="208" y="-12" on="0"/>
        <pt x="22" y="174" on="0"/>
        <pt x="22" y="437" on="0"/>
        <pt x="208" y="623" on="0"/>
      </contour>
    </TTGlyph>
    <TTGlyph name="aring" xMin="11" yMin="-13" xMax="395" yMax="634">
      <contour>
        <pt x="225" y="549" on="1"/>
        <pt x="240" y="549" on="0"/>
        <pt x="258" y="543" on="1"/>
        <pt x="263" y="543" on="0"/>
        <pt x="263" y="559" on="1"/>
        <pt x="263" y="606" on="0"/>
        <pt x="234" y="606" on="1"/>
        <pt x="220" y="606" on="0"/>
        <pt x="204" y="590" on="0"/>
        <pt x="204" y="578" on="1"/>
        <pt x="204" y="549" on="0"/>
      </contour>
      <contour>
        <pt x="173" y="575" on="1"/>
        <pt x="173" y="604" on="0"/>
        <pt x="206" y="634" on="0"/>
        <pt x="263" y="634" on="0"/>
        <pt x="293" y="592" on="0"/>
        <pt x="293" y="506" on="0"/>
        <pt x="280" y="506" on="1"/>
        <pt x="277" y="506" on="0"/>
        <pt x="274" y="508" on="1"/>
        <pt x="258" y="522" on="0"/>
        <pt x="220" y="522" on="1"/>
        <pt x="173" y="522" on="0"/>
      </contour>
      <contour>
        <pt x="364" y="300" on="1"/>
        <pt x="362" y="172" on="1"/>
        <pt x="362" y="39" on="0"/>
        <pt x="391" y="12" on="1"/>
        <pt x="395" y="8" on="0"/>
        <pt x="395" y="3" on="1"/>
        <pt x="395" y="-12" on="0"/>
        <pt x="266" y="-12" on="0"/>
        <pt x="262" y="26" on="1"/>
        <pt x="261" y="35" on="0"/>
        <pt x="261" y="63" on="1"/>
        <pt x="265" y="223" on="1"/>
        <pt x="265" y="230" on="0"/>
        <pt x="257" y="230" on="1"/>
        <pt x="209" y="230" on="0"/>
        <pt x="125" y="176" on="0"/>
        <pt x="125" y="134" on="1"/>
        <pt x="125" y="112" on="0"/>
        <pt x="149" y="82" on="0"/>
        <pt x="184" y="82" on="0"/>
        <pt x="207" y="96" on="0"/>
        <pt x="209" y="97" on="1"/>
        <pt x="226" y="95" on="0"/>
        <pt x="226" y="28" on="0"/>
        <pt x="164" y="-13" on="0"/>
        <pt x="96" y="-13" on="0"/>
        <pt x="47" y="11" on="0"/>
        <pt x="25" y="41" on="0"/>
        <pt x="18" y="60" on="1"/>
        <pt x="11" y="83" on="0"/>
        <pt x="11" y="100" on="1"/>
        <pt x="11" y="170" on="0"/>
        <pt x="99" y="254" on="0"/>
        <pt x="168" y="272" on="1"/>
        <pt x="259" y="290" on="0"/>
        <pt x="263" y="305" on="1"/>
        <pt x="266" y="316" on="0"/>
        <pt x="266" y="342" on="1"/>
        <pt x="266" y="395" on="0"/>
        <pt x="212" y="395" on="1"/>
        <pt x="189" y="395" on="0"/>
        <pt x="153" y="366" on="0"/>
        <pt x="153" y="344" on="1"/>
        <pt x="159" y="320" on="1"/>
        <pt x="157" y="303" on="0"/>
        <pt x="123" y="300" on="1"/>
        <pt x="112" y="299" on="1"/>
        <pt x="82" y="299" on="0"/>
        <pt x="47" y="329" on="0"/>
        <pt x="47" y="354" on="1"/>
        <pt x="47" y="370" on="0"/>
        <pt x="68" y="409" on="0"/>
        <pt x="100" y="433" on="0"/>
        <pt x="167" y="452" on="0"/>
        <pt x="229" y="452" on="0"/>
        <pt x="263" y="448" on="0"/>
        <pt x="322" y="433" on="0"/>
        <pt x="361" y="391" on="0"/>
        <pt x="364" y="344" on="0"/>
      </contour>
    </TTGlyph>
    <TTGlyph name="asciicircum" xMin="40" yMin="196" xMax="261" yMax="319">
      <contour>
        <pt x="261" y="205" on="1"/>
        <pt x="261" y="196" on="0"/>
        <pt x="245" y="196" on="0"/>
        <pt x="151" y="259" on="1"/>
        <pt x="58" y="196" on="0"/>
        <pt x="40" y="196" on="0"/>
        <pt x="40" y="204" on="1"/>
        <pt x="42" y="212" on="1"/>
        <pt x="75" y="275" on="0"/>
        <pt x="111" y="314" on="1"/>
        <pt x="115" y="319" on="0"/>
        <pt x="134" y="319" on="0"/>
        <pt x="151" y="305" on="1"/>
        <pt x="168" y="319" on="0"/>
        <pt x="179" y="319" on="1"/>
        <pt x="191" y="314" on="1"/>
        <pt x="221" y="284" on="0"/>
        <pt x="250" y="230" on="1"/>
        <pt x="260" y="212" on="1"/>
        <pt x="261" y="209" on="0"/>
      </contour>
    </TTGlyph>
    <TTGlyph name="asciitilde" xMin="50" yMin="229" xMax="270" yMax="287">
      <contour>
        <pt x="124" y="287" on="1"/>
        <pt x="225" y="279" on="1"/>
        <pt x="245" y="279" on="0"/>
        <pt x="263" y="285" on="0"/>
        <pt x="264" y="285" on="1"/>
        <pt x="270" y="285" on="0"/>
        <pt x="270" y="280" on="1"/>
        <pt x="270" y="265" on="0"/>
        <pt x="231" y="229" on="0"/>
        <pt x="194" y="229" on="0"/>
        <pt x="137" y="243" on="0"/>
        <pt x="99" y="243" on="0"/>
        <pt x="72" y="237" on="0"/>
        <pt x="56" y="231" on="0"/>
        <pt x="50" y="231" on="0"/>
        <pt x="50" y="247" on="0"/>
        <pt x="95" y="287" on="0"/>
      </contour>
    </TTGlyph>
    <TTGlyph name="asterisk" xMin="20" yMin="515" xMax="217" yMax="727">
      <contour>
        <pt x="104" y="643" on="1"/>
        <pt x="107" y="643" on="0"/>
        <pt x="107" y="670" on="0"/>
        <pt x="96" y="712" on="0"/>
        <pt x="96" y="713" on="1"/>
        <pt x="96" y="727" on="0"/>
        <pt x="141" y="727" on="0"/>
        <pt x="141" y="715" on="1"/>
        <pt x="141" y="713" on="0"/>
        <pt x="129" y="664" on="0"/>
        <pt x="129" y="642" on="0"/>
        <pt x="135" y="642" on="0"/>
        <pt x="142" y="648" on="1"/>
        <pt x="161" y="661" on="0"/>
        <pt x="185" y="685" on="1"/>
        <pt x="188" y="688" on="0"/>
        <pt x="201" y="688" on="0"/>
        <pt x="217" y="666" on="0"/>
        <pt x="217" y="649" on="0"/>
        <pt x="194" y="644" on="0"/>
        <pt x="144" y="626" on="0"/>
        <pt x="144" y="618" on="0"/>
        <pt x="153" y="614" on="1"/>
        <pt x="174" y="603" on="0"/>
        <pt x="208" y="595" on="1"/>
        <pt x="215" y="593" on="0"/>
        <pt x="215" y="575" on="0"/>
        <pt x="202" y="552" on="0"/>
        <pt x="190" y="552" on="0"/>
        <pt x="182" y="559" on="0"/>
        <pt x="174" y="566" on="1"/>
        <pt x="163" y="578" on="1"/>
        <pt x="141" y="598" on="0"/>
        <pt x="133" y="598" on="1"/>
        <pt x="129" y="598" on="0"/>
        <pt x="129" y="578" on="0"/>
        <pt x="135" y="554" on="1"/>
        <pt x="141" y="529" on="1"/>
        <pt x="141" y="515" on="0"/>
        <pt x="96" y="515" on="0"/>
        <pt x="96" y="527" on="1"/>
        <pt x="96" y="528" on="0"/>
        <pt x="107" y="575" on="0"/>
        <pt x="107" y="598" on="0"/>
        <pt x="103" y="598" on="1"/>
        <pt x="94" y="598" on="0"/>
        <pt x="52" y="556" on="1"/>
        <pt x="49" y="553" on="0"/>
        <pt x="36" y="553" on="0"/>
        <pt x="20" y="575" on="0"/>
        <pt x="20" y="591" on="0"/>
        <pt x="30" y="595" on="1"/>
        <pt x="64" y="602" on="0"/>
        <pt x="91" y="618" on="0"/>
        <pt x="91" y="621" on="1"/>
        <pt x="87" y="626" on="1"/>
        <pt x="63" y="638" on="0"/>
        <pt x="29" y="646" on="1"/>
        <pt x="21" y="649" on="0"/>
        <pt x="21" y="667" on="0"/>
        <pt x="35" y="689" on="0"/>
        <pt x="47" y="689" on="0"/>
        <pt x="52" y="684" on="1"/>
        <pt x="90" y="643" on="0"/>
      </contour>
    </TTGlyph>
    <TTGlyph name="at" xMin="40" yMin="-161" xMax="872" yMax="599">
      <contour>
        <pt x="616" y="300" on="1"/>
        <pt x="613" y="137" on="1"/>
        <pt x="613" y="65" on="0"/>
        <pt x="637" y="4" on="0"/>
        <pt x="704" y="4" on="0"/>
        <pt x="748" y="56" on="0"/>
        <pt x="758" y="96" on="1"/>
        <pt x="775" y="165" on="0"/>
        <pt x="775" y="291" on="0"/>
        <pt x="746" y="393" on="0"/>
        <pt x="702" y="457" on="0"/>
        <pt x="640" y="505" on="0"/>
        <pt x="586" y="528" on="0"/>
        <pt x="556" y="535" on="1"/>
        <pt x="517" y="544" on="0"/>
        <pt x="483" y="544" on="1"/>
        <pt x="327" y="544" on="0"/>
        <pt x="148" y="353" on="0"/>
        <pt x="148" y="64" on="0"/>
        <pt x="288" y="-106" on="0"/>
        <pt x="422" y="-106" on="1"/>
        <pt x="456" y="-102" on="1"/>
        <pt x="463" y="-102" on="0"/>
        <pt x="463" y="-109" on="1"/>
        <pt x="463" y="-128" on="0"/>
        <pt x="399" y="-161" on="0"/>
        <pt x="361" y="-161" on="1"/>
        <pt x="209" y="-161" on="0"/>
        <pt x="40" y="19" on="0"/>
        <pt x="40" y="166" on="1"/>
        <pt x="40" y="167" on="1"/>
        <pt x="40" y="306" on="0"/>
        <pt x="95" y="398" on="1"/>
        <pt x="147" y="484" on="0"/>
        <pt x="222" y="526" on="1"/>
        <pt x="299" y="570" on="0"/>
        <pt x="363" y="584" on="1"/>
        <pt x="426" y="597" on="0"/>
        <pt x="461" y="598" on="1"/>
        <pt x="476" y="599" on="1"/>
        <pt x="555" y="599" on="0"/>
        <pt x="684" y="564" on="0"/>
        <pt x="764" y="511" on="0"/>
        <pt x="824" y="438" on="0"/>
        <pt x="853" y="375" on="0"/>
        <pt x="861" y="340" on="1"/>
        <pt x="872" y="292" on="0"/>
        <pt x="872" y="204" on="0"/>
        <pt x="847" y="98" on="0"/>
        <pt x="796" y="6" on="0"/>
        <pt x="705" y="-50" on="0"/>
        <pt x="570" y="-50" on="0"/>
        <pt x="511" y="10" on="0"/>
        <pt x="511" y="75" on="1"/>
        <pt x="517" y="223" on="1"/>
        <pt x="517" y="227" on="0"/>
        <pt x="512" y="231" on="0"/>
        <pt x="510" y="231" on="1"/>
        <pt x="508" y="231" on="1"/>
        <pt x="459" y="229" on="0"/>
        <pt x="377" y="176" on="0"/>
        <pt x="377" y="134" on="1"/>
        <pt x="377" y="112" on="0"/>
        <pt x="401" y="82" on="0"/>
        <pt x="434" y="82" on="0"/>
        <pt x="459" y="96" on="0"/>
        <pt x="461" y="97" on="1"/>
        <pt x="478" y="95" on="0"/>
        <pt x="478" y="28" on="0"/>
        <pt x="416" y="-13" on="0"/>
        <pt x="349" y="-13" on="0"/>
        <pt x="301" y="9" on="0"/>
        <pt x="278" y="38" on="0"/>
        <pt x="272" y="56" on="1"/>
        <pt x="263" y="81" on="0"/>
        <pt x="263" y="101" on="1"/>
        <pt x="263" y="187" on="0"/>
        <pt x="339" y="238" on="1"/>
        <pt x="375" y="263" on="0"/>
        <pt x="497" y="294" on="0"/>
        <pt x="508" y="298" on="1"/>
        <pt x="515" y="306" on="1"/>
        <pt x="518" y="322" on="0"/>
        <pt x="518" y="372" on="0"/>
        <pt x="491" y="395" on="0"/>
        <pt x="438" y="395" on="0"/>
        <pt x="405" y="366" on="0"/>
        <pt x="405" y="343" on="1"/>
        <pt x="411" y="320" on="1"/>
        <pt x="410" y="312" on="0"/>
        <pt x="386" y="302" on="0"/>
        <pt x="375" y="301" on="1"/>
        <pt x="364" y="300" on="1"/>
        <pt x="337" y="300" on="0"/>
        <pt x="299" y="330" on="0"/>
        <pt x="299" y="383" on="0"/>
        <pt x="334" y="425" on="0"/>
        <pt x="362" y="434" on="1"/>
        <pt x="415" y="452" on="0"/>
        <pt x="469" y="452" on="1"/>
        <pt x="504" y="452" on="0"/>
        <pt x="540" y="442" on="1"/>
        <pt x="611" y="421" on="0"/>
        <pt x="615" y="360" on="1"/>
        <pt x="616" y="344" on="0"/>
      </contour>
    </TTGlyph>
    <TTGlyph name="atilde" xMin="11" yMin="-13" xMax="395" yMax="577">
      <contour>
        <pt x="173" y="577" on="1"/>
        <pt x="274" y="569" on="1"/>
        <pt x="294" y="569" on="0"/>
        <pt x="312" y="575" on="0"/>
        <pt x="313" y="575" on="1"/>
        <pt x="319" y="575" on="0"/>
        <pt x="319" y="570" on="1"/>
        <pt x="319" y="555" on="0"/>
        <pt x="280" y="519" on="0"/>
        <pt x="243" y="519" on="0"/>
        <pt x="186" y="533" on="0"/>
        <pt x="148" y="533" on="0"/>
        <pt x="121" y="527" on="0"/>
        <pt x="105" y="521" on="0"/>
        <pt x="99" y="521" on="0"/>
        <pt x="99" y="537" on="0"/>
        <pt x="144" y="577" on="0"/>
      </contour>
      <contour>
        <pt x="364" y="300" on="1"/>
        <pt x="362" y="172" on="1"/>
        <pt x="362" y="39" on="0"/>
        <pt x="391" y="12" on="1"/>
        <pt x="395" y="8" on="0"/>
        <pt x="395" y="3" on="1"/>
        <pt x="395" y="-12" on="0"/>
        <pt x="266" y="-12" on="0"/>
        <pt x="262" y="26" on="1"/>
        <pt x="261" y="35" on="0"/>
        <pt x="261" y="63" on="1"/>
        <pt x="265" y="223" on="1"/>
        <pt x="265" y="230" on="0"/>
        <pt x="257" y="230" on="1"/>
        <pt x="209" y="230" on="0"/>
        <pt x="125" y="176" on="0"/>
        <pt x="125" y="134" on="1"/>
        <pt x="125" y="112" on="0"/>
        <pt x="149" y="82" on="0"/>
        <pt x="184" y="82" on="0"/>
        <pt x="207" y="96" on="0"/>
        <pt x="209" y="97" on="1"/>
        <pt x="226" y="95" on="0"/>
        <pt x="226" y="28" on="0"/>
        <pt x="164" y="-13" on="0"/>
        <pt x="96" y="-13" on="0"/>
        <pt x="47" y="11" on="0"/>
        <pt x="25" y="41" on="0"/>
        <pt x="18" y="60" on="1"/>
        <pt x="11" y="83" on="0"/>
        <pt x="11" y="100" on="1"/>
        <pt x="11" y="170" on="0"/>
        <pt x="99" y="254" on="0"/>
        <pt x="168" y="272" on="1"/>
        <pt x="259" y="290" on="0"/>
        <pt x="263" y="305" on="1"/>
        <pt x="266" y="316" on="0"/>
        <pt x="266" y="342" on="1"/>
        <pt x="266" y="395" on="0"/>
        <pt x="212" y="395" on="1"/>
        <pt x="189" y="395" on="0"/>
        <pt x="153" y="366" on="0"/>
        <pt x="153" y="344" on="1"/>
        <pt x="159" y="320" on="1"/>
        <pt x="157" y="303" on="0"/>
        <pt x="123" y="300" on="1"/>
        <pt x="112" y="299" on="1"/>
        <pt x="82" y="299" on="0"/>
        <pt x="47" y="329" on="0"/>
        <pt x="47" y="354" on="1"/>
        <pt x="47" y="370" on="0"/>
        <pt x="68" y="409" on="0"/>
        <pt x="100" y="433" on="0"/>
        <pt x="167" y="452" on="0"/>
        <pt x="229" y="452" on="0"/>
        <pt x="263" y="448" on="0"/>
        <pt x="322" y="433" on="0"/>
        <pt x="361" y="391" on="0"/>
        <pt x="364" y="344" on="0"/>
      </contour>
    </TTGlyph>
    <TTGlyph name="b" xMin="5" yMin="-21" xMax="404" yMax="698">
      <contour>
        <pt x="232" y="345" on="1"/>
        <pt x="209" y="339" on="1"/>
        <pt x="191" y="339" on="0"/>
        <pt x="191" y="406" on="0"/>
        <pt x="240" y="447" on="0"/>
        <pt x="278" y="447" on="1"/>
        <pt x="299" y="447" on="0"/>
        <pt x="347" y="422" on="0"/>
        <pt x="379" y="385" on="0"/>
        <pt x="404" y="306" on="0"/>
        <pt x="404" y="253" on="1"/>
        <pt x="404" y="131" on="0"/>
        <pt x="273" y="-21" on="0"/>
        <pt x="149" y="-21" on="1"/>
        <pt x="113" y="-21" on="0"/>
        <pt x="78" y="-14" on="1"/>
        <pt x="68" y="-12" on="1"/>
        <pt x="55" y="-8" on="0"/>
        <pt x="53" y="2" on="1"/>
        <pt x="50" y="23" on="0"/>
        <pt x="50" y="101" on="1"/>
        <pt x="56" y="425" on="1"/>
        <pt x="56" y="500" on="0"/>
        <pt x="52" y="540" on="1"/>
        <pt x="50" y="554" on="1"/>
        <pt x="48" y="582" on="0"/>
        <pt x="29" y="622" on="0"/>
        <pt x="20" y="628" on="1"/>
        <pt x="12" y="633" on="1"/>
        <pt x="5" y="637" on="0"/>
        <pt x="5" y="642" on="1"/>
        <pt x="5" y="657" on="0"/>
        <pt x="105" y="698" on="0"/>
        <pt x="151" y="698" on="0"/>
        <pt x="152" y="686" on="1"/>
        <pt x="159" y="625" on="0"/>
        <pt x="159" y="512" on="1"/>
        <pt x="154" y="272" on="1"/>
        <pt x="154" y="115" on="0"/>
        <pt x="163" y="55" on="1"/>
        <pt x="164" y="41" on="0"/>
        <pt x="225" y="41" on="0"/>
        <pt x="269" y="75" on="0"/>
        <pt x="280" y="103" on="1"/>
        <pt x="300" y="154" on="0"/>
        <pt x="300" y="216" on="1"/>
        <pt x="300" y="245" on="0"/>
        <pt x="292" y="279" on="1"/>
        <pt x="278" y="345" on="0"/>
      </contour>
    </TTGlyph>
    <TTGlyph name="backslash" xMin="-47" yMin="-63" xMax="503" yMax="749">
      <contour>
        <pt x="473" y="-63" on="1"/>
        <pt x="461" y="-63" on="0"/>
        <pt x="441" y="-52" on="0"/>
        <pt x="434" y="-42" on="1"/>
        <pt x="-47" y="740" on="0"/>
        <pt x="-47" y="741" on="1"/>
        <pt x="-47" y="749" on="0"/>
        <pt x="-26" y="749" on="1"/>
        <pt x="12" y="749" on="0"/>
        <pt x="20" y="738" on="1"/>
        <pt x="500" y="-42" on="1"/>
        <pt x="503" y="-46" on="0"/>
        <pt x="503" y="-51" on="1"/>
        <pt x="503" y="-63" on="0"/>
      </contour>
    </TTGlyph>
</ttFont>
